<svg width="16" height="17" viewBox="0 0 16 17" fill="none" xmlns="http://www.w3.org/2000/svg">
<path d="M0.585949 12.7646C0.460895 12.8892 0.361669 13.0373 0.293964 13.2003C0.226258 13.3633 0.191406 13.5381 0.191406 13.7146C0.191406 13.8911 0.226258 14.0659 0.293964 14.229C0.361669 14.392 0.460895 14.54 0.585949 14.6646L1.53395 15.6126C1.65854 15.7377 1.80659 15.8369 1.96961 15.9046C2.13264 15.9723 2.30742 16.0072 2.48395 16.0072C2.66047 16.0072 2.83526 15.9723 2.99828 15.9046C3.16131 15.8369 3.30936 15.7377 3.43395 15.6126L7.69195 11.3426L4.84995 8.49861L0.585949 12.7646ZM14.8009 2.33961L13.8529 1.39161C13.7284 1.26655 13.5803 1.16733 13.4173 1.09962C13.2543 1.03192 13.0795 0.99707 12.9029 0.99707C12.7264 0.99707 12.5516 1.03192 12.3886 1.09962C12.2256 1.16733 12.0775 1.26655 11.9529 1.39161L7.69195 5.65661L10.5359 8.49861L14.7999 4.23461C15.0511 3.98332 15.1923 3.64261 15.1925 3.28732C15.1927 2.93202 15.0519 2.59117 14.8009 2.33961V2.33961Z" fill="#A6B1C3"/>
<path d="M14.8009 12.7647C14.926 12.8893 15.0252 13.0374 15.0929 13.2004C15.1606 13.3634 15.1955 13.5382 15.1955 13.7147C15.1955 13.8912 15.1606 14.066 15.0929 14.229C15.0252 14.3921 14.926 14.5401 14.8009 14.6647L13.8529 15.6127C13.7284 15.7378 13.5803 15.837 13.4173 15.9047C13.2543 15.9724 13.0795 16.0073 12.9029 16.0073C12.7264 16.0073 12.5516 15.9724 12.3886 15.9047C12.2256 15.837 12.0775 15.7378 11.9529 15.6127L0.585949 4.23571C0.460895 4.11112 0.361669 3.96307 0.293964 3.80005C0.226258 3.63702 0.191406 3.46224 0.191406 3.28571C0.191406 3.10919 0.226258 2.9344 0.293964 2.77138C0.361669 2.60835 0.460895 2.4603 0.585949 2.33571L1.53395 1.38771C1.65854 1.26266 1.80659 1.16343 1.96961 1.09573C2.13264 1.02802 2.30742 0.993164 2.48395 0.993164C2.66047 0.993164 2.83526 1.02802 2.99828 1.09573C3.16131 1.16343 3.30936 1.26266 3.43395 1.38771L14.8009 12.7647Z" fill="#A6B1C3"/>
</svg>
