<svg width="10" height="10" viewBox="0 0 10 10" fill="none" xmlns="http://www.w3.org/2000/svg">
<path d="M1.39689 9.68458L5.0003 6.08117L8.60372 9.68458C8.65154 9.7324 8.7164 9.75927 8.78403 9.75927C8.85166 9.75927 8.91652 9.7324 8.96434 9.68458L9.68489 8.96404C9.73271 8.91622 9.75957 8.85136 9.75957 8.78373C9.75957 8.7161 9.73271 8.65124 9.68489 8.60342L6.07864 4.99717L9.68206 1.39376C9.7294 1.34643 9.75623 1.28238 9.75676 1.21544C9.75729 1.1485 9.73147 1.08403 9.68489 1.03596L8.96434 0.315418C8.91652 0.267596 8.85166 0.24073 8.78403 0.24073C8.7164 0.24073 8.65154 0.267596 8.60372 0.315418L4.99747 3.92166L1.39123 0.315418C1.36755 0.291739 1.33944 0.272955 1.3085 0.260141C1.27756 0.247326 1.2444 0.24073 1.21092 0.24073C1.17743 0.24073 1.14427 0.247326 1.11333 0.260141C1.0824 0.272955 1.05428 0.291739 1.03061 0.315418L0.312892 1.03313C0.289213 1.05681 0.27043 1.08492 0.257615 1.11586C0.2448 1.1468 0.238204 1.17996 0.238204 1.21344C0.238204 1.24693 0.2448 1.28009 0.257615 1.31103C0.27043 1.34197 0.289213 1.37008 0.312892 1.39376L3.91914 5L0.312892 8.60624C0.289213 8.62992 0.27043 8.65803 0.257615 8.68897C0.2448 8.71991 0.238204 8.75307 0.238204 8.78656C0.238204 8.82004 0.2448 8.8532 0.257615 8.88414C0.27043 8.91508 0.289213 8.94319 0.312892 8.96687L1.03343 9.68741C1.05735 9.71133 1.08579 9.73026 1.11709 9.74308C1.14839 9.75591 1.18193 9.76238 1.21575 9.76211C1.24958 9.76185 1.28301 9.75486 1.31411 9.74155C1.34521 9.72824 1.37335 9.70887 1.39689 9.68458V9.68458Z" fill="white"/>
</svg>
