<svg width="15" height="15" viewBox="0 0 15 15" fill="none" xmlns="http://www.w3.org/2000/svg">
<path d="M13.3635 5.27428L9.48092 4.70875L7.74312 1.18875C7.67348 1.06991 7.57396 0.971348 7.45445 0.90286C7.33494 0.834373 7.19959 0.79834 7.06184 0.79834C6.9241 0.79834 6.78875 0.834373 6.66924 0.90286C6.54973 0.971348 6.45021 1.06991 6.38057 1.18875L4.64277 4.70875L0.760196 5.27428C0.620023 5.29463 0.488326 5.35374 0.379963 5.44496C0.2716 5.53617 0.190882 5.65586 0.146916 5.7905C0.10295 5.92515 0.0974849 6.0694 0.131138 6.20699C0.16479 6.34458 0.236222 6.47002 0.337373 6.56917L3.14703 9.30695L2.4832 13.179C2.45934 13.3188 2.47508 13.4625 2.52864 13.5938C2.58219 13.7251 2.67143 13.8388 2.78625 13.9221C2.90107 14.0053 3.03689 14.0548 3.17836 14.0649C3.31983 14.075 3.4613 14.0453 3.58677 13.9791L7.06026 12.1536L10.538 13.9781C10.6635 14.0446 10.8053 14.0744 10.947 14.0641C11.0886 14.0538 11.2246 14.0039 11.3392 13.9199C11.4536 13.837 11.5424 13.7238 11.5959 13.5931C11.6493 13.4623 11.6651 13.3193 11.6415 13.18L10.9788 9.31118L13.7895 6.5734C13.8913 6.47433 13.9632 6.34873 13.9972 6.21083C14.0313 6.07294 14.026 5.92827 13.9819 5.79323C13.9379 5.6582 13.8569 5.5382 13.7482 5.44685C13.6394 5.3555 13.5073 5.29645 13.3667 5.27639L13.3635 5.27428Z" fill="#FFED00"/>
</svg>
