<svg width="37" height="51" viewBox="0 0 37 51" fill="none" xmlns="http://www.w3.org/2000/svg">
<path d="M33.0169 3.35464C30.8908 2.21408 28.4882 1.69037 26.0803 1.8426C23.0936 2.14985 20.1674 2.88911 17.3932 4.03725C14.8671 5.09239 12.2025 5.77936 9.48115 6.07713C7.821 6.182 6.16012 5.88392 4.64005 5.20831L4.59399 4.32951C4.57514 3.96984 4.41418 3.63239 4.14653 3.39139C3.87888 3.1504 3.52645 3.0256 3.16678 3.04445C2.80711 3.0633 2.46966 3.22425 2.22866 3.49191C1.98766 3.75956 1.86286 4.11199 1.88171 4.47166L4.1657 48.0528C4.18455 48.4125 4.34551 48.75 4.61317 48.991C4.88082 49.232 5.23325 49.3568 5.59292 49.3379C5.95259 49.3191 6.29004 49.1581 6.53104 48.8905C6.77203 48.6228 6.89683 48.2704 6.87799 47.9107L5.76187 26.6139C7.31948 27.1174 8.95755 27.325 10.5915 27.226C13.5782 26.9188 16.5044 26.1795 19.2786 25.0314C21.805 23.976 24.4699 23.289 27.1916 22.9914C29.1075 22.8687 31.0195 23.2839 32.712 24.1901C32.9243 24.3029 33.1627 24.3573 33.4029 24.3478C33.6431 24.3383 33.8765 24.2651 34.0792 24.1359C34.2819 24.0066 34.4467 23.8259 34.5566 23.6121C34.6666 23.3983 34.7179 23.1592 34.7052 22.9191L33.739 4.48339C33.7265 4.24887 33.6534 4.02159 33.5269 3.82376C33.4003 3.62592 33.2246 3.46428 33.0169 3.35464ZM18.3605 22.4749C15.8341 23.5303 13.1692 24.2173 10.4474 24.5148C8.78676 24.6191 7.1255 24.3204 5.60522 23.6441L4.79464 8.17728C6.35159 8.68068 7.98898 8.88831 9.62229 8.78946C12.6086 8.48214 15.5345 7.74289 18.3083 6.59486C20.8348 5.53951 23.4997 4.85252 26.2214 4.55493C27.8819 4.45001 29.5431 4.74806 31.0635 5.4237L31.8742 20.8915C30.3169 20.3881 28.6791 20.1805 27.0455 20.2793C24.0595 20.587 21.134 21.3266 18.3605 22.4749Z" fill="#29ABE2" stroke="#29ABE2" stroke-width="2"/>
</svg>
