<svg width="32" height="28" viewBox="0 0 32 28" fill="none" xmlns="http://www.w3.org/2000/svg">
<path d="M12.6679 0.30839L0.293729 13.2564C-0.0979123 13.6676 -0.0979123 14.3324 0.293729 14.7436L12.6679 27.6916C13.0596 28.1028 13.6929 28.1028 14.0845 27.6916L14.6761 27.0705C15.0678 26.6593 15.0678 25.9944 14.6761 25.5832L5.01009 15.4873L31.0001 15.4873C31.55 15.4873 32 15.0148 32 14.4374V13.5626C32 12.9852 31.55 12.5127 31.0001 12.5127L5.01009 12.5127L14.6678 2.41681C15.0594 2.00563 15.0594 1.34073 14.6678 0.929544L14.0762 0.30839C13.6929 -0.102796 13.0596 -0.102796 12.6679 0.30839Z" fill="#302382"/>
</svg>
