<svg width="255" height="255" viewBox="0 0 255 255" fill="none" xmlns="http://www.w3.org/2000/svg">
<path d="M215.734 215.526V157.972" stroke="#263238" stroke-linecap="round" stroke-linejoin="round"/>
<path d="M211.068 215.526V186.986" stroke="#263238" stroke-linecap="round" stroke-linejoin="round"/>
<path d="M217.194 167.407C217.194 167.407 212.492 166.872 210.564 163.149C208.636 159.426 208.452 149.823 215.776 139.179C223.1 128.535 226.94 128.423 228.215 137.108C229.49 145.794 229.306 158.406 226.308 163.185C223.309 167.963 217.194 167.407 217.194 167.407Z" fill="white" stroke="#263238" stroke-linecap="round" stroke-linejoin="round"/>
<path d="M218.861 147.359C219.728 144.401 220.764 141.749 221.967 139.934" stroke="#263238" stroke-linecap="round" stroke-linejoin="round"/>
<path d="M215.221 166.77C215.866 160.917 216.888 155.111 218.281 149.389" stroke="#263238" stroke-linecap="round" stroke-linejoin="round"/>
<path d="M219.994 186.089C219.994 186.089 216.974 183.748 217.219 180.382C217.464 177.016 221.34 170.309 230.831 166.056C240.322 161.803 243.03 163.312 240.276 169.83C237.522 176.348 232.116 184.972 228.036 187.012C223.956 189.052 219.994 186.089 219.994 186.089Z" fill="white" stroke="#263238" stroke-linecap="round" stroke-linejoin="round"/>
<path d="M229.535 172.961C231.371 171.288 233.197 169.901 234.783 169.146" stroke="#263238" stroke-linecap="round" stroke-linejoin="round"/>
<path d="M228.317 174.114C224.958 177.477 221.821 181.055 218.923 184.824C218.923 184.824 216.491 188.098 215.771 194.6" stroke="#263238" stroke-linecap="round" stroke-linejoin="round"/>
<path d="M218.281 205.53C218.281 205.53 216.532 204.174 216.674 202.225C216.817 200.277 219.061 196.391 224.564 193.923C230.067 191.454 231.628 192.336 230.031 196.116C228.435 199.895 225.303 204.888 222.947 206.066C220.591 207.244 218.281 205.53 218.281 205.53Z" fill="white" stroke="#263238" stroke-linecap="round" stroke-linejoin="round"/>
<path d="M223.793 197.946C224.702 197.068 225.733 196.324 226.853 195.738" stroke="#263238" stroke-linecap="round" stroke-linejoin="round"/>
<path d="M223.089 198.614C221.144 200.56 219.326 202.63 217.647 204.811C217.647 204.811 216.235 206.708 215.816 210.477" stroke="#263238" stroke-linecap="round" stroke-linejoin="round"/>
<path d="M211.471 178.306C211.471 178.306 214.485 175.965 214.246 172.599C214.006 169.233 210.125 162.527 200.629 158.273C191.133 154.02 188.435 155.529 191.189 162.047C193.943 168.565 199.349 177.189 203.429 179.229C207.509 181.269 211.471 178.306 211.471 178.306Z" fill="white" stroke="#263238" stroke-linecap="round" stroke-linejoin="round"/>
<path d="M201.929 165.179C200.366 163.667 198.597 162.382 196.676 161.364" stroke="#263238" stroke-linecap="round" stroke-linejoin="round"/>
<path d="M203.148 166.332C206.505 169.696 209.641 173.273 212.538 177.042C212.538 177.042 214.97 180.316 215.694 186.818" stroke="#263238" stroke-linecap="round" stroke-linejoin="round"/>
<path d="M209.988 204.301C209.988 204.301 213.048 204.398 214.578 202.556C216.108 200.715 217.026 195.575 213.201 189.296C209.376 183.018 206.933 182.58 205.403 187.17C203.873 191.76 202.981 198.487 204.511 201.297C206.041 204.107 209.988 204.301 209.988 204.301Z" fill="white" stroke="#263238" stroke-linecap="round" stroke-linejoin="round"/>
<path d="M210.467 199.619C210.513 200.246 210.543 200.874 210.559 201.496" stroke="#263238" stroke-linecap="round" stroke-linejoin="round"/>
<path d="M208.121 186.869C209.161 190.566 209.901 194.34 210.335 198.155" stroke="#263238" stroke-linecap="round" stroke-linejoin="round"/>
<path d="M12.6934 167.127H83.2825V23.0518" stroke="#263238" stroke-linecap="round" stroke-linejoin="round"/>
<path d="M158.191 167.127H87.6016V23.0518" stroke="#263238" stroke-linecap="round" stroke-linejoin="round"/>
<path d="M116.412 167.127H187.001V23.0518" stroke="#263238" stroke-linecap="round" stroke-linejoin="round"/>
<path d="M172.6 56.8799L147.926 84.1445" stroke="#263238" stroke-linecap="round" stroke-linejoin="round"/>
<path d="M158.911 77.9736L152.066 85.5369" stroke="#263238" stroke-linecap="round" stroke-linejoin="round"/>
<path d="M104.529 49.7197L91.2031 64.4434" stroke="#263238" stroke-linecap="round" stroke-linejoin="round"/>
<path d="M108.129 46.1342L117.136 36.1841" stroke="#263238" stroke-linecap="round" stroke-linejoin="round"/>
<path d="M80.4004 137.276L71.7559 146.829" stroke="#263238" stroke-linecap="round" stroke-linejoin="round"/>
<path d="M77.5195 124.542L61.4902 142.254" stroke="#263238" stroke-linecap="round" stroke-linejoin="round"/>
<path d="M240.109 68.7908C245.348 55.6877 238.972 40.819 225.869 35.5808C212.765 30.3425 197.897 36.7183 192.659 49.8215C187.42 62.9247 193.796 77.7933 206.899 83.0316C220.002 88.2698 234.871 81.894 240.109 68.7908Z" stroke="#263238" stroke-linecap="round" stroke-linejoin="round"/>
<path d="M216.392 81.6148C228.709 81.6148 238.694 71.6298 238.694 59.3126C238.694 46.9953 228.709 37.0103 216.392 37.0103C204.075 37.0103 194.09 46.9953 194.09 59.3126C194.09 71.6298 204.075 81.6148 216.392 81.6148Z" stroke="#263238" stroke-linecap="round" stroke-linejoin="round"/>
<path d="M216.392 60.8379C217.234 60.8379 217.917 60.1552 217.917 59.313C217.917 58.4708 217.234 57.7881 216.392 57.7881C215.55 57.7881 214.867 58.4708 214.867 59.313C214.867 60.1552 215.55 60.8379 216.392 60.8379Z" stroke="#263238" stroke-linecap="round" stroke-linejoin="round"/>
<path d="M216.393 60.8379V68.3298" stroke="#263238" stroke-linecap="round" stroke-linejoin="round"/>
<path d="M214.868 59.313H196.682" stroke="#263238" stroke-linecap="round" stroke-linejoin="round"/>
<path d="M168.647 163.287H195.967C195.967 163.287 181.178 199.655 183.967 215.898H156.279C156.279 215.898 161.446 174.364 168.647 163.287Z" fill="#263238" stroke="#263238" stroke-linecap="round" stroke-linejoin="round"/>
<path d="M145.009 111.083C145.009 111.083 145.28 116.004 154.444 118.876C163.609 121.747 172.911 118.876 178.108 122.956C183.305 127.036 183.168 133.35 181.388 136.496C179.608 139.643 176.736 142.785 185.218 146.477C193.699 150.169 188.635 160.976 185.08 164.944C181.525 168.912 175.39 170.824 168.531 169.458C161.671 168.091 153.623 151.541 144.872 142.785C136.12 134.028 135.049 117.876 140.634 113.245C146.218 108.615 145.009 111.083 145.009 111.083Z" fill="#263238" stroke="#263238" stroke-linecap="round" stroke-linejoin="round"/>
<path d="M143.602 93.381C143.602 93.381 147.376 91.7337 148.345 94.911C149.314 98.0883 149.6 106.819 149.6 106.819L147.56 106.335C147.56 106.335 148.044 96.4614 145.815 94.911C143.587 93.3606 141.848 96.849 141.848 96.849L143.602 93.381Z" fill="#A6A6A6" stroke="#263238" stroke-linecap="round" stroke-linejoin="round"/>
<path d="M101.236 199.604L114.129 192.708C114.129 192.708 113.237 179.178 113.364 178.668C113.492 178.158 116.72 151.684 116.72 151.684L107.877 177.903L101.236 199.604Z" fill="#263238" stroke="#263238" stroke-linecap="round" stroke-linejoin="round"/>
<path d="M158.233 138.088C158.233 138.088 170.983 145.034 172.697 145.738C174.41 146.441 173.4 155.3 173.4 161.089C173.4 166.877 164.73 215.761 164.73 215.761H100.521C100.521 215.761 111.369 199.13 111.66 194.789C111.951 190.449 110.069 186.976 109.778 182.784C109.487 178.592 115.709 152.985 116.719 151.674C117.729 150.363 122.074 147.048 122.074 147.048L137.405 133.62L144.494 132.029L158.233 138.088Z" fill="#373AAD" stroke="#263238" stroke-linecap="round" stroke-linejoin="round"/>
<path d="M115.679 199.491L113.537 203.898" stroke="#263238" stroke-linecap="round" stroke-linejoin="round"/>
<path d="M117.734 186.833C117.734 186.833 114.552 189.001 116.143 190.158C117.734 191.316 118.458 193.774 118.458 193.774L116.418 197.747" stroke="#263238" stroke-linecap="round" stroke-linejoin="round"/>
<path d="M132.723 197.37C133.585 197.436 134.492 197.487 135.441 197.512" stroke="#263238" stroke-linecap="round" stroke-linejoin="round"/>
<path d="M119.029 193.8C119.029 193.8 122.492 196.115 130.035 197.105" stroke="#263238" stroke-linecap="round" stroke-linejoin="round"/>
<path d="M110.401 101.316C109.791 101.614 109.283 102.085 108.939 102.67C108.595 103.255 108.431 103.928 108.468 104.606C108.468 107.125 110.508 112.057 110.508 112.057L111.671 111.674C111.671 111.674 109.544 106.544 109.835 104.703C109.929 104.166 110.169 103.665 110.529 103.256C110.889 102.847 111.354 102.544 111.875 102.382L111.487 101.123L110.401 101.316Z" fill="#A6A6A6" stroke="#263238" stroke-linecap="round" stroke-linejoin="round"/>
<path d="M115.384 114.275C115.894 116.825 115.022 119.126 113.471 119.426C111.921 119.727 110.268 117.896 109.779 115.346C109.289 112.796 110.141 110.491 111.691 110.195C113.242 109.9 114.894 111.731 115.384 114.275Z" fill="white" stroke="#263238" stroke-linecap="round" stroke-linejoin="round"/>
<path d="M120.091 113.454C121.055 116.708 119.928 119.916 117.572 120.594C115.216 121.273 112.523 119.223 111.554 115.969C110.585 112.715 111.717 109.507 114.073 108.829C116.429 108.15 119.127 110.201 120.091 113.454Z" fill="#263238" stroke="#263238" stroke-linecap="round" stroke-linejoin="round"/>
<path d="M128.826 131.192L131.116 138.638L123.589 148.124L122.334 155.453C122.334 155.453 121.084 176.363 121.798 179.586C122.512 182.809 122.512 183.697 122.512 183.697C122.512 183.697 138.067 165.643 145.753 154.56C153.439 143.478 155.224 136.68 155.224 136.68L147.717 132.6L144.147 115.974L128.826 131.192Z" fill="white" stroke="#263238" stroke-linecap="round" stroke-linejoin="round"/>
<path d="M140.701 123.986L131.118 138.638L128.445 130.014L140.701 123.986Z" fill="#263238" stroke="#263238" stroke-linecap="round" stroke-linejoin="round"/>
<path d="M122.401 155.04L122.33 155.453C122.33 155.453 121.081 176.363 121.795 179.586C122.509 182.81 122.509 183.697 122.509 183.697C122.509 183.697 138.064 165.643 145.749 154.561C146.351 153.694 146.912 152.852 147.448 152.036C137.824 155.331 128.011 155.387 122.401 155.04Z" fill="#29ABE2" stroke="#263238" stroke-linecap="round" stroke-linejoin="round"/>
<path d="M118.633 85.5421C118.633 85.5421 111.467 89.8975 110.692 96.4765C109.917 103.056 112.63 110.124 113.696 112.929C114.762 115.734 118.439 126.674 120.372 128.805C122.305 130.937 128.598 134.125 129.664 134.706C130.73 135.288 132.663 135.094 134.31 133.931C135.957 132.768 142.73 124.547 143.796 122.609C144.862 120.671 145.051 116.412 145.051 116.412C145.051 116.412 144.857 107.895 144.474 102.382C144.092 96.8692 144.377 91.5397 139.828 86.8936C135.279 82.2475 123.085 82.1506 118.633 85.5421Z" fill="white" stroke="#263238" stroke-linecap="round" stroke-linejoin="round"/>
<path d="M144.473 102.382C144.086 96.8641 144.376 91.5397 139.827 86.8936C135.278 82.2475 123.084 82.1506 118.632 85.5421C118.632 85.5421 111.466 89.8975 110.691 96.4765C110.242 100.302 110.971 104.28 111.864 107.503C113.511 106.483 119.07 103.076 125.308 98.7052C132.759 93.4777 135.181 85.3483 135.181 85.3483C135.181 85.3483 136.048 84.8638 135.859 85.9297C135.671 86.9956 132.759 93.2839 131.698 94.2529L130.632 95.2168C130.632 95.2168 131.504 95.023 135.472 99.766C139.44 104.509 141.663 106.447 142.826 107.028C143.444 107.252 144.092 107.377 144.749 107.401C144.672 105.662 144.58 103.907 144.473 102.382Z" fill="#263238" stroke="#263238" stroke-linecap="round" stroke-linejoin="round"/>
<path d="M132.555 112.644C132.677 113.353 132.417 113.995 131.969 114.072C131.52 114.148 131.061 113.638 130.949 112.929C130.836 112.22 131.086 111.578 131.535 111.496C131.984 111.415 132.428 111.935 132.555 112.644Z" fill="#263238" stroke="#263238" stroke-linecap="round" stroke-linejoin="round"/>
<path d="M121.713 114.189C121.84 114.903 121.58 115.54 121.131 115.622C120.682 115.704 120.218 115.189 120.111 114.475C120.004 113.761 120.244 113.128 120.693 113.047C121.141 112.965 121.59 113.48 121.713 114.189Z" fill="#263238" stroke="#263238" stroke-linecap="round" stroke-linejoin="round"/>
<path d="M128.113 108.283C128.113 108.283 131.311 105.769 134.233 107.798" stroke="#263238" stroke-linecap="round" stroke-linejoin="round"/>
<path d="M121.631 109.65C121.631 109.65 117.857 107.809 115.24 111.104" stroke="#263238" stroke-linecap="round" stroke-linejoin="round"/>
<path d="M122.309 109.736C122.309 109.736 124.92 110.996 125.114 113.413" stroke="#263238" stroke-linecap="round" stroke-linejoin="round"/>
<path d="M125.211 120.095C125.211 120.095 126.277 120.865 128.113 120.289" stroke="#263238" stroke-linecap="round" stroke-linejoin="round"/>
<path d="M124.441 124.159C126.611 124.066 128.744 123.573 130.735 122.706C134.121 121.252 135.478 119.223 135.478 119.223" stroke="#263238" stroke-linecap="round" stroke-linejoin="round"/>
<path d="M126.084 124.062C126.858 124.747 127.856 125.124 128.889 125.123C130.633 125.123 132.178 122.027 132.178 122.027C132.178 122.027 127.726 123.965 126.084 124.062Z" stroke="#263238" stroke-linecap="round" stroke-linejoin="round"/>
<path d="M146.212 116.897C148.671 116.897 150.664 114.146 150.664 110.751C150.664 107.357 148.671 104.606 146.212 104.606C143.753 104.606 141.76 107.357 141.76 110.751C141.76 114.146 143.753 116.897 146.212 116.897Z" fill="#263238" stroke="#263238" stroke-linecap="round" stroke-linejoin="round"/>
<path d="M148.1 114.383C149.677 114.383 150.956 112.282 150.956 109.691C150.956 107.099 149.677 104.999 148.1 104.999C146.523 104.999 145.244 107.099 145.244 109.691C145.244 112.282 146.523 114.383 148.1 114.383Z" fill="white" stroke="#263238" stroke-linecap="round" stroke-linejoin="round"/>
<path d="M113.471 117.3C113.471 117.3 113.501 127.357 116.112 128.229C118.724 129.101 125.889 127.357 125.889 127.357" stroke="#263238" stroke-width="2" stroke-linecap="round" stroke-linejoin="round"/>
<path d="M129.567 127.316C129.567 128.091 128.613 128.719 127.435 128.719C126.257 128.719 125.309 128.091 125.309 127.316C125.309 126.541 126.262 125.914 127.435 125.914C128.608 125.914 129.567 126.541 129.567 127.316Z" fill="#263238" stroke="#263238" stroke-linecap="round" stroke-linejoin="round"/>
<path d="M130.173 139.103C130.173 139.103 127.113 144.452 124.966 160.364C122.819 176.276 124.242 179.454 124.242 179.454L121.182 181.336C121.182 181.336 114.822 180.611 116.989 165.572C119.157 150.532 120.361 148.068 120.361 148.068L130.173 139.103Z" fill="#373AAD" stroke="#263238" stroke-linecap="round" stroke-linejoin="round"/>
<path d="M149.553 133.62C149.553 133.62 142.612 150.108 135.38 160.379C128.148 170.651 118.32 185.385 118.32 185.385C118.32 185.385 123.527 182.926 134.523 174.675C145.519 166.423 156.652 147.481 157.81 145.605C158.967 143.728 160.701 139.388 160.701 139.388L149.553 133.62Z" fill="#373AAD" stroke="#263238" stroke-linecap="round" stroke-linejoin="round"/>
<path d="M89.4701 206.876C87.7735 207.909 85.9943 208.799 84.1508 209.539C80.897 210.87 80.5808 210.635 81.6365 211.757C82.6922 212.879 88.1441 210.87 89.6231 210.278C91.1021 209.686 93.9122 208.799 93.9122 208.799C93.9122 208.799 97.3139 210.722 99.3845 211.313C101.455 211.905 103.975 211.018 103.975 211.018C103.975 211.018 104.122 208.651 102.348 207.32C100.573 205.989 96.7376 202.883 95.3963 203.031C94.055 203.179 89.4701 206.876 89.4701 206.876Z" fill="white" stroke="#263238" stroke-linecap="round" stroke-linejoin="round"/>
<path d="M88.5831 203.327C88.5831 203.327 86.8083 202.883 85.6251 203.77C84.4419 204.658 83.1108 207.468 82.9629 208.207C82.815 208.947 83.1108 209.391 84.294 208.355C85.4772 207.32 87.5478 205.841 87.5478 205.841L89.3226 205.249L88.5831 203.327Z" fill="white" stroke="#263238" stroke-linecap="round" stroke-linejoin="round"/>
<path d="M93.1676 201.995C93.1676 201.995 89.5976 200.812 88.8785 201.848C88.1594 202.883 85.6247 208.799 86.3642 209.243C87.1037 209.686 88.139 208.799 89.4701 206.876C90.8012 204.953 91.5407 203.918 91.5407 203.918L93.3155 203.622L93.1676 201.995Z" fill="white" stroke="#263238" stroke-linecap="round" stroke-linejoin="round"/>
<path d="M99.5072 203.322C99.5072 203.322 94.8816 199.706 93.7239 200.573C92.5662 201.44 88.8074 207.08 88.3739 208.223C87.9404 209.365 89.9651 208.804 91.5512 207.356C93.1373 205.907 95.0244 204.296 95.0244 204.296L98.6402 206.178L99.5072 203.322Z" fill="white" stroke="#263238" stroke-linecap="round" stroke-linejoin="round"/>
<path d="M116.143 206.07C116.143 206.07 110.069 205.78 107.61 204.913C105.152 204.046 100.231 202.164 98.7874 202.307C97.3441 202.449 91.8412 207.804 90.6835 208.962C89.5258 210.12 89.6635 210.431 90.8008 210.574C91.9381 210.716 94.7329 208.819 96.0385 207.804C96.8463 207.183 97.7182 206.649 98.6395 206.213C99.6777 207.707 100.839 209.111 102.113 210.41C103.556 211.711 107.029 212.721 108.33 212.578C109.157 212.484 109.978 212.339 110.788 212.144L115.709 212.002L116.143 206.07Z" fill="white" stroke="#263238" stroke-linecap="round" stroke-linejoin="round"/>
<path d="M158.377 164.266C158.377 164.266 153.027 170.483 153.318 172.655C153.608 174.828 153.751 176.99 153.751 176.99L149.845 200.568C149.845 200.568 146.519 198.976 146.519 200.277V201.583L115.261 204.765L114.971 215.755L164.726 215.898C164.726 215.898 167.185 213.154 167.475 212.14C167.766 211.125 173.259 193.627 174.707 175.256C176.155 156.886 175.431 148.645 174.707 147.206C173.983 145.768 165.451 143.014 165.451 143.014" fill="#373AAD"/>
<path d="M158.377 164.266C158.377 164.266 153.027 170.483 153.318 172.655C153.608 174.828 153.751 176.99 153.751 176.99L149.845 200.568C149.845 200.568 146.519 198.976 146.519 200.277V201.583L115.261 204.765L114.971 215.755L164.726 215.898C164.726 215.898 167.185 213.154 167.475 212.14C167.766 211.125 173.259 193.627 174.707 175.256C176.155 156.886 175.431 148.645 174.707 147.206C173.983 145.768 165.451 143.014 165.451 143.014" stroke="#263238" stroke-linecap="round" stroke-linejoin="round"/>
<path d="M151.002 200.43C151.002 200.43 155.628 203.464 158.377 204.188Z" fill="white"/>
<path d="M151.002 200.43C151.002 200.43 155.628 203.464 158.377 204.188" stroke="#263238" stroke-linecap="round" stroke-linejoin="round"/>
<path d="M107.61 171.089L111.18 159.63C112.628 158.211 113.895 156.62 114.954 154.892C116.484 152.306 116.484 147.456 116.244 146.594C116.005 145.732 119.371 141.856 120.324 140.474C121.278 139.092 121.829 136.593 120.539 134.762C119.248 132.931 118.601 135.95 117.739 137.348C116.877 138.745 113.858 140.148 113.858 140.148L110.67 142.738C110.67 142.738 105.392 147.369 105.06 148.017C104.729 148.665 104.091 150.71 104.091 150.71L104.525 156.957L101.725 167.836L107.61 171.089Z" fill="white" stroke="#263238" stroke-linecap="round" stroke-linejoin="round"/>
<path d="M108.492 138.97C108.492 138.97 111.078 134.89 111.833 133.584C112.587 132.278 113.771 127.122 114.525 127.464C115.28 127.806 116.055 129.504 115.821 131.773C115.586 134.043 112.909 139.204 112.909 139.204L108.492 138.97Z" stroke="#263238" stroke-linecap="round" stroke-linejoin="round"/>
<path d="M102.246 164.608L104.51 156.958L103.531 144.677L106.545 138.863L114.838 137.787C114.838 137.787 119.902 140.479 120.336 140.479C120.769 140.479 120.336 141.663 119.367 141.877C118.398 142.091 116.562 141.556 116.562 141.556L119.688 143.596C119.688 143.596 119.474 144.565 118.719 144.779C117.974 144.929 117.215 145.003 116.455 144.998C116.455 144.998 119.147 146.722 118.495 147.038C117.855 147.331 117.158 147.478 116.455 147.466H114.415L112.798 147.252L110.319 148.221C110.319 148.221 112.043 152.638 111.936 154.795C111.829 156.952 109.136 158.365 109.136 158.365" fill="white"/>
<path d="M102.246 164.608L104.51 156.958L103.531 144.677L106.545 138.863L114.838 137.787C114.838 137.787 119.902 140.479 120.336 140.479C120.769 140.479 120.336 141.663 119.367 141.877C118.398 142.091 116.562 141.556 116.562 141.556L119.688 143.596C119.688 143.596 119.474 144.565 118.719 144.779C117.974 144.929 117.215 145.003 116.455 144.998C116.455 144.998 119.147 146.722 118.495 147.038C117.855 147.331 117.158 147.478 116.455 147.466H114.415L112.798 147.252L110.319 148.221C110.319 148.221 112.043 152.638 111.936 154.795C111.829 156.952 109.136 158.365 109.136 158.365" stroke="#263238" stroke-linecap="round" stroke-linejoin="round"/>
<path d="M116.571 141.555C116.571 141.555 114.847 140.153 113.878 140.153C112.909 140.153 106.988 141.229 106.988 141.229" stroke="#263238" stroke-linecap="round" stroke-linejoin="round"/>
<path d="M116.464 145.003C116.464 145.003 113.664 143.473 112.802 143.473C111.94 143.473 105.152 145.197 105.152 145.197" stroke="#263238" stroke-linecap="round" stroke-linejoin="round"/>
<path d="M102.384 162.205L111.13 168.096C111.13 168.096 107.234 189.006 106.852 190.796C106.469 192.586 103.664 197.303 102.262 198.711C100.859 200.118 99.2015 199.858 95.3714 198.838C91.5413 197.818 88.2314 194.758 88.3487 190.796C88.466 186.833 102.384 162.205 102.384 162.205Z" fill="#373AAD" stroke="#263238" stroke-linecap="round" stroke-linejoin="round"/>
<path d="M57.1765 212.884H54.6367V213.664H57.1765V212.884Z" fill="white" stroke="#263238" stroke-linecap="round" stroke-linejoin="round"/>
<path d="M60.6941 212.884H58.1543V213.664H60.6941V212.884Z" fill="white" stroke="#263238" stroke-linecap="round" stroke-linejoin="round"/>
<path d="M64.2136 212.884H61.6738V213.664H64.2136V212.884Z" fill="white" stroke="#263238" stroke-linecap="round" stroke-linejoin="round"/>
<path d="M67.7371 212.884H65.1973V213.664H67.7371V212.884Z" fill="white" stroke="#263238" stroke-linecap="round" stroke-linejoin="round"/>
<path d="M71.2566 212.884H68.7168V213.664H71.2566V212.884Z" fill="white" stroke="#263238" stroke-linecap="round" stroke-linejoin="round"/>
<path d="M74.7761 212.884H72.2363V213.664H74.7761V212.884Z" fill="white" stroke="#263238" stroke-linecap="round" stroke-linejoin="round"/>
<path d="M78.2957 212.884H75.7559V213.664H78.2957V212.884Z" fill="white" stroke="#263238" stroke-linecap="round" stroke-linejoin="round"/>
<path d="M81.8132 212.884H79.2734V213.664H81.8132V212.884Z" fill="white" stroke="#263238" stroke-linecap="round" stroke-linejoin="round"/>
<path d="M85.3328 212.884H82.793V213.664H85.3328V212.884Z" fill="white" stroke="#263238" stroke-linecap="round" stroke-linejoin="round"/>
<path d="M88.8523 212.884H86.3125V213.664H88.8523V212.884Z" fill="white" stroke="#263238" stroke-linecap="round" stroke-linejoin="round"/>
<path d="M92.3757 212.884H89.8359V213.664H92.3757V212.884Z" fill="white" stroke="#263238" stroke-linecap="round" stroke-linejoin="round"/>
<path d="M95.8953 212.884H93.3555V213.664H95.8953V212.884Z" fill="white" stroke="#263238" stroke-linecap="round" stroke-linejoin="round"/>
<path d="M99.4148 212.884H96.875V213.664H99.4148V212.884Z" fill="white" stroke="#263238" stroke-linecap="round" stroke-linejoin="round"/>
<path d="M102.932 212.884H100.393V213.664H102.932V212.884Z" fill="white" stroke="#263238" stroke-linecap="round" stroke-linejoin="round"/>
<path d="M106.452 212.884H103.912V213.664H106.452V212.884Z" fill="white" stroke="#263238" stroke-linecap="round" stroke-linejoin="round"/>
<path d="M109.971 212.884H107.432V213.664H109.971V212.884Z" fill="white" stroke="#263238" stroke-linecap="round" stroke-linejoin="round"/>
<path d="M116.107 213.501H53.1777V215.714H116.107V213.501Z" fill="white" stroke="#263238" stroke-linecap="round" stroke-linejoin="round"/>
<path d="M116.102 213.501H91.9785V215.714H116.102V213.501Z" fill="white" stroke="#263238" stroke-linecap="round" stroke-linejoin="round"/>
<path d="M72.8122 194.116H23.3371L13.4023 141.504H62.8774L72.8122 194.116Z" fill="#263238" stroke="white" stroke-linecap="round" stroke-linejoin="round"/>
<path d="M71.3069 192.785H23.3108L13.8809 142.835H61.8719L71.3069 192.785Z" fill="#263238" stroke="white" stroke-linecap="round" stroke-linejoin="round"/>
<path d="M62.0663 188.807H26.3816L19.3691 151.674H55.0538L62.0663 188.807Z" fill="#263238" stroke="white" stroke-linecap="round" stroke-linejoin="round"/>
<path d="M19.3685 151.674L13.8809 142.835" stroke="#263238" stroke-linecap="round" stroke-linejoin="round"/>
<path d="M55.0547 151.674L61.8734 142.835" stroke="white" stroke-linecap="round" stroke-linejoin="round"/>
<path d="M62.0664 188.807L71.3076 192.785" stroke="white" stroke-linecap="round" stroke-linejoin="round"/>
<path d="M26.3827 188.807L23.3125 192.785" stroke="#263238" stroke-linecap="round" stroke-linejoin="round"/>
<path d="M40.8919 177.684H32.7676L37.939 173.073H46.0633L40.8919 177.684Z" fill="#263238" stroke="white" stroke-linecap="round" stroke-linejoin="round"/>
<path d="M67.8439 212.945H38.1211V215.898H67.8439V212.945Z" fill="#263238" stroke="white" stroke-linecap="round" stroke-linejoin="round"/>
<path d="M50.8624 215.898H42.7381L32.7676 204.571H40.8919L50.8624 215.898Z" fill="#263238" stroke="white" stroke-linecap="round" stroke-linejoin="round"/>
<path d="M40.8919 177.873H32.7676V204.454H40.8919V177.873Z" fill="#263238" stroke="white" stroke-linecap="round" stroke-linejoin="round"/>
<path d="M159.838 210.844C160.998 212.951 162.762 214.663 164.902 215.761Z" fill="white"/>
<path d="M159.838 210.844C160.998 212.951 162.762 214.663 164.902 215.761" stroke="#263238" stroke-linecap="round" stroke-linejoin="round"/>
<path d="M7.16992 215.898H239.837" stroke="#263238" stroke-linecap="round" stroke-linejoin="round"/>
</svg>
