<svg width="80" height="80" viewBox="0 0 80 80" fill="none" xmlns="http://www.w3.org/2000/svg">
<path d="M45.159 77.8771L45.159 45.1581H77.878C78.0929 45.1581 78.3056 45.1157 78.5041 45.0335C78.7026 44.9513 78.8829 44.8308 79.0348 44.6789C79.1868 44.527 79.3073 44.3466 79.3895 44.1481C79.4717 43.9496 79.514 43.7369 79.514 43.5221V36.9781C79.514 36.5442 79.3416 36.128 79.0348 35.8212C78.728 35.5144 78.3119 35.3421 77.878 35.3421H45.159V2.62306C45.159 2.18917 44.9866 1.77304 44.6798 1.46623C44.373 1.15942 43.9569 0.987061 43.523 0.987061L36.979 0.987061C36.7642 0.987061 36.5514 1.02938 36.3529 1.11159C36.1544 1.19381 35.9741 1.31432 35.8222 1.46623C35.6703 1.61815 35.5498 1.7985 35.4675 1.99699C35.3853 2.19548 35.343 2.40822 35.343 2.62306V35.3421L2.62401 35.3421C2.19011 35.3421 1.77399 35.5144 1.46718 35.8212C1.16037 36.128 0.988007 36.5442 0.988007 36.9781V43.5221C0.988007 43.7369 1.03032 43.9496 1.11254 44.1481C1.19476 44.3466 1.31526 44.527 1.46718 44.6789C1.61909 44.8308 1.79945 44.9513 1.99794 45.0335C2.19643 45.1157 2.40917 45.1581 2.62401 45.1581L35.343 45.1581L35.343 77.8771C35.343 78.0919 35.3853 78.3046 35.4675 78.5031C35.5498 78.7016 35.6703 78.882 35.8222 79.0339C35.9741 79.1858 36.1544 79.3063 36.3529 79.3885C36.5514 79.4707 36.7642 79.5131 36.979 79.5131H43.523C43.9569 79.5131 44.373 79.3407 44.6798 79.0339C44.9866 78.7271 45.159 78.311 45.159 77.8771V77.8771Z" fill="#373AAD"/>
</svg>
