<svg width="81" height="94" viewBox="0 0 81 94" fill="none" xmlns="http://www.w3.org/2000/svg">
<path d="M71.5357 40.7502H69.2143V30.0197C69.2143 13.8747 56.4684 0.55508 40.5899 0.500171C24.6978 0.445277 11.7857 13.5983 11.7857 29.7502V40.7502H9.46429C4.50633 40.7502 0.5 44.8462 0.5 49.8752V84.3752C0.5 89.4041 4.50633 93.5002 9.46429 93.5002H71.5357C76.4937 93.5002 80.5 89.4041 80.5 84.3752V49.8752C80.5 44.8462 76.4937 40.7502 71.5357 40.7502ZM18.4286 29.7502C18.4286 17.3315 28.3354 7.25017 40.5 7.25017C52.6646 7.25017 62.5714 17.3315 62.5714 29.7502V40.7502H18.4286V29.7502ZM9.46429 86.7502C8.19747 86.7502 7.14286 85.6892 7.14286 84.3752V49.8752C7.14286 48.5611 8.19747 47.5002 9.46429 47.5002H71.5357C72.8025 47.5002 73.8571 48.5611 73.8571 49.8752V84.3752C73.8571 85.6892 72.8025 86.7502 71.5357 86.7502H9.46429Z" fill="url(#paint0_linear_281_14884)" stroke="url(#paint1_linear_281_14884)"/>
<defs>
<linearGradient id="paint0_linear_281_14884" x1="40.5" y1="1" x2="40.5" y2="93.0002" gradientUnits="userSpaceOnUse">
<stop stop-color="#29ABE2"/>
<stop offset="1" stop-color="#373AAD"/>
</linearGradient>
<linearGradient id="paint1_linear_281_14884" x1="40.5" y1="1" x2="40.5" y2="93.0002" gradientUnits="userSpaceOnUse">
<stop stop-color="#29ABE2"/>
<stop offset="1" stop-color="#373AAD"/>
</linearGradient>
</defs>
</svg>
