<svg width="101" height="72" viewBox="0 0 101 72" fill="none" xmlns="http://www.w3.org/2000/svg">
<path d="M51.8319 11.2266L51.832 11.2266C63.1999 8.31868 71.0539 6.4348 79.7138 6.56263C79.9905 14.7077 86.4664 21.2911 94.513 21.5734L94.4524 41.9489C86.833 42.248 80.6974 48.2116 79.8667 55.7736C69.2641 55.6357 59.2869 58.1878 49.821 60.6091C49.6025 60.665 49.3844 60.7208 49.1665 60.7765C37.7517 63.6948 29.9293 65.5687 21.2459 65.4373C20.8184 57.4365 14.4301 51.0075 6.48549 50.7296L6.546 30.3543C14.2663 30.052 20.4745 23.9363 21.1718 16.2295C31.7513 16.3628 41.7386 13.8083 51.2037 11.3873C51.4133 11.3336 51.6228 11.2801 51.8319 11.2266ZM50.5 18C41.9485 18 35.15 26.1383 35.15 36C35.15 45.8601 41.9485 54 50.5 54C59.0483 54 65.85 45.8633 65.85 36C65.85 26.1383 59.0515 18 50.5 18ZM50.5 48C45.4196 48 41.1 42.731 41.1 36C41.1 29.269 45.4196 24 50.5 24C55.5804 24 59.9 29.269 59.9 36C59.9 42.731 55.5804 48 50.5 48ZM97.2807 4.049C91.209 1.47657 85.136 0.5 79.0785 0.5C69.4884 0.499214 59.9106 2.94781 50.4065 5.37754L50.3762 5.38531C40.8381 7.82374 31.374 10.2406 21.9215 10.2406C16.9444 10.2406 13.5678 9.64703 11.1586 9.05656C10.2983 8.84569 9.56646 8.63676 8.91698 8.45134C8.65018 8.37517 8.39728 8.30297 8.15506 8.23623C7.34233 8.01228 6.63088 7.84375 5.98867 7.84375C3.06781 7.84375 0.5 10.1317 0.5 13.3141V62.8859C0.5 65.0372 1.71827 67.1034 3.71959 67.9496C9.79119 70.5235 15.8641 71.5 21.9215 71.5C31.5108 71.5 41.0879 69.0514 50.5912 66.6217L50.6239 66.6133C60.1619 64.1747 69.626 61.7578 79.0785 61.7578C84.0555 61.7578 87.4318 62.3518 89.8407 62.9426C90.7007 63.1536 91.4322 63.3625 92.0815 63.548C92.3486 63.6243 92.6017 63.6967 92.8442 63.7635C93.6571 63.9876 94.3687 64.1562 95.0113 64.1562C97.9322 64.1562 100.5 61.8683 100.5 58.6859V9.11406C100.5 6.96106 99.2816 4.89677 97.2807 4.049ZM15.2532 15.8402C14.764 20.4154 11.109 24.0197 6.56447 24.3209L6.59494 14.0637C9.40209 14.9165 12.2801 15.488 15.2532 15.8402ZM15.2089 64.9385C12.1226 64.4722 9.20321 63.702 6.451 62.5549L6.46856 56.7535C10.953 57.0038 14.5865 60.4765 15.2089 64.9385ZM94.4355 47.9806L94.4051 57.9364C91.6122 57.0878 88.7497 56.5171 85.7925 56.1649C86.4061 51.7317 89.9933 48.2752 94.4355 47.9806ZM94.5314 15.5481C89.942 15.2923 86.2336 11.664 85.7402 7.05477C88.8461 7.51971 91.7828 8.2924 94.549 9.44513L94.5314 15.5481Z" fill="url(#paint0_linear_281_14885)" stroke="url(#paint1_linear_281_14885)"/>
<defs>
<linearGradient id="paint0_linear_281_14885" x1="50.5" y1="1" x2="50.5" y2="71" gradientUnits="userSpaceOnUse">
<stop stop-color="#29ABE2"/>
<stop offset="1" stop-color="#373AAD"/>
</linearGradient>
<linearGradient id="paint1_linear_281_14885" x1="50.5" y1="1" x2="50.5" y2="71" gradientUnits="userSpaceOnUse">
<stop stop-color="#29ABE2"/>
<stop offset="1" stop-color="#373AAD"/>
</linearGradient>
</defs>
</svg>
