<svg width="117" height="26" viewBox="0 0 117 26" fill="none" xmlns="http://www.w3.org/2000/svg">
<path d="M5.36855 9.57342C5.10954 9.62139 4.85054 9.65017 4.60112 9.72691C3.68021 10.0147 3.18138 10.9452 3.51713 11.8565C3.67061 12.2882 3.56509 12.4609 3.16219 12.5376C3.14301 12.5376 3.12382 12.5472 3.10463 12.5568C1.85756 12.9885 1.52181 13.5737 1.86715 14.8303C1.97268 15.214 1.97268 15.3675 1.51222 15.4059C0.802346 15.4634 0.313109 15.8472 0.0924735 16.557C-0.128162 17.2573 0.0541021 17.8329 0.552931 18.3413C2.37558 20.1735 4.13107 22.0825 6.04005 23.8284C8.14089 25.747 10.6254 26.5528 13.417 25.5072C16.1413 24.4903 17.705 22.4662 18.2038 19.598C18.3573 18.7538 18.2038 17.9288 18.1271 17.1038C17.9544 15.3483 18.3381 13.8614 19.8154 12.7199C20.8706 11.9045 20.9186 10.7629 20.036 10.0723C19.4893 9.64057 18.8561 9.64057 18.2326 9.83243C16.7169 10.2929 15.6713 11.3769 14.8079 12.6335C14.6065 12.9213 14.4146 13.1995 14.1748 13.4489C13.2347 14.4274 13.1676 15.5594 13.9734 16.653C14.0309 16.7393 14.0981 16.816 14.1556 16.8928C14.3954 17.1902 14.4434 17.4875 14.1268 17.7465C13.8199 18.0056 13.5129 17.9192 13.2539 17.6602C12.2466 16.653 12.0452 15.4443 12.3809 14.1013C12.4961 13.6312 12.7359 13.2379 13.062 12.883C13.2635 12.6623 13.2923 12.5184 13.062 12.2786C10.0978 9.31442 7.14323 6.33104 4.17904 3.35725C3.66102 2.83923 3.02789 2.57063 2.28924 2.82005C1.63693 3.04068 1.24362 3.51073 1.1381 4.19183C1.04217 4.82496 1.32036 5.33338 1.75204 5.77465C2.74011 6.77231 3.72817 7.77956 4.72583 8.76762C4.95606 8.99785 5.23425 9.17052 5.49326 9.37197C5.45489 9.44872 5.41652 9.50627 5.36855 9.57342Z" fill="white"/>
<path d="M18.2144 4.46054C18.2144 3.8466 17.6868 3.46288 17.0729 3.66433C16.574 3.83701 16.0848 4.04805 15.6243 4.29746C15.2118 4.5181 15.0104 4.90181 15.2214 5.37186C15.4421 5.8611 15.8258 6.01459 16.3246 5.83232C16.7947 5.65965 17.2551 5.43901 17.7156 5.22797C18.0513 5.08408 18.2144 4.81548 18.2144 4.46054Z" fill="white"/>
<path d="M10.1555 2.14849C9.98287 1.55373 9.78142 0.872634 9.37852 0.287469C9.14829 -0.0482809 8.73579 -0.0674666 8.38086 0.114798C8.02592 0.297062 7.82447 0.642406 7.94918 1.03571C8.13144 1.61129 8.35208 2.18686 8.62068 2.72406C8.80294 3.07899 9.15788 3.2037 9.56078 3.07899C9.95409 2.9351 10.1651 2.6665 10.1555 2.14849Z" fill="white"/>
<path d="M12.9755 3.75025C13.2824 3.75025 13.551 3.5584 13.7045 3.21305C13.8964 2.77178 14.0882 2.32092 14.2417 1.86046C14.4048 1.38082 14.2993 0.968323 13.81 0.738094C13.3496 0.527051 12.9083 0.718909 12.6685 1.22733C12.467 1.6686 12.2752 2.11947 12.1217 2.57992C11.9298 3.17468 12.3136 3.73107 12.9755 3.75025Z" fill="white"/>
<path d="M62.2097 16.5972C61.6437 14.6594 61.1161 12.8464 60.5789 11.0333C60.4254 10.5249 60.2624 10.0165 60.0513 9.53684C59.6868 8.71186 58.8906 8.3761 57.9025 8.57755C57.0967 8.74063 56.454 9.48888 56.406 10.2947C56.3773 10.7935 56.5212 11.2636 56.6842 11.724C57.7011 14.7362 58.7179 17.7387 59.7444 20.7413C59.8691 21.1058 60.0321 21.4608 60.224 21.7965C60.6941 22.6215 61.4327 22.9764 62.3632 22.9477C63.3225 22.9189 64.0228 22.4872 64.4161 21.5759C65.1068 19.9547 65.4329 18.228 65.9605 16.5588C66.0948 16.1367 66.2099 15.7146 66.373 15.1391C66.9198 16.9905 67.4186 18.698 67.9175 20.4056C68.0038 20.7029 68.0901 20.9907 68.1957 21.2785C68.6082 22.3625 69.3756 22.9189 70.4404 22.9477C71.534 22.9764 72.3686 22.4488 72.7715 21.3169C73.6732 18.8036 74.5174 16.2806 75.3807 13.7577C75.6973 12.8368 76.0714 11.9255 76.2825 10.9758C76.5319 9.85341 75.9659 8.87493 74.9203 8.58715C73.8363 8.28977 72.877 8.7886 72.5221 9.91096C71.8985 11.9159 71.3229 13.9304 70.7378 15.9353C70.6898 16.108 70.6323 16.2806 70.5267 16.6164C70.2006 15.4748 69.9128 14.4676 69.6154 13.4603C69.2989 12.3859 69.0015 11.3019 68.6561 10.2467C68.2628 9.06679 67.505 8.52959 66.3538 8.52959C65.2123 8.53918 64.4449 9.08598 64.0707 10.2851C63.4952 12.1461 62.9772 14.0359 62.4304 15.9065C62.3728 16.0984 62.3056 16.2806 62.2097 16.5972Z" fill="white"/>
<path d="M107.949 12.9135C107.949 12.2228 107.949 11.6952 107.949 11.1772C107.949 9.58481 107.949 7.99239 107.949 6.40957C107.949 6.12178 107.929 5.834 107.891 5.5558C107.709 4.32792 106.893 3.59886 105.771 3.61805C104.658 3.63723 103.852 4.43344 103.718 5.64214C103.689 5.94911 103.68 6.25608 103.68 6.56306C103.68 11.1293 103.68 15.6955 103.68 20.2617C103.68 20.5015 103.689 20.7509 103.708 20.9907C103.833 22.1419 104.581 22.8805 105.685 22.9381C106.73 22.9956 107.642 22.257 107.862 21.1826C108.035 20.3096 107.92 19.4367 107.949 18.5637C107.958 18.1608 108.658 17.1728 109.013 17.0481C109.263 16.9617 109.272 17.2015 109.339 17.3167C110.069 18.4966 110.778 19.6765 111.507 20.8564C111.738 21.2401 111.987 21.6143 112.256 21.9692C113.004 22.986 114.174 23.2355 115.134 22.5927C116.016 21.998 116.285 20.7125 115.661 19.7149C114.596 17.9786 113.512 16.2614 112.39 14.5539C112.121 14.1414 112.16 13.9208 112.515 13.6042C113.129 13.0766 113.723 12.501 114.28 11.9159C114.702 11.465 115.038 10.947 114.999 10.2851C114.961 9.54644 114.596 8.99005 113.925 8.70226C113.186 8.3857 112.438 8.42407 111.795 8.96127C110.826 9.77667 110.021 10.7551 109.138 11.6569C108.783 12.0214 108.438 12.3955 107.949 12.9135Z" fill="white"/>
<path d="M42.2374 19.0723C43.5516 17.595 44.7699 16.2328 45.9786 14.8707C46.7076 14.0553 47.4463 13.2303 48.1849 12.4149C48.5495 12.012 48.8085 11.5707 48.914 11.0239C49.0867 10.151 48.6742 9.38354 47.8492 9.05738C47.4271 8.8943 46.9858 8.80797 46.535 8.80797C43.8873 8.80797 41.2397 8.78878 38.6017 8.80797C37.2874 8.81756 36.5008 9.73847 36.7311 10.9472C36.8366 11.494 37.134 11.8681 37.6903 12.012C38.2084 12.1463 38.7264 12.1942 39.2636 12.1942C40.4915 12.1942 41.7289 12.1942 43.1391 12.1942C42.1894 13.2591 41.3548 14.1992 40.5298 15.1297C39.3211 16.4823 38.122 17.8349 36.9133 19.1874C36.3186 19.8494 36.0979 20.5976 36.4625 21.4418C36.8366 22.2955 37.5848 22.6121 38.4482 22.6121C41.5659 22.6313 44.6739 22.6313 47.7916 22.6121C48.9524 22.6025 49.7198 21.8255 49.691 20.8086C49.6622 19.7918 48.8756 19.0723 47.7245 19.0627C45.9402 19.0627 44.1655 19.0723 42.2374 19.0723Z" fill="white"/>
<path d="M34.8024 13.278C34.8024 10.899 34.812 8.51038 34.7928 6.13135C34.7832 4.42382 33.6416 3.41657 32.0492 3.66598C31.1475 3.80988 30.4376 4.53894 30.2841 5.527C30.2266 5.89153 30.2074 6.25606 30.2074 6.62059C30.1978 11.0621 30.2074 15.5036 30.2074 19.9451C30.2074 20.2137 30.217 20.4727 30.2458 20.7413C30.4088 22.1419 31.2818 22.986 32.5289 22.9572C33.8431 22.9189 34.7352 21.998 34.7736 20.559C34.812 19.3407 34.7832 18.1128 34.7832 16.8946C34.8024 15.6859 34.8024 14.4867 34.8024 13.278Z" fill="white"/>
<path d="M96.4181 9.73859C96.044 8.99994 95.5164 8.57786 94.7202 8.54908C93.3963 8.49152 92.5426 9.26854 92.4754 10.7171C92.4179 11.8107 92.4466 12.9138 92.4466 14.017C92.4466 16.0507 92.4466 18.094 92.4466 20.1277C92.4466 20.5785 92.4371 21.0198 92.581 21.4611C92.8687 22.3628 93.5786 22.9096 94.5283 22.9384C95.478 22.9672 96.2742 22.4108 96.5812 21.509C96.7347 21.0582 96.7347 20.5881 96.7443 20.1181C96.773 18.1611 96.61 16.2042 96.9745 14.2664C97.0224 13.9882 97.0992 13.71 97.1951 13.4414C97.5309 12.5301 98.1064 12.2136 99.0561 12.415C99.4303 12.4917 99.7948 12.626 100.169 12.722C101.023 12.9426 101.8 12.6165 102.251 11.849C102.663 11.1392 102.538 10.2086 101.934 9.5947C100.85 8.50111 97.9146 7.88717 96.6387 9.52755C96.5908 9.5947 96.5236 9.64267 96.4181 9.73859Z" fill="white"/>
<path d="M54.9757 15.7056C54.9757 13.998 55.0141 12.2809 54.9661 10.5734C54.9277 9.31671 53.9972 8.51091 52.7693 8.53969C51.81 8.55887 51.0618 9.15363 50.822 10.0841C50.726 10.4583 50.6973 10.842 50.6973 11.2353C50.6973 14.2283 50.6973 17.2212 50.6973 20.2142C50.6973 20.5404 50.7165 20.8665 50.7836 21.1831C51.0522 22.3342 51.8484 22.9865 52.942 22.929C54.0836 22.8714 54.9181 22.0848 54.9565 20.8857C55.0141 19.3413 54.9853 17.7872 54.9949 16.2428C54.9949 16.0605 54.9949 15.8782 54.9949 15.696C54.9853 15.7056 54.9757 15.7056 54.9757 15.7056Z" fill="white"/>
<path d="M54.976 4.94221C54.9568 3.72392 54.0359 2.84137 52.8176 2.87974C51.6185 2.91812 50.6784 3.8774 50.6976 5.03814C50.7167 6.26603 51.6568 7.13898 52.9327 7.1102C54.1702 7.08142 54.9952 6.19888 54.976 4.94221Z" fill="white"/>
<path d="M83.6201 8.53903C79.3608 8.55822 76.5981 11.4361 76.6173 15.8392C76.6365 20.0409 79.5431 22.9859 83.6393 22.9667C87.9369 22.9475 90.7764 20.0313 90.7476 15.6761C90.7188 11.3689 87.8601 8.51026 83.6201 8.53903ZM86.0663 17.8537C85.625 18.8418 84.8959 19.4461 83.7736 19.4845C82.6512 19.5229 81.8454 19.0336 81.3945 18.0168C80.7326 16.4819 80.7518 14.9183 81.4137 13.393C81.807 12.4817 82.5649 12.0117 83.5913 11.9829C84.6561 11.9541 85.4235 12.405 85.932 13.3355C86.3253 14.0549 86.3924 14.8415 86.45 15.6953C86.4116 16.3956 86.3732 17.1534 86.0663 17.8537Z" fill="white"/>
</svg>
