<svg width="175" height="39" viewBox="0 0 175 39" fill="none" xmlns="http://www.w3.org/2000/svg">
<path d="M8.06271 14.3773C7.67373 14.4493 7.28474 14.4925 6.91016 14.6078C5.52709 15.04 4.77792 16.4375 5.28217 17.8061C5.51268 18.4544 5.3542 18.7138 4.74911 18.829C4.7203 18.829 4.69148 18.8434 4.66267 18.8578C2.78976 19.5061 2.28552 20.385 2.80417 22.2723C2.96265 22.8486 2.96265 23.0791 2.27111 23.1367C1.205 23.2231 0.470241 23.7994 0.138881 24.8655C-0.19248 25.9172 0.0812528 26.7817 0.830415 27.5452C3.56774 30.297 6.20422 33.164 9.0712 35.786C12.2263 38.6674 15.9577 39.8776 20.1502 38.3072C24.2417 36.7801 26.5901 33.7402 27.3392 29.4325C27.5697 28.1647 27.3392 26.9257 27.224 25.6867C26.9647 23.0503 27.5409 20.8172 29.7596 19.1027C31.3444 17.8782 31.4164 16.1637 30.091 15.1264C29.2698 14.4781 28.3189 14.4781 27.3825 14.7663C25.1062 15.4578 23.5358 17.0858 22.2392 18.9731C21.9366 19.4053 21.6485 19.8231 21.2883 20.1977C19.8764 21.6672 19.7756 23.3672 20.9858 25.0096C21.0722 25.1393 21.1731 25.2545 21.2595 25.3698C21.6197 25.8164 21.6917 26.263 21.2163 26.652C20.7553 27.041 20.2942 26.9113 19.9052 26.5223C18.3925 25.0096 18.09 23.1943 18.5942 21.1774C18.7671 20.4714 19.1273 19.8807 19.6171 19.3477C19.9196 19.0163 19.9629 18.8002 19.6171 18.44C15.1653 13.9883 10.728 9.50771 6.27625 5.04155C5.49827 4.26357 4.54741 3.86018 3.43808 4.23476C2.4584 4.56612 1.86772 5.27206 1.70924 6.29496C1.56517 7.24582 1.98297 8.00939 2.63129 8.67211C4.1152 10.1704 5.59912 11.6832 7.09745 13.1671C7.44321 13.5128 7.86102 13.7722 8.25 14.0747C8.19238 14.19 8.13475 14.2764 8.06271 14.3773Z" fill="#29ABE2"/>
<path d="M27.3546 6.69921C27.3546 5.77717 26.5622 5.20089 25.6402 5.50344C24.891 5.76276 24.1563 6.07972 23.4647 6.4543C22.8452 6.78566 22.5427 7.36193 22.8597 8.06788C23.191 8.80263 23.7673 9.03314 24.5165 8.75941C25.2224 8.50009 25.9139 8.16872 26.6055 7.85177C27.1097 7.63567 27.3546 7.23227 27.3546 6.69921Z" fill="#373AAD"/>
<path d="M15.2521 3.2265C14.9928 2.33327 14.6902 1.31038 14.0851 0.43155C13.7394 -0.0726935 13.1199 -0.101507 12.5868 0.172225C12.0537 0.445957 11.7512 0.964608 11.9385 1.55529C12.2122 2.41971 12.5436 3.28413 12.947 4.09092C13.2207 4.62398 13.7538 4.81127 14.3589 4.62398C14.9495 4.40787 15.2665 4.00448 15.2521 3.2265Z" fill="#373AAD"/>
<path d="M19.4893 5.6317C19.9503 5.6317 20.3537 5.34356 20.5842 4.82491C20.8724 4.16218 21.1605 3.48506 21.391 2.79352C21.6359 2.07317 21.4774 1.45367 20.7427 1.10791C20.0512 0.790954 19.3884 1.07909 19.0283 1.84266C18.7257 2.50538 18.4376 3.18251 18.2071 3.87405C17.9189 4.76728 18.4952 5.60288 19.4893 5.6317Z" fill="#373AAD"/>
<path d="M93.4268 24.9262C92.5768 22.016 91.7844 19.2931 90.9777 16.5702C90.7471 15.8066 90.5022 15.043 90.1853 14.3227C89.6378 13.0837 88.442 12.5794 86.9581 12.882C85.7479 13.1269 84.7827 14.2506 84.7106 15.4608C84.6674 16.21 84.8835 16.9159 85.1284 17.6075C86.6556 22.1312 88.1827 26.6406 89.7243 31.15C89.9115 31.6975 90.1565 32.2305 90.4446 32.7348C91.1505 33.9738 92.2599 34.5068 93.6574 34.4636C95.0981 34.4204 96.1498 33.7721 96.7404 32.4034C97.7777 29.9686 98.2676 27.3754 99.06 24.8686C99.2617 24.2347 99.4345 23.6008 99.6795 22.7363C100.501 25.5169 101.25 28.0813 101.999 30.6458C102.129 31.0924 102.258 31.5246 102.417 31.9568C103.036 33.5848 104.189 34.4204 105.788 34.4636C107.43 34.5068 108.684 33.7144 109.289 32.0144C110.643 28.2398 111.911 24.4508 113.208 20.6617C113.683 19.2787 114.245 17.91 114.562 16.4837C114.936 14.7981 114.086 13.3286 112.516 12.8964C110.888 12.4498 109.447 13.1989 108.914 14.8845C107.978 17.8956 107.113 20.9211 106.235 23.9321C106.163 24.1914 106.076 24.4508 105.918 24.955C105.428 23.2406 104.996 21.7278 104.549 20.2151C104.074 18.6015 103.627 16.9736 103.108 15.3888C102.518 13.6167 101.379 12.8099 99.6506 12.8099C97.9362 12.8243 96.7837 13.6455 96.2218 15.4464C95.3574 18.2414 94.5794 21.0795 93.7582 23.8889C93.6718 24.177 93.5709 24.4508 93.4268 24.9262Z" fill="#373AAD"/>
<path d="M162.12 19.394C162.12 18.3567 162.12 17.5643 162.12 16.7864C162.12 14.3948 162.12 12.0032 162.12 9.62609C162.12 9.19388 162.091 8.76167 162.034 8.34387C161.76 6.49978 160.535 5.40485 158.85 5.43366C157.178 5.46247 155.968 6.65825 155.767 8.47353C155.723 8.93455 155.709 9.39558 155.709 9.8566C155.709 16.7143 155.709 23.572 155.709 30.4298C155.709 30.7899 155.723 31.1645 155.752 31.5247C155.939 33.2535 157.063 34.3629 158.72 34.4493C160.29 34.5357 161.659 33.4264 161.99 31.8128C162.25 30.5018 162.077 29.1907 162.12 27.8797C162.134 27.2746 163.186 25.7907 163.719 25.6034C164.094 25.4738 164.108 25.8339 164.209 26.0068C165.304 27.7789 166.37 29.5509 167.465 31.323C167.811 31.8993 168.185 32.4611 168.589 32.9942C169.713 34.5213 171.47 34.8959 172.911 33.9306C174.236 33.0374 174.64 31.1069 173.703 29.6086C172.104 27.0009 170.476 24.422 168.79 21.8576C168.387 21.2381 168.445 20.9067 168.978 20.4313C169.9 19.6389 170.793 18.7745 171.629 17.8957C172.263 17.2186 172.767 16.4406 172.709 15.4465C172.652 14.3372 172.104 13.5016 171.096 13.0694C169.986 12.5939 168.863 12.6516 167.897 13.4583C166.442 14.6829 165.232 16.1524 163.907 17.5067C163.373 18.0542 162.855 18.616 162.12 19.394Z" fill="#373AAD"/>
<path d="M63.4334 28.6436C65.4072 26.4249 67.2368 24.3791 69.0521 22.3333C70.147 21.1087 71.2564 19.8698 72.3657 18.6452C72.9132 18.0401 73.3022 17.3773 73.4607 16.5561C73.72 15.2451 73.1005 14.0926 71.8615 13.6027C71.2276 13.3578 70.5649 13.2281 69.8877 13.2281C65.9114 13.2281 61.9351 13.1993 57.9732 13.2281C55.9994 13.2425 54.818 14.6256 55.1638 16.4409C55.3223 17.2621 55.7689 17.824 56.6045 18.0401C57.3825 18.2418 58.1605 18.3138 58.9672 18.3138C60.8113 18.3138 62.6698 18.3138 64.7877 18.3138C63.3614 19.913 62.108 21.3249 60.869 22.7223C59.0537 24.7537 57.2528 26.7851 55.4375 28.8165C54.5443 29.8106 54.2129 30.9343 54.7604 32.2021C55.3223 33.4843 56.446 33.9598 57.7427 33.9598C62.4249 33.9886 67.0928 33.9886 71.775 33.9598C73.5183 33.9454 74.6708 32.7784 74.6276 31.2513C74.5844 29.7241 73.403 28.6436 71.6742 28.6292C68.9945 28.6292 66.3292 28.6436 63.4334 28.6436Z" fill="#373AAD"/>
<path d="M52.2667 19.9416C52.2667 16.3687 52.2811 12.7813 52.2523 9.20841C52.2379 6.64397 50.5235 5.13124 48.1319 5.50582C46.7777 5.72193 45.7115 6.81686 45.481 8.30077C45.3946 8.84824 45.3658 9.3957 45.3658 9.94317C45.3514 16.6136 45.3658 23.284 45.3658 29.9545C45.3658 30.3578 45.3802 30.7468 45.4234 31.1502C45.6683 33.2536 46.9794 34.5215 48.8523 34.4782C50.826 34.4206 52.1659 33.0375 52.2235 30.8765C52.2811 29.0468 52.2379 27.2027 52.2379 25.373C52.2667 23.5578 52.2667 21.7569 52.2667 19.9416Z" fill="#373AAD"/>
<path d="M144.801 14.6255C144.24 13.5161 143.447 12.8822 142.251 12.839C140.263 12.7525 138.981 13.9195 138.88 16.095C138.794 17.7374 138.837 19.3942 138.837 21.051C138.837 24.1052 138.837 27.1739 138.837 30.2282C138.837 30.9053 138.823 31.5681 139.039 32.2308C139.471 33.585 140.537 34.4062 141.963 34.4494C143.39 34.4927 144.585 33.6571 145.046 32.3028C145.277 31.6257 145.277 30.9197 145.291 30.2138C145.335 27.2748 145.09 24.3358 145.637 21.4255C145.709 21.0077 145.824 20.5899 145.968 20.1865C146.473 18.8179 147.337 18.3425 148.763 18.645C149.325 18.7603 149.873 18.962 150.435 19.106C151.717 19.4374 152.884 18.9475 153.561 17.795C154.18 16.7289 153.993 15.3314 153.085 14.4094C151.457 12.767 147.049 11.8449 145.133 14.3085C145.061 14.4093 144.96 14.4814 144.801 14.6255Z" fill="#373AAD"/>
<path d="M82.5661 23.5869C82.5661 21.0224 82.6238 18.4436 82.5517 15.8791C82.4941 13.9918 81.0966 12.7816 79.2525 12.8249C77.8118 12.8537 76.6881 13.7469 76.3279 15.1444C76.1839 15.7062 76.1406 16.2825 76.1406 16.8732C76.1406 21.3682 76.1406 25.8632 76.1406 30.3581C76.1406 30.848 76.1694 31.3378 76.2703 31.8132C76.6737 33.5421 77.8695 34.5217 79.5119 34.4353C81.2263 34.3489 82.4797 33.1675 82.5373 31.3666C82.6238 29.0471 82.5805 26.7132 82.595 24.3936C82.595 24.1199 82.595 23.8462 82.595 23.5724C82.5805 23.5869 82.5661 23.5869 82.5661 23.5869Z" fill="#373AAD"/>
<path d="M82.5646 7.42255C82.5358 5.59286 81.1527 4.26742 79.3231 4.32505C77.5222 4.38268 76.1103 5.82338 76.1391 7.56662C76.1679 9.41071 77.5798 10.7217 79.4959 10.6785C81.3544 10.6353 82.5934 9.30986 82.5646 7.42255Z" fill="#373AAD"/>
<path d="M125.584 12.8241C119.187 12.8529 115.038 17.175 115.067 23.7878C115.095 30.098 119.461 34.521 125.612 34.4921C132.067 34.4633 136.331 30.0836 136.288 23.5428C136.245 17.0741 131.952 12.7808 125.584 12.8241ZM129.257 26.8132C128.595 28.2971 127.5 29.2048 125.814 29.2624C124.129 29.32 122.918 28.5853 122.241 27.0581C121.247 24.753 121.276 22.4047 122.27 20.114C122.861 18.7453 123.999 18.0394 125.54 17.9962C127.14 17.9529 128.292 18.6301 129.056 20.0275C129.646 21.1081 129.747 22.2894 129.834 23.5717C129.776 24.6234 129.718 25.7615 129.257 26.8132Z" fill="#373AAD"/>
</svg>
