<svg width="95" height="95" viewBox="0 0 95 95" fill="none" xmlns="http://www.w3.org/2000/svg">
<path d="M89.9828 10.9462H65.468V37.0778H89.9828V10.9462Z" fill="#AAAAAA"/>
<path d="M1.00885 0.95636H4.83763C5.85158 1.08243 6.8753 1.11139 7.89476 1.04278C9.49605 1.07016 11.0984 1.04905 12.6997 1.0501C16.6226 1.0501 20.5452 1.0501 24.4674 1.0501C24.7975 1.01339 25.1315 1.03264 25.4552 1.10701C25.555 1.24023 25.6271 1.39215 25.6672 1.55374C25.7072 1.71534 25.7143 1.88333 25.6881 2.04774C25.6959 6.18285 25.6959 10.318 25.6881 14.4531C25.7091 14.7248 25.6684 14.9978 25.569 15.2516C25.159 15.7667 24.577 15.576 24.0584 15.595C22.9842 15.6319 22.9399 15.6403 22.9579 16.7369C22.9078 17.9663 22.932 19.1975 23.0306 20.424C23.0865 20.5017 23.1516 20.5725 23.2246 20.6347C23.6513 20.7608 24.0989 20.8006 24.5412 20.7516C24.9186 20.7853 25.3287 20.7158 25.5785 21.114C25.7158 21.5175 25.7664 21.9454 25.7271 22.3697C25.7313 26.1909 25.7313 30.012 25.7271 33.8332C25.811 34.3157 25.7174 34.8122 25.4636 35.2312C25.1711 35.314 24.8647 35.3362 24.5633 35.2965C17.0084 35.2965 9.45348 35.2965 1.89856 35.2965C0.917128 35.2965 0.915038 35.2965 0.915038 34.32C0.915038 23.4955 0.915038 12.6706 0.915038 1.84546C0.865652 1.54605 0.898055 1.23889 1.00885 0.95636Z" fill="#52BAEE"/>
<path d="M0.826225 80.9432C1.06326 80.4977 1.21148 80.0103 1.26265 79.5084C2.09708 76.6215 3.95652 74.1378 6.4924 72.523C7.01949 72.523 7.18187 72.9633 7.4159 73.2993C10.726 78.0398 13.9676 82.8299 17.2766 87.5735C17.4187 87.7192 17.5087 87.9077 17.5328 88.1098C17.5012 89.7436 17.5254 91.3755 17.5106 93.0083C17.5475 93.2169 17.5425 93.4307 17.496 93.6374C17.4495 93.8441 17.3624 94.0395 17.2397 94.2123L0.825195 94.2439L0.826225 80.9432Z" fill="#233952"/>
<path d="M65.5111 11.161C65.9587 8.67883 67.152 6.39165 68.9323 4.6039C70.7127 2.81614 72.9956 1.61258 75.4773 1.15333C75.6481 1.11962 75.8495 1.1681 75.9475 0.960571H77.7712C77.9689 1.19536 78.0689 1.49701 78.0506 1.80331C78.0611 4.98892 78.0938 8.17554 78.0337 11.3601C78.0267 11.4814 78.0044 11.6015 77.9673 11.7173C77.9175 11.8807 77.8255 12.0282 77.7006 12.1449C76.2897 12.9179 74.7389 13.4021 73.1386 13.5692C71.5384 13.7363 69.9209 13.583 68.3807 13.1183C67.585 12.9223 66.8162 12.6305 66.091 12.2493C65.6556 12.0122 65.3541 11.7099 65.5111 11.161Z" fill="#AAAAAA"/>
<path d="M77.7733 11.8784V0.95636H79.597C80.2137 1.13545 80.8368 1.29344 81.4461 1.4978C83.5805 2.15205 85.4979 3.37145 86.9949 5.02655C88.4919 6.68166 89.5128 8.71077 89.9491 10.8987C89.9807 11.1078 89.9927 11.3195 89.9849 11.5308C89.7561 11.9944 89.3007 12.0965 88.8664 12.2324C87.5751 12.651 86.2053 12.769 84.8615 12.5773C83.5176 12.3856 82.2353 11.8892 81.1129 11.1263C80.8774 10.9217 80.5729 10.8143 80.261 10.8258C79.9492 10.8374 79.6533 10.967 79.4336 11.1885C78.9645 11.5456 78.5218 12.1291 77.7733 11.8784Z" fill="#909090"/>
<path d="M1.00955 0.956299C1.00955 12.0273 1.00361 23.0979 0.991667 34.1681C0.991667 34.9898 1.19091 35.2395 2.04584 35.2353C9.84672 35.1995 17.6475 35.21 25.4484 35.2069C25.6044 35.1542 25.6519 35.23 25.6445 35.3722L0.831392 35.3923C0.831392 24.1556 0.834916 12.9189 0.841944 1.68215C0.837727 1.44723 0.633214 1.11642 1.00955 0.956299Z" fill="#9BCAFE"/>
<path d="M25.4507 15.3379L25.4401 1.14067C25.3783 1.09993 25.3578 1.05956 25.3789 1.01953C25.4 0.980554 25.4211 0.960571 25.4432 0.960571H35.8365C35.8508 0.98597 35.8597 1.01406 35.8626 1.04306C35.8655 1.07207 35.8624 1.10137 35.8533 1.12909C35.8443 1.15682 35.8296 1.18236 35.8102 1.20413C35.7908 1.22589 35.7671 1.24337 35.7406 1.2555C35.3152 1.42318 34.8549 1.48288 34.4007 1.4293C31.9403 1.43667 29.4798 1.42932 27.0214 1.43669C26.0083 1.43669 25.9271 1.51886 25.924 2.52595C25.9134 6.28989 25.9239 10.0539 25.9165 13.8189C25.9755 14.303 25.9181 14.7941 25.749 15.2515C25.7375 15.279 25.72 15.3036 25.6978 15.3234C25.6755 15.3433 25.6492 15.3579 25.6205 15.3662C25.5919 15.3745 25.5618 15.3762 25.5324 15.3713C25.503 15.3664 25.4751 15.355 25.4507 15.3379Z" fill="#3996FE"/>
<path d="M25.4412 0.956351C25.4465 1.01628 25.4465 1.07658 25.4412 1.13651H12.6856C12.6244 1.09648 12.6044 1.05643 12.6244 1.0164C12.6445 0.976373 12.6645 0.955322 12.6845 0.955322L25.4412 0.956351Z" fill="#6EB2FE"/>
<path d="M35.8363 1.13337C35.8363 1.07438 35.8363 1.01535 35.8363 0.95636H43.6762C43.69 0.982651 43.6982 1.01151 43.7003 1.0411C43.7024 1.0707 43.6983 1.10038 43.6884 1.12836C43.6785 1.15633 43.663 1.18195 43.6427 1.20365C43.6225 1.22535 43.598 1.24269 43.5708 1.25451C43.2351 1.40105 42.8677 1.45977 42.503 1.42515C40.6803 1.43253 38.8576 1.43463 37.036 1.42515C36.8267 1.46282 36.6119 1.45631 36.4053 1.40606C36.1987 1.3558 36.0048 1.26293 35.8363 1.13337Z" fill="#439CFE"/>
<path d="M12.6794 0.95636C12.6794 1.01641 12.6794 1.0775 12.6794 1.13755C10.3792 1.13755 8.07903 1.14282 5.77879 1.13755C5.46254 1.13755 5.10517 1.25873 4.8374 0.960603L12.6794 0.95636Z" fill="#5FAAFE"/>
<path d="M43.6783 1.13125C43.6783 1.07225 43.6783 1.0143 43.6783 0.95636H50.0603L50.0698 1.1344C49.8336 1.33017 49.5331 1.43153 49.2264 1.41885C47.655 1.44202 46.0829 1.44202 44.51 1.41885C44.3588 1.43405 44.2061 1.41617 44.0625 1.36651C43.9188 1.31685 43.7878 1.23659 43.6783 1.13125Z" fill="#4FA3FE"/>
<path d="M69.5699 94.2144L51.2526 94.245C49.4901 94.245 47.7253 94.1902 45.967 94.2682C45.0846 94.3072 44.9382 93.9911 44.9477 93.2021C44.9877 89.8311 44.9529 86.4601 44.9761 83.0891C44.9921 82.8364 44.9508 82.5835 44.8556 82.3489C44.7603 82.1144 44.6134 81.9043 44.4257 81.7343C43.0479 80.408 41.7303 79.0185 40.3473 77.6975C39.8529 77.2245 39.7684 76.939 40.3177 76.4239C41.6881 75.1355 42.9722 73.7524 44.3384 72.4566C44.5594 72.2569 44.732 72.0095 44.8431 71.7331C44.9541 71.4568 45.0006 71.1587 44.9792 70.8617C44.9508 67.4907 44.9792 64.1197 44.9571 60.7487C44.9571 60.2146 45.0172 59.9375 45.676 59.9386C53.635 59.9562 61.5944 59.9562 69.5541 59.9386C69.6692 60.0598 69.7556 60.2052 69.8071 60.3642C69.8585 60.5232 69.8737 60.6916 69.8514 60.8572C69.8672 65.1184 69.8777 69.3795 69.8514 73.6407C69.8482 73.7914 69.8259 73.9412 69.785 74.0863C69.7568 74.1968 69.7078 74.3008 69.6406 74.3929C69.131 74.6603 68.5468 74.7504 67.9803 74.6489C67.3773 74.6573 67.1011 74.8964 67.1095 75.5137C67.1243 76.5672 67.1316 77.6206 67.1095 78.674C67.0937 79.3493 67.4067 79.5684 68.0403 79.5737C68.5958 79.5737 69.2 79.4262 69.6775 79.8813C69.8341 80.2113 69.8989 80.5774 69.8651 80.9411C69.8714 84.9926 69.8714 89.0441 69.8651 93.0957C69.8965 93.2924 69.8864 93.4935 69.8355 93.6862C69.7847 93.8788 69.6943 94.0587 69.5699 94.2144Z" fill="#3D41C2"/>
<path d="M43.6772 1.13126H50.0666C50.0835 4.62131 50.1361 8.11135 50.0961 11.6003C50.0715 12.0165 50.1436 12.4327 50.3065 12.8164C50.4694 13.2001 50.7188 13.5411 51.0353 13.8126C52.3489 15.0304 53.5601 16.3566 54.863 17.586C55.349 18.0432 55.2847 18.2834 54.8399 18.7101C53.4157 20.0795 52.0485 21.5027 50.6327 22.8775C50.4555 23.038 50.3162 23.236 50.225 23.457C50.1339 23.678 50.0931 23.9166 50.1056 24.1553C50.1256 27.5558 50.0951 30.9563 50.132 34.3558C50.1404 35.1132 50.0033 35.3945 49.1526 35.3902C41.3137 35.3523 33.4749 35.3671 25.636 35.366L25.4401 35.2006L25.4452 20.9992C25.9386 20.5641 26.5437 20.7305 27.1014 20.7274C27.7897 20.7274 28.0986 20.4567 28.0849 19.7551C28.0645 18.6946 28.0645 17.6334 28.0849 16.5715C28.0986 15.8647 27.7782 15.6035 27.0951 15.6066C26.5975 15.6066 26.0515 15.7425 25.6277 15.3222C25.6277 10.8904 25.6392 6.45849 25.6034 2.02666C25.597 1.28925 25.8343 1.10704 26.5385 1.11441C29.6367 1.14707 32.7349 1.12706 35.8342 1.12495L43.6772 1.13126Z" fill="#69CCFE"/>
<path d="M69.5688 94.2134V79.8655C69.9662 79.461 70.4774 79.6485 70.9391 79.599C71.2849 79.5621 71.6771 79.7106 71.9248 79.3209C72.0568 77.909 72.0832 76.4892 72.0038 75.0734C72.0038 74.5867 71.6592 74.5098 71.266 74.4782C70.7041 74.434 70.1064 74.6067 69.5909 74.2485C69.5797 69.4807 69.568 64.7128 69.556 59.9449C70.8491 59.7988 72.1525 59.7661 73.4513 59.847C80.0726 59.8175 86.6949 59.8385 93.3162 59.8027C94.0615 59.8027 94.2006 60.0292 94.1996 60.7181C94.1792 71.6149 94.1728 82.5117 94.1805 93.4085C94.1805 93.7878 94.3704 94.2587 93.6282 94.2513C85.6073 94.226 77.5875 94.2134 69.5688 94.2134Z" fill="#373AAD"/>
<path d="M17.2397 94.2123C17.2397 92.4565 17.2397 90.6976 17.2397 88.9356C17.1962 88.5736 17.2615 88.2069 17.4273 87.8821C17.266 87.5313 17.5327 87.3048 17.693 87.0709C20.8945 82.3884 24.1118 77.7154 27.3048 73.0276C27.4714 72.7842 27.6158 72.4882 27.9901 72.5072C29.7625 73.5536 31.229 75.0464 32.2433 76.8365C33.2576 78.6267 33.7841 80.6515 33.7701 82.7086C33.8703 86.3188 33.7869 89.9331 33.8006 93.5454C33.8006 93.9973 33.7753 94.2607 33.1903 94.2575C27.872 94.2217 22.5558 94.2218 17.2397 94.2123Z" fill="#09213D"/>
<path d="M88.3858 25.806C90.1754 26.8563 91.6542 28.3623 92.6713 30.1702C93.6884 31.9781 94.2074 34.0233 94.1754 36.0971C94.2081 39.6788 94.1754 43.2604 94.188 46.8421C94.188 47.3204 94.1764 47.6186 93.5344 47.6144C88.2804 47.5796 83.0253 47.5806 77.7702 47.5701C77.6635 47.4433 77.5842 47.2957 77.5376 47.1366C77.4909 46.9776 77.4779 46.8106 77.4992 46.6462C77.4992 44.967 77.4476 43.2868 77.5267 41.6097C77.5375 41.511 77.5585 41.4135 77.5889 41.319C78.3269 40.0643 79.1702 38.876 79.9988 37.6814C82.5773 33.9649 85.0883 30.202 87.6942 26.5013C87.8819 26.2295 88.0442 25.9282 88.3858 25.806Z" fill="#FE9418"/>
<path d="M77.7777 41.2852C77.7777 43.3802 77.7756 45.4751 77.7714 47.5701C72.4907 47.5799 67.2095 47.5922 61.9281 47.607C61.46 47.607 61.2956 47.4626 61.2956 46.9854C61.3262 42.9212 61.1606 38.8465 61.401 34.796C61.6382 30.8867 63.7782 27.9487 67.0536 25.8323C67.4267 25.9019 67.5807 26.2084 67.7715 26.4812C70.661 30.7034 73.5831 34.9035 76.4537 39.1383C77.0326 39.7596 77.4826 40.4892 77.7777 41.2852Z" fill="#FECF0D"/>
<path d="M29.5946 58.1435C29.8606 60.4299 29.849 62.74 29.5599 65.0236C29.1553 67.4883 28.0389 69.7811 26.3478 71.6202C25.8546 72.5291 25.0807 73.2545 24.1414 73.6881C22.4176 74.8408 20.4244 75.5275 18.356 75.6812C17.8827 75.7149 17.3661 75.8171 17.0678 75.2672C16.9743 74.9784 16.9343 74.6749 16.9497 74.3718C16.9497 69.3837 16.9381 64.3946 16.9497 59.4066C16.9498 59.2561 16.9629 59.106 16.9887 58.9579C17.0028 58.8526 17.0305 58.7495 17.071 58.6513C17.7942 58.0122 18.5801 57.4475 19.4165 56.9657C19.8382 56.6602 20.2188 56.9331 20.5762 57.1764C21.5998 57.8848 22.7562 58.3789 23.9759 58.6292C25.4968 58.9419 27.0744 58.8303 28.5362 58.3068C28.8614 58.1373 29.2334 58.08 29.5946 58.1435Z" fill="#FDA68B"/>
<path d="M77.7735 11.8784C78.5134 11.6146 79.1885 11.1958 79.7533 10.6501C80.1749 10.2824 80.4226 10.3857 80.8201 10.6586C82.1196 11.6312 83.6622 12.227 85.2784 12.3809C86.8946 12.5348 88.522 12.2406 89.9819 11.5308C90.529 16.404 90.3866 21.1118 86.7614 24.9864C86.7382 25.3646 86.4452 25.5511 86.2038 25.7786C84.1831 27.6456 81.6019 28.7935 78.8614 29.0442C78.4722 29.1373 78.062 29.0734 77.7197 28.8663C77.6504 28.78 77.5981 28.6813 77.5658 28.5755C77.4873 28.1892 77.459 27.7944 77.4815 27.4009C77.478 22.6204 77.478 17.8399 77.4815 13.0594C77.4572 12.7266 77.4951 12.3922 77.5932 12.0733L77.7735 11.8784Z" fill="#FDA68B"/>
<path d="M77.591 12.066C77.8998 12.3672 77.7627 12.7528 77.7638 13.0994C77.775 18.3294 77.7797 23.5597 77.7776 28.7904C77.5414 29.1191 77.1904 29.0685 76.8667 29.0379C73.9733 28.8013 71.2398 27.6129 69.0942 25.6585C68.9821 25.5813 68.887 25.4821 68.8145 25.3669C68.742 25.2517 68.6937 25.1229 68.6727 24.9885C67.6967 23.8315 66.8883 22.5432 66.2712 21.1614C65.6666 19.7705 65.3587 18.2691 65.3668 16.7527C65.2841 14.8866 65.3341 13.0169 65.5165 11.1579C65.4616 11.6593 65.8232 11.83 66.1859 12.0006C67.8282 12.829 69.6313 13.29 71.47 13.3516C73.3087 13.4133 75.1388 13.0742 76.833 12.3577C77.0839 12.264 77.338 12.1713 77.591 12.066Z" fill="#FEBEAA"/>
<path d="M17.2302 58.687L17.2375 75.4368L17.1532 75.5526C16.8842 75.696 16.5733 75.7401 16.2751 75.677C13.6733 75.4146 11.2077 74.3882 9.18889 72.7273C8.77466 72.4723 8.45606 72.088 8.28232 71.6339C6.39816 69.6454 5.2257 67.0895 4.94793 64.3651C4.71262 62.3545 4.74416 60.3217 5.04174 58.3194C5.43073 58.1087 5.74592 58.3541 6.06323 58.5058C7.55056 59.2313 9.16903 59.6496 10.8218 59.7358C12.4746 59.8219 14.1278 59.5742 15.6826 59.0073C16.176 58.8419 16.6451 58.4521 17.2302 58.687Z" fill="#FEBEAA"/>
<path d="M17.2302 58.686C15.6019 59.4086 13.8629 59.8506 12.0869 59.9933C9.63035 60.0808 7.19577 59.5032 5.04077 58.3215C5.21587 56.6618 5.74587 55.0591 6.59489 53.622C7.4439 52.1849 8.59206 50.9469 9.96164 49.9919C12.0445 48.3926 14.6151 47.5593 17.2408 47.6322C17.3676 47.8019 17.4584 47.9956 17.5077 48.2016C17.557 48.4075 17.5637 48.6214 17.5275 48.83C17.5373 51.6659 17.5373 54.5021 17.5275 57.3386C17.5843 57.7619 17.4805 58.1911 17.2365 58.5417C17.2344 58.5891 17.2323 58.6375 17.2302 58.686Z" fill="#A14F3D"/>
<path d="M17.2375 58.5406C17.2375 54.9048 17.2375 51.2687 17.2375 47.6322C20.0805 47.5991 22.8477 48.5479 25.0716 50.3181C27.2954 52.0884 28.8395 54.5716 29.4428 57.3482C29.4923 57.6136 29.5419 57.8749 29.5914 58.1435C28.1304 58.868 26.4973 59.1745 24.8728 59.0293C23.2482 58.8841 21.6955 58.2928 20.3864 57.3208C19.9172 57.0047 19.6674 56.9784 19.2373 57.3323C18.6717 57.8823 17.9876 58.2956 17.2375 58.5406Z" fill="#86402E"/>
<path d="M17.2364 75.44C20.3894 75.4965 23.44 74.3205 25.7383 72.1627C25.9418 71.9825 26.1441 71.8014 26.3465 71.6213C26.8356 72.0216 27.5335 72.0426 27.9868 72.5061C25.0056 76.8309 22.0248 81.1556 19.0443 85.4804C18.4972 86.2757 17.9638 87.0805 17.4241 87.88C17.3892 87.8894 17.3528 87.8917 17.3171 87.8866C17.2813 87.8815 17.247 87.8693 17.2162 87.8506C17.1853 87.8319 17.1586 87.807 17.1376 87.7777C17.1166 87.7484 17.1018 87.7152 17.0941 87.68C16.9798 87.0862 16.9282 86.482 16.9401 85.8775C16.9486 82.8794 16.9401 79.8813 16.9486 76.8832C16.9033 76.6447 16.9067 76.3996 16.9586 76.1624C17.0104 75.9253 17.1095 75.7011 17.2501 75.5031L17.2364 75.44Z" fill="#88C0FE"/>
<path d="M68.6697 24.9906C70.4621 26.7623 72.7202 27.9903 75.1823 28.5323C76.0279 28.7592 76.9049 28.847 77.7787 28.7925L77.7692 28.8494C77.8959 29.0205 77.9871 29.2151 78.0377 29.4218C78.0882 29.6286 78.097 29.8433 78.0634 30.0535C78.0718 33.2981 78.0634 36.5426 78.0687 39.7883C78.0784 40.2743 77.9743 40.7559 77.765 41.1947C77.776 41.2235 77.78 41.2546 77.7766 41.2853C76.695 40.0148 75.8379 38.5842 74.8892 37.22C72.2611 33.4371 69.6648 29.6353 67.0568 25.8344L68.6697 24.9906Z" fill="#BEDBFE"/>
<path d="M17.2491 75.499C17.2491 79.2394 17.2446 82.9795 17.2354 86.7192C17.2354 87.0353 17.3408 87.3871 17.0941 87.6757C13.7911 82.8917 10.4898 78.1087 7.19023 73.3268C6.98888 73.0361 6.86448 72.6673 6.49341 72.5187C6.99359 72.0586 7.61574 71.7523 8.28552 71.636C10.07 73.4339 12.3451 74.666 14.8266 75.1787C15.6204 75.3293 16.4406 75.3937 17.2491 75.499Z" fill="#BEDBFE"/>
<path d="M77.765 41.1936C77.765 37.0789 77.765 32.9641 77.765 28.8494C79.445 28.8308 81.1047 28.4799 82.6483 27.8169C84.1918 27.1538 85.5887 26.1918 86.7581 24.9864C87.3345 25.185 87.8813 25.4607 88.3837 25.806C84.9288 30.8583 81.4728 35.9096 78.0158 40.9598C77.9412 41.0468 77.8571 41.1252 77.765 41.1936Z" fill="#88C0FE"/>
<path d="M12.4885 17.9073C12.5939 17.1909 12.091 16.0827 12.6898 15.5233C13.2349 15.0145 14.3144 15.4032 15.1577 15.3727C15.8546 15.3484 16.5556 15.399 17.2503 15.359C17.8259 15.3263 17.9777 15.5633 17.9661 16.1016C17.9373 17.436 17.9373 18.7704 17.9661 20.1047C17.9788 20.6494 17.8112 20.859 17.244 20.8421C15.8788 20.8094 14.5126 20.8137 13.1474 20.8421C12.6203 20.8526 12.4589 20.642 12.479 20.1447C12.5095 19.4495 12.4885 18.7511 12.4885 17.9073Z" fill="white"/>
<path d="M25.6309 15.3305C25.8418 15.3368 26.0526 15.3484 26.2634 15.3495C28.3401 15.36 28.3401 15.36 28.3401 17.4827C28.3401 18.3602 28.3064 19.2399 28.3507 20.1163C28.3855 20.8063 28.103 21.0286 27.4431 20.9928C26.7831 20.9569 26.1116 20.9991 25.4464 21.0086C24.5864 21.0707 23.7221 21.0093 22.8795 20.8263C23.0802 20.69 23.306 20.5952 23.5439 20.5474C23.7818 20.4997 24.0269 20.4999 24.2647 20.5482C24.9309 20.5661 25.1828 20.2722 25.167 19.6222C25.1431 18.6249 25.1431 17.6274 25.167 16.6294C25.1839 15.892 24.7612 15.8003 24.1751 15.8056C23.589 15.8109 23.1579 15.8994 23.1642 16.6283C23.1726 17.626 23.1726 18.6236 23.1642 19.6212C23.231 20.0439 23.1299 20.4759 22.8826 20.8253C22.5221 20.268 22.7393 19.6486 22.714 19.0608C22.674 18.1211 22.753 17.1761 22.6877 16.2396C22.635 15.4832 22.9343 15.2831 23.629 15.3368C24.232 15.3832 24.8424 15.3368 25.4506 15.3368C25.5105 15.3472 25.5719 15.3451 25.6309 15.3305Z" fill="white"/>
<path d="M62.0379 77.1876C61.9241 77.9314 62.4479 79.0838 61.827 79.6579C61.262 80.1773 60.1404 79.8097 59.2665 79.7991C58.3926 79.7886 57.2804 80.1899 56.7249 79.619C56.2146 79.0922 56.6026 77.9966 56.5762 77.1518C56.553 76.4238 56.5931 75.6938 56.5647 74.9669C56.5467 74.4908 56.7259 74.3349 57.1971 74.3349C58.5939 74.357 59.9917 74.3623 61.3884 74.3349C61.9303 74.3233 62.0695 74.5456 62.0485 75.0355C62.0168 75.7065 62.0379 76.3712 62.0379 77.1876Z" fill="white"/>
<path d="M72.277 79.6695C71.3967 80.0582 70.465 79.7317 69.5657 79.8655C68.871 79.8476 68.1753 79.8074 67.4806 79.8201C67.0357 79.8275 66.8195 79.7233 66.829 79.2176C66.8571 77.7948 66.8571 76.3715 66.829 74.9479C66.8206 74.4559 67.0157 74.316 67.47 74.3391C68.1658 74.3707 68.8626 74.3602 69.5594 74.3686C69.9031 74.7046 69.8345 75.1449 69.8419 75.5568C69.8598 76.5481 69.8535 77.5405 69.8472 78.5318C69.8472 79.1418 70.1139 79.3893 70.719 79.3935C71.2482 79.3956 71.8152 79.2702 72.277 79.6695Z" fill="white"/>
<path d="M72.2769 79.6695C71.7002 79.6398 71.1222 79.6441 70.546 79.6822C69.7026 79.7875 69.5203 79.4219 69.5498 78.6487C69.6057 77.2234 69.5613 75.795 69.5592 74.3675C69.5761 74.3296 69.5857 74.2889 69.5877 74.2474C70.2834 74.2527 70.9803 74.2791 71.6761 74.258C72.1263 74.2443 72.3329 74.3633 72.3224 74.8616C72.2865 76.4639 72.2896 78.0672 72.2769 79.6695Z" fill="white"/>
<path d="M35.6391 20.8348C34.9213 20.7295 33.8133 21.2288 33.2504 20.6368C32.736 20.0964 33.1272 19.0145 33.0977 18.1728C33.0724 17.4459 33.1123 16.7169 33.086 15.99C33.0691 15.5097 33.2663 15.358 33.7301 15.358C35.1259 15.377 36.5219 15.377 37.9184 15.358C38.3727 15.3517 38.5771 15.4875 38.5697 15.9774C38.5476 17.3721 38.5455 18.768 38.5697 20.1627C38.5792 20.6842 38.3842 20.8601 37.8782 20.838C37.1803 20.8127 36.4835 20.8348 35.6391 20.8348Z" fill="white"/>
<path d="M82.6712 77.0939C82.6712 77.7913 82.6544 78.4886 82.6765 79.185C82.6902 79.6242 82.589 79.8538 82.0788 79.8454C80.623 79.8191 79.166 79.8222 77.7102 79.8454C77.2306 79.8528 77.0778 79.6696 77.0778 79.206C77.0953 77.7811 77.0953 76.3562 77.0778 74.9312C77.0778 74.4877 77.1906 74.2558 77.686 74.2611C79.1422 74.2787 80.5983 74.2787 82.0545 74.2611C82.5299 74.2558 82.6955 74.4455 82.6775 74.9111C82.6512 75.638 82.6712 76.366 82.6712 77.0939Z" fill="white"/>
<path d="M22.8805 20.8232C22.8805 19.3379 22.9048 17.8525 22.8732 16.3682C22.8605 15.7677 23.0008 15.4939 23.6733 15.5149C25.8216 15.5813 25.401 15.2568 25.4442 17.2942C25.4589 17.961 25.4537 18.6278 25.4442 19.2957C25.422 21.0307 25.6762 20.7895 23.9685 20.8137L22.8764 20.8264L22.8805 20.8232Z" fill="white"/>
</svg>
