<svg xmlns="http://www.w3.org/2000/svg" width="88.617" height="88.58" viewBox="0 0 88.617 88.58"><defs><style>.a{fill:#aaa;}.b{fill:#52baee;}.c{fill:#233952;}.d{fill:#909090;}.e{fill:#9bcafe;}.f{fill:#3996fe;}.g{fill:#6eb2fe;}.h{fill:#439cfe;}.i{fill:#5faafe;}.j{fill:#4fa3fe;}.k{fill:#3d41c2;}.l{fill:#69ccfe;}.m{fill:#373aad;}.n{fill:#09213d;}.o{fill:#fe9418;}.p{fill:#fecf0d;}.q{fill:#fda68b;}.r{fill:#febeaa;}.s{fill:#a14f3d;}.t{fill:#86402e;}.u{fill:#88c0fe;}.v{fill:#bedbfe;}.w{fill:#fff;}</style></defs><rect class="a" width="23.255" height="24.806" transform="translate(61.362 9.483)"/><path class="b" d="M955.618,743.448h3.632a15.21,15.21,0,0,0,2.9.082c1.519.026,3.039.006,4.558.007q5.582,0,11.163,0a2.8,2.8,0,0,1,.937.054,1.18,1.18,0,0,1,.221.893q.011,5.888,0,11.776a1.717,1.717,0,0,1-.113.758c-.389.489-.941.308-1.433.326-1.019.035-1.061.043-1.044,1.084a28.985,28.985,0,0,0,.069,3.5,1.128,1.128,0,0,0,.184.2,3.17,3.17,0,0,0,1.249.111c.358.032.747-.034.984.344a2.88,2.88,0,0,1,.141,1.192q.006,5.441,0,10.882a1.926,1.926,0,0,1-.25,1.327,2.117,2.117,0,0,1-.854.062q-10.75,0-21.5,0c-.931,0-.933,0-.933-.927q0-15.413,0-30.827A1.6,1.6,0,0,1,955.618,743.448Z" transform="translate(-955.402 -743.448)"/><path class="c" d="M955.194,1045.253a3.7,3.7,0,0,0,.414-1.362,11.719,11.719,0,0,1,4.961-6.631c.5,0,.654.418.876.737,3.14,4.5,6.215,9.047,9.354,13.55a.878.878,0,0,1,.243.509c-.03,1.551-.007,3.1-.021,4.65a1.519,1.519,0,0,1-.257,1.143l-15.571.03Z" transform="translate(-955.152 -969.324)"/><path class="a" d="M1220.438,753.135a11.787,11.787,0,0,1,9.454-9.5c.162-.032.353.014.446-.183h1.73a1.137,1.137,0,0,1,.265.8c.01,3.024.041,6.049-.016,9.072a1.372,1.372,0,0,1-.063.339.925.925,0,0,1-.253.406,11.485,11.485,0,0,1-8.841.924,9.6,9.6,0,0,1-2.172-.825C1220.575,753.943,1220.289,753.656,1220.438,753.135Z" transform="translate(-1159.035 -743.448)"/><path class="d" d="M1270.87,753.816l0-10.368h1.73c.585.17,1.176.32,1.754.514a11.733,11.733,0,0,1,8.066,8.924,3.219,3.219,0,0,1,.034.6c-.217.44-.649.537-1.061.666a8.444,8.444,0,0,1-7.355-1.05,1.166,1.166,0,0,0-1.593.059C1272,753.5,1271.58,754.054,1270.87,753.816Z" transform="translate(-1197.835 -743.448)"/><path class="e" d="M955.227,743.448q0,15.764-.017,31.527c0,.78.189,1.017,1,1.013,7.4-.034,14.8-.024,22.2-.027.148-.05.193.022.186.157l-23.538.019q0-16,.01-32C955.064,743.914,954.87,743.6,955.227,743.448Z" transform="translate(-955.011 -743.448)"/><path class="f" d="M1055.961,757.1l-.01-13.477q-.088-.058-.058-.115c.02-.037.04-.056.061-.056h9.859a.2.2,0,0,1-.091.28,2.625,2.625,0,0,1-1.271.165c-2.334.007-4.668,0-7,.007-.961,0-1.038.078-1.041,1.034-.01,3.573,0,7.146-.007,10.72a2.91,2.91,0,0,1-.159,1.36A.189.189,0,0,1,1055.961,757.1Z" transform="translate(-1032.56 -743.448)"/><path class="g" d="M1015.712,743.448a.962.962,0,0,1,0,.171h-12.1c-.058-.038-.077-.076-.058-.114s.038-.058.057-.058Z" transform="translate(-992.32 -743.448)"/><path class="h" d="M1098.82,743.616q0-.084,0-.168h7.437a.205.205,0,0,1-.1.283,2.047,2.047,0,0,1-1.013.162c-1.729.007-3.458.009-5.186,0A1.446,1.446,0,0,1,1098.82,743.616Z" transform="translate(-1065.567 -743.448)"/><path class="i" d="M979.089,743.448c0,.057,0,.115,0,.172-2.182,0-4.364.005-6.546,0-.3,0-.639.115-.893-.168Z" transform="translate(-967.803 -743.448)"/><path class="j" d="M1130.987,743.614c0-.056,0-.111,0-.166h6.054l.009.169a1.177,1.177,0,0,1-.8.27q-2.236.033-4.474,0A.994.994,0,0,1,1130.987,743.614Z" transform="translate(-1090.295 -743.448)"/><path class="k" d="M1143.766,1018.151l-17.376.029c-1.672,0-3.346-.052-5.014.022-.837.037-.976-.263-.967-1.012.038-3.2.005-6.4.027-9.6a1.6,1.6,0,0,0-.522-1.286c-1.307-1.259-2.557-2.578-3.869-3.832-.469-.449-.549-.72-.028-1.209,1.3-1.223,2.518-2.536,3.814-3.766a1.861,1.861,0,0,0,.608-1.514c-.027-3.2,0-6.4-.021-9.6,0-.507.057-.77.682-.769q11.325.025,22.651,0a1.061,1.061,0,0,1,.282.872c.015,4.045.025,8.09,0,12.135a1.685,1.685,0,0,1-.063.423.848.848,0,0,1-.137.291,2.455,2.455,0,0,1-1.575.243c-.572.008-.834.235-.826.821.014,1,.021,2,0,3-.015.641.282.849.883.854.527,0,1.1-.14,1.553.292a1.931,1.931,0,0,1,.178,1.006q.009,5.769,0,11.538A1.36,1.36,0,0,1,1143.766,1018.151Z" transform="translate(-1078.513 -929.624)"/><path class="l" d="M1073.485,744.138l6.061,0c.016,3.313.066,6.626.028,9.938a2.568,2.568,0,0,0,.891,2.1c1.246,1.156,2.395,2.415,3.631,3.582.461.434.4.662-.022,1.067-1.351,1.3-2.648,2.651-3.991,3.956a1.529,1.529,0,0,0-.5,1.213c.019,3.228-.01,6.456.025,9.683.008.719-.122.986-.929.982-7.436-.036-14.872-.022-22.308-.023l-.186-.157.005-13.481c.468-.413,1.042-.255,1.571-.258.653,0,.946-.257.933-.923q-.029-1.51,0-3.022c.013-.671-.291-.919-.939-.916-.472,0-.99.129-1.392-.27,0-4.207.011-8.414-.023-12.621-.006-.7.219-.873.887-.866,2.939.031,5.878.012,8.818.01Z" transform="translate(-1032.794 -743.972)"/><path class="m" d="M1237.165,1017.7l0-13.62c.377-.384.862-.206,1.3-.253.328-.035.7.106.935-.264a27.073,27.073,0,0,0,.075-4.032c0-.462-.327-.535-.7-.565-.533-.042-1.1.122-1.589-.218q-.016-6.789-.033-13.578a21.17,21.17,0,0,1,3.695-.093c6.281-.028,12.563-.008,18.844-.042.707,0,.839.215.838.869q-.029,15.516-.018,31.032c0,.36.18.807-.524.8Q1248.575,1017.7,1237.165,1017.7Z" transform="translate(-1171.913 -929.174)"/><path class="n" d="M1022.52,1057.791q0-2.5,0-5.009a1.743,1.743,0,0,1,.178-1c-.153-.333.1-.548.252-.77,3.037-4.445,6.089-8.881,9.118-13.331.158-.231.295-.512.65-.494a11.16,11.16,0,0,1,5.483,9.684c.095,3.427.016,6.858.029,10.287,0,.429-.024.679-.579.676C1032.606,1057.8,1027.563,1057.8,1022.52,1057.791Z" transform="translate(-1006.908 -969.266)"/><path class="o" d="M1280.032,845.467a11.13,11.13,0,0,1,5.492,9.769c.031,3.4,0,6.8.012,10.2,0,.454-.011.737-.62.733-4.984-.033-9.969-.032-14.954-.042a1.135,1.135,0,0,1-.257-.877c0-1.594-.049-3.189.026-4.781a1.4,1.4,0,0,1,.059-.276c.7-1.191,1.5-2.319,2.286-3.453,2.446-3.528,4.828-7.1,7.3-10.613C1279.554,845.869,1279.708,845.583,1280.032,845.467Z" transform="translate(-1196.93 -821.878)"/><path class="p" d="M1218.823,860.246q0,2.983-.006,5.966-7.514.014-15.029.035c-.444,0-.6-.137-.6-.59.029-3.858-.128-7.726.1-11.571.225-3.711,2.255-6.5,5.362-8.509.354.066.5.357.681.616,2.741,4.008,5.513,7.995,8.236,12.015A6.1,6.1,0,0,1,1218.823,860.246Z" transform="translate(-1145.784 -821.963)"/><path class="q" d="M1033.313,974.093a27.1,27.1,0,0,1-.033,6.531,12.165,12.165,0,0,1-3.047,6.262,4.553,4.553,0,0,1-2.093,1.963,11.387,11.387,0,0,1-5.488,1.892c-.449.032-.939.129-1.222-.393a2.37,2.37,0,0,1-.112-.85c0-4.735-.011-9.471,0-14.206a2.493,2.493,0,0,1,.037-.426,1.172,1.172,0,0,1,.078-.291,13.649,13.649,0,0,1,2.225-1.6c.4-.29.761-.031,1.1.2a8.76,8.76,0,0,0,3.225,1.379,8.027,8.027,0,0,0,4.326-.306A1.579,1.579,0,0,1,1033.313,974.093Z" transform="translate(-1005.981 -919.807)"/><path class="q" d="M1269.944,783.662a5.231,5.231,0,0,0,1.878-1.166c.4-.349.635-.251,1.012.008a8.381,8.381,0,0,0,8.691.828c.519,4.626.384,9.095-3.055,12.773-.022.359-.3.536-.529.752a11.851,11.851,0,0,1-6.965,3.1,1.443,1.443,0,0,1-1.083-.169.826.826,0,0,1-.146-.276,4.35,4.35,0,0,1-.08-1.115q-.005-6.807,0-13.614a2.552,2.552,0,0,1,.106-.936Z" transform="translate(-1196.909 -773.294)"/><path class="r" d="M1231.474,786.2c.293.286.163.652.164.981q.016,7.447.013,14.895c-.224.312-.557.264-.864.235a12.453,12.453,0,0,1-7.373-3.208.951.951,0,0,1-.4-.636,15.331,15.331,0,0,1-2.278-3.633,10.366,10.366,0,0,1-.858-4.185,37.451,37.451,0,0,1,.142-5.311c-.052.476.291.638.635.8a12.02,12.02,0,0,0,10.1.339C1230.993,786.388,1231.234,786.3,1231.474,786.2Z" transform="translate(-1158.612 -775.654)"/><path class="r" d="M983.268,979.053l.007,15.9-.08.11a1.229,1.229,0,0,1-.833.118,12.56,12.56,0,0,1-6.722-2.8,2.1,2.1,0,0,1-.86-1.038,11.771,11.771,0,0,1-3.163-6.9,21.816,21.816,0,0,1,.089-5.739c.369-.2.668.033.969.177a11.678,11.678,0,0,0,9.125.476C982.268,979.2,982.713,978.83,983.268,979.053Z" transform="translate(-967.665 -924.251)"/><path class="s" d="M984.047,945.553a14.98,14.98,0,0,1-4.879,1.241,12.936,12.936,0,0,1-6.684-1.587,11.055,11.055,0,0,1,4.668-7.907,10.839,10.839,0,0,1,6.905-2.24,1.478,1.478,0,0,1,.272,1.137q.014,4.038,0,8.077a1.622,1.622,0,0,1-.276,1.142C984.051,945.461,984.049,945.507,984.047,945.553Z" transform="translate(-968.444 -890.752)"/><path class="t" d="M1022.524,945.381q0-5.177,0-10.355a11.708,11.708,0,0,1,11.578,9.223c.047.252.094.5.141.755a8.389,8.389,0,0,1-8.732-.781c-.445-.3-.682-.325-1.09.011A4.907,4.907,0,0,1,1022.524,945.381Z" transform="translate(-1006.914 -890.718)"/><path class="u" d="M1021.584,1037.181a11.478,11.478,0,0,0,8.065-3.111c.193-.171.385-.343.577-.514.464.38,1.126.4,1.556.84q-4.242,6.158-8.483,12.316c-.519.755-1.025,1.519-1.537,2.278a.253.253,0,0,1-.313-.19,8.206,8.206,0,0,1-.146-1.711c.008-2.846,0-5.692.008-8.538a1.712,1.712,0,0,1,.286-1.31Z" transform="translate(-1005.975 -966.476)"/><path class="v" d="M1228.441,842.12a12.657,12.657,0,0,0,6.178,3.362,7.657,7.657,0,0,0,2.463.247l-.009.054a1.519,1.519,0,0,1,.279,1.143c.008,3.08,0,6.16.005,9.241a2.965,2.965,0,0,1-.288,1.335.183.183,0,0,1,.011.086c-1.026-1.206-1.839-2.564-2.739-3.859-2.493-3.591-4.956-7.2-7.43-10.808Z" transform="translate(-1164.042 -819.305)"/><path class="v" d="M988.645,1037.3q0,5.326-.013,10.651c0,.3.1.634-.134.908q-4.7-6.812-9.395-13.621c-.191-.276-.309-.626-.661-.767a3.359,3.359,0,0,1,1.7-.838,12.226,12.226,0,0,0,6.205,3.363C987.1,1037.139,987.878,1037.2,988.645,1037.3Z" transform="translate(-973.024 -966.539)"/><path class="u" d="M1270.842,857.487q0-5.859,0-11.718a12.068,12.068,0,0,0,8.531-3.667,6.405,6.405,0,0,1,1.542.778q-4.916,7.194-9.835,14.385A1.461,1.461,0,0,1,1270.842,857.487Z" transform="translate(-1197.815 -819.291)"/><path class="w" d="M1002.736,804.681c.1-.68-.377-1.732.191-2.263.517-.483,1.541-.114,2.341-.143.661-.023,1.326.025,1.985-.013.546-.031.69.194.679.705q-.041,1.9,0,3.8c.012.517-.147.716-.685.7-1.295-.031-2.591-.027-3.886,0-.5.01-.653-.19-.634-.662C1002.756,806.145,1002.736,805.482,1002.736,804.681Z" transform="translate(-991.631 -788.59)"/><path class="w" d="M1047.619,802.448c.2.006.4.017.6.018,1.97.01,1.97.01,1.97,2.025,0,.833-.032,1.668.01,2.5.033.655-.235.866-.861.832s-1.263.006-1.894.015a8.56,8.56,0,0,1-2.435-.173,1.726,1.726,0,0,1,1.314-.264c.632.017.871-.262.856-.879q-.034-1.42,0-2.841c.016-.7-.385-.787-.941-.782s-.965.089-.959.781c.008.947.008,1.894,0,2.841a1.558,1.558,0,0,1-.267,1.143c-.342-.529-.136-1.117-.16-1.675-.038-.892.037-1.789-.025-2.678-.05-.718.234-.908.893-.857.572.044,1.151,0,1.728,0A.415.415,0,0,0,1047.619,802.448Z" transform="translate(-1024.047 -788.803)"/><path class="w" d="M1188.712,1047.406c-.108.706.389,1.8-.2,2.345-.536.493-1.6.144-2.429.134s-1.884.371-2.411-.171c-.484-.5-.116-1.54-.141-2.342-.022-.691.016-1.384-.011-2.074-.017-.452.153-.6.6-.6,1.325.021,2.651.026,3.976,0,.514-.011.646.2.626.665C1188.692,1046,1188.712,1046.631,1188.712,1047.406Z" transform="translate(-1130.604 -975.042)"/><path class="w" d="M1231.138,1049.771c-.835.369-1.719.059-2.572.186-.659-.017-1.319-.055-1.978-.043-.422.007-.627-.092-.618-.572q.04-2.026,0-4.053c-.008-.467.177-.6.608-.578.66.03,1.321.02,1.982.028.326.319.261.737.268,1.128.017.941.011,1.883.005,2.824,0,.579.253.814.827.818C1230.162,1049.511,1230.7,1049.392,1231.138,1049.771Z" transform="translate(-1163.317 -975.051)"/><path class="w" d="M1239.715,1049.491a13.994,13.994,0,0,0-1.642.012c-.8.1-.973-.247-.945-.981.053-1.353.011-2.709.009-4.064a.317.317,0,0,0,.027-.114c.66.005,1.321.03,1.981.01.427-.013.623.1.613.573C1239.724,1046.448,1239.727,1047.97,1239.715,1049.491Z" transform="translate(-1171.894 -974.771)"/><path class="w" d="M1089.638,807.784c-.681-.1-1.732.374-2.266-.188-.488-.513-.117-1.54-.145-2.339-.024-.69.014-1.382-.011-2.072-.016-.456.171-.6.611-.6q1.986.027,3.973,0c.431-.006.625.123.618.588-.021,1.324-.023,2.649,0,3.973.009.495-.176.662-.656.641C1091.1,807.763,1090.439,807.784,1089.638,807.784Z" transform="translate(-1056.572 -788.914)"/><path class="w" d="M1273.331,1047.082c0,.662-.016,1.324.005,1.985.013.417-.083.635-.567.627-1.381-.025-2.763-.022-4.144,0-.455.007-.6-.167-.6-.607q.025-2.029,0-4.058c0-.421.107-.641.577-.636q2.072.025,4.144,0c.451-.005.608.175.591.617C1273.312,1045.7,1273.331,1046.391,1273.331,1047.082Z" transform="translate(-1195.65 -974.807)"/><path class="w" d="M1045.648,808.252c0-1.41.023-2.82-.007-4.229-.012-.57.121-.83.759-.81,2.038.063,1.639-.245,1.68,1.689.014.633.009,1.266,0,1.9-.021,1.647.22,1.418-1.4,1.441l-1.036.012Z" transform="translate(-1024.685 -789.393)"/></svg>