<svg width="99" height="99" viewBox="0 0 99 99" fill="none" xmlns="http://www.w3.org/2000/svg">
<path d="M49.5 0C22.1618 0 0 22.1618 0 49.5C0 76.8382 22.1618 99 49.5 99C76.8382 99 99 76.8382 99 49.5C99 22.1618 76.8382 0 49.5 0ZM49.5 92.6129C25.815 92.6129 6.3871 73.4406 6.3871 49.5C6.3871 25.8152 25.5594 6.3871 49.5 6.3871C73.185 6.3871 92.6129 25.5594 92.6129 49.5C92.6129 73.1848 73.4406 92.6129 49.5 92.6129ZM77.7689 37.7316L41.7457 73.4658C40.8066 74.3973 39.29 74.3913 38.3585 73.4522L21.2175 56.1727C20.286 55.2336 20.292 53.7171 21.2311 52.7856L22.9317 51.0988C23.8708 50.1673 25.3873 50.1732 26.3188 51.1123L40.0862 64.9909L72.7085 32.6303C73.6476 31.6988 75.1642 31.7048 76.0957 32.6439L77.7825 34.3444C78.7142 35.2835 78.708 36.8001 77.7689 37.7316Z" fill="url(#paint0_linear_281_14880)"/>
<defs>
<linearGradient id="paint0_linear_281_14880" x1="49.5" y1="0" x2="49.5" y2="99" gradientUnits="userSpaceOnUse">
<stop stop-color="#29ABE2"/>
<stop offset="1" stop-color="#373AAD"/>
</linearGradient>
</defs>
</svg>
