<svg width="220" height="219" viewBox="0 0 220 219" fill="none" xmlns="http://www.w3.org/2000/svg">
<path d="M110.03 0.5C49.8166 0.5 1.03027 49.2864 1.03027 109.5C1.03027 169.714 49.8166 218.5 110.03 218.5C170.244 218.5 219.03 169.714 219.03 109.5C219.03 49.2864 170.244 0.5 110.03 0.5ZM165.53 179.5V185.197C149.942 196.641 130.784 203.5 110.03 203.5C89.277 203.5 70.1189 196.641 54.5303 185.197V179.5C54.5303 164.332 66.8627 152 82.0303 152C83.168 152 84.4685 152.293 86.0686 152.759C86.7401 152.955 87.4551 153.178 88.2268 153.419C88.3707 153.464 88.5166 153.509 88.6645 153.555C89.6037 153.848 90.6211 154.161 91.7267 154.475C96.1564 155.731 101.989 156.988 110.03 156.988C118.093 156.988 123.915 155.731 128.334 154.475C129.437 154.161 130.452 153.848 131.389 153.555C131.53 153.511 131.67 153.467 131.809 153.424C132.585 153.181 133.304 152.956 133.98 152.759C135.578 152.293 136.881 152 138.03 152C153.198 152 165.53 164.332 165.53 179.5ZM82.0303 137C61.0033 137 43.7471 152.281 40.3121 172.314C25.2729 155.647 16.0303 133.671 16.0303 109.5C16.0303 57.6699 58.2002 15.5 110.03 15.5C161.86 15.5 204.03 57.6699 204.03 109.5C204.03 133.671 194.788 155.647 179.748 172.314C176.313 152.281 159.057 137 138.03 137C134.015 137 130.899 137.983 127.487 139.06C127.009 139.211 126.525 139.364 126.032 139.516C122.019 140.754 117.313 141.988 110.03 141.988C102.747 141.988 98.0525 140.754 94.0451 139.516C93.5574 139.365 93.0786 139.214 92.6055 139.065C89.1908 137.986 86.0698 137 82.0303 137ZM110.03 49.5C88.4916 49.5 71.0303 66.9614 71.0303 88.5C71.0303 110.039 88.4916 127.5 110.03 127.5C131.569 127.5 149.03 110.039 149.03 88.5C149.03 66.9614 131.569 49.5 110.03 49.5ZM110.03 112.5C96.7877 112.5 86.0303 101.743 86.0303 88.5C86.0303 75.2574 96.7877 64.5 110.03 64.5C123.273 64.5 134.03 75.2574 134.03 88.5C134.03 101.743 123.273 112.5 110.03 112.5Z" fill="#373AAD" stroke="#373AAD"/>
</svg>
