<svg xmlns="http://www.w3.org/2000/svg" width="99.771" height="99.688" viewBox="0 0 99.771 99.688"><defs><style>.a{fill:#29abe2;}.b{fill:#f1aa39;}.c{fill:#efa329;}.d{fill:#f1ad40;}.e{fill:#f7d092;}.f{fill:#f7cc89;}.g{fill:#f8d6a1;}.h{fill:#2983e2;}.i{fill:#3d41c2;}.j{fill:#494949;}.k{fill:#333;}.l{fill:#fed3a5;}.m{fill:#6b6fff;}.n{fill:#feba7d;}.o{fill:#594b65;}.p{fill:#2a2d85;}.q{fill:#eea26a;}.r{fill:#4a3e56;}</style></defs><path class="a" d="M980.4,205.91h1.168a2.048,2.048,0,0,0,1.363,0h.974a.452.452,0,0,0,.584,0h.584c1.453.218,2.926.187,4.383.337a38.385,38.385,0,0,1,10.455,2.88,49.508,49.508,0,0,1,15.709,10.195,50.218,50.218,0,0,1,10.342,13.859,44.592,44.592,0,0,1,4.585,14.176,57.447,57.447,0,0,1,.368,7.312c-.3.451-.61.2-.89,0a7.679,7.679,0,0,1-.847-.8q-14.609-14.574-29.188-29.178a5.655,5.655,0,0,1-.791-.857,4.625,4.625,0,0,0-2.018-1.768,22.591,22.591,0,0,0-8.562-6.648,41.292,41.292,0,0,0-7.571-2.373,65.979,65.979,0,0,0-9.481-.85,3.037,3.037,0,0,0-2.525,1.115,31.028,31.028,0,0,0-6.779,12.009,17.689,17.689,0,0,0-.029,8,5.531,5.531,0,0,1,.182,2.207c-.474.651-1.168,1.1-1.6,1.8a5.37,5.37,0,0,0-.86,3.678,23.722,23.722,0,0,1,.21,3.176,5.063,5.063,0,0,0,2.325,4.595,8.249,8.249,0,0,0,2.778,2.733c.739.793.747,1.895,1.176,2.827a15.849,15.849,0,0,0,3.239,4.772c.386.38.841.742.724,1.393a14.937,14.937,0,0,1,.122,2.854,1.554,1.554,0,0,1-.285,1.08,4.126,4.126,0,0,1-2.358.354,20.833,20.833,0,0,1-2.615-.065,2.731,2.731,0,0,0-1.141.868c-1.147,1.438-2.564,2.631-3.708,4.07a3.859,3.859,0,0,1-3.038,1.432,14.922,14.922,0,0,0-10.927,3.379,14.109,14.109,0,0,0-5.141,9.576c-.05.435-.132.838-.6,1.024-.731.059-.979-.545-1.3-1a48.908,48.908,0,0,1-4.554-8.218,47.786,47.786,0,0,1-2.982-9.11,44.66,44.66,0,0,1-.636-6.346.548.548,0,0,0-.1-.361v-.779a.256.256,0,0,0,0-.389v-.779a2.613,2.613,0,0,0,0-1.557v-2.142a1.535,1.535,0,0,0,0-1.168v-1.752c.23-1.3.2-2.614.316-3.92a37.593,37.593,0,0,1,2.917-10.755,49.623,49.623,0,0,1,10.015-15.511,50.907,50.907,0,0,1,14.263-10.64,46.945,46.945,0,0,1,12.11-4.16,47.677,47.677,0,0,1,5.477-.475c.22-.017.456.071.654-.1h.779a.256.256,0,0,0,.389,0h.973A2.048,2.048,0,0,0,980.4,205.91Z" transform="translate(-931.146 -205.91)"/><path class="b" d="M931.146,400.457a1.54,1.54,0,0,1,0,1.557Z" transform="translate(-931.146 -349.838)"/><path class="c" d="M1116.58,205.91a1.245,1.245,0,0,1-1.363,0Z" transform="translate(-1067.324 -205.91)"/><path class="c" d="M1126.308,205.91a1.245,1.245,0,0,1-1.363,0Z" transform="translate(-1074.521 -205.91)"/><path class="d" d="M931.146,387.736a.958.958,0,0,1,0,1.168Z" transform="translate(-931.146 -340.427)"/><path class="e" d="M1134.508,205.91c-.195.286-.389.221-.584,0Z" transform="translate(-1081.163 -205.91)"/><path class="f" d="M1110.369,205.91c-.13.186-.26.22-.389,0Z" transform="translate(-1063.449 -205.91)"/><path class="g" d="M931.146,409.436c.21.13.238.259,0,.389Z" transform="translate(-931.146 -356.481)"/><path class="h" d="M1202.1,299.7a48.39,48.39,0,0,1-5.7,24.249,34.467,34.467,0,0,1-3.78,5.965c-.557-.216-.581-.733-.648-1.2a14.614,14.614,0,0,0-14.709-12.786,21.115,21.115,0,0,1-2.711-.058,7.175,7.175,0,0,1-2.57-2.272c-1.02-1.242-2.293-2.243-3.273-3.521a1.224,1.224,0,0,0-.729-.448,30.344,30.344,0,0,1-3.832.057,1.985,1.985,0,0,1-1.09-.317c-.575-1.153-.26-2.374-.264-3.569,0-.252.1-.5.087-.757a1.272,1.272,0,0,1,.5-1.187,17.142,17.142,0,0,0,4.628-8.66,3.325,3.325,0,0,1,.553-1.109c.273-.239.611-.156.927-.19a3.886,3.886,0,0,0,3.591-3.791c.119-1.383.159-2.77.329-4.151.286-2.322-.855-4.029-2.518-5.478a6.855,6.855,0,0,1,.245-2.862,14.961,14.961,0,0,0-1.961-9.4c-.256-.479-.785-.925-.4-1.581a2.957,2.957,0,0,1,1.115.914q15.653,15.642,31.3,31.29C1201.477,299.138,1201.793,299.417,1202.1,299.7Z" transform="translate(-1102.459 -250.836)"/><path class="i" d="M1008.125,489.32a48.879,48.879,0,0,1-24.358-6.325,50.915,50.915,0,0,1-15.63-13.661,1,1,0,0,1-.315-.582,24.568,24.568,0,0,1,.832-4.182,15.117,15.117,0,0,1,13.9-10.213c.679-.024,1.359.006,2.039.011,1.737-.355,2.584.726,3.47,1.976,3.673,5.181,7.436,10.3,11.17,15.434.723.994.791.988,1.678.094,2.055-2.069,3.916-4.321,5.994-6.368.347-.341.665-.872,1.312-.525a.677.677,0,0,1,.161.3,8.445,8.445,0,0,1,.21,1.832c0,6.8.006,13.6-.012,20.406C1008.576,488.139,1008.736,488.835,1008.125,489.32Z" transform="translate(-958.278 -389.671)"/><path class="j" d="M1047.791,251.953c-.171-1.183-.3-2.374-.518-3.549-.846-4.616.479-8.77,2.675-12.741a37.133,37.133,0,0,1,5.135-7.046,1.355,1.355,0,0,1,1.058-.577,54.727,54.727,0,0,1,10.794,1.018,4.634,4.634,0,0,1,.241,1.721q0,8.124,0,16.248a3.762,3.762,0,0,1-.208,1.625c-.442.659-1.112.568-1.751.5a14,14,0,0,1-3.481-.864,4.682,4.682,0,0,0-6.452,3.548c-.446,1.957-.99,3.893-1.555,5.82-.312,1.063-.542,1.245-1.64,1.286-.874.033-1.749.035-2.623-.017-.533-.031-.972-.218-1.094-.779a35.813,35.813,0,0,1-.818-5.464A1.275,1.275,0,0,1,1047.791,251.953Z" transform="translate(-1016.867 -222.283)"/><path class="k" d="M1122.707,251.615q0-9.273-.008-18.546a1.636,1.636,0,0,1,.227-1.116c6.414,1.207,12.106,3.713,16.239,9.024a16.294,16.294,0,0,1,2.964,9.48c-.036,1.445-.337,2.883-.517,4.324a1.971,1.971,0,0,1,.208,1.588c-.188,1.379-.382,2.757-.592,4.133-.149.975-.484,1.268-1.474,1.326-.809.047-1.62.039-2.429.008-1.159-.044-1.382-.229-1.7-1.333-.523-1.8-.971-3.629-1.472-5.438-.1-.375-.2-.751-.328-1.118a4.464,4.464,0,0,0-5.782-3,29.418,29.418,0,0,1-3.738,1.045,1.909,1.909,0,0,1-1.413-.1A.522.522,0,0,1,1122.707,251.615Z" transform="translate(-1072.857 -225.177)"/><path class="l" d="M1042.54,307.063c.308,1.949.636,3.9.911,5.85.079.559.271.775.853.74a19.093,19.093,0,0,1,2.524,0c.7.052,1.017-.186,1.189-.885.535-2.165,1.119-4.32,1.73-6.466a4.885,4.885,0,0,1,6.511-3.474,14.416,14.416,0,0,0,5.208,1l-.014.059a1.153,1.153,0,0,1,.446,1.024q.069,4.953,0,9.905a1.713,1.713,0,0,1-.161.752,1.561,1.561,0,0,1-1.262.783,5.91,5.91,0,0,0-2.668,1.3,15.145,15.145,0,0,1-9.255,3.468,13.313,13.313,0,0,0-3.262.342c-.851-.249-1.869-.017-2.514-.866a4.688,4.688,0,0,1-2.571-4.438c-.014-1.322-.226-2.64-.279-3.963A5.175,5.175,0,0,1,1042.54,307.063Z" transform="translate(-1011.616 -277.393)"/><path class="m" d="M1055.642,447.572c-2.519,2.7-5.049,5.383-7.547,8.1-.539.586-.69.085-.92-.23q-3.863-5.3-7.716-10.605c-1.5-2.069-3.064-4.1-4.491-6.222a2.967,2.967,0,0,0-2.676-1.693,2.844,2.844,0,0,0,2.615-1.238c1.521-1.695,3.012-3.423,4.695-4.966a3.62,3.62,0,0,1,1.507,1.026,50.366,50.366,0,0,1,3.624,3.782,1.045,1.045,0,0,0,.413.251q.441.423.865.864c.8.883,1.613,1.749,2.439,2.6,2.03,2.1,4.1,4.15,6.173,6.209a7.036,7.036,0,0,1,1.3,1.677C1055.954,447.355,1055.811,447.472,1055.642,447.572Z" transform="translate(-1005.975 -372.224)"/><path class="l" d="M1059.487,358.777c.216-.519.682-.388,1.085-.417,1.319-.094,2.648-.109,3.954-.3a13.888,13.888,0,0,0,7.086-3.142,6.83,6.83,0,0,1,4.062-1.621l.16.106a1.981,1.981,0,0,1,.3,1.389q.026,8.584,0,17.168a2.951,2.951,0,0,1-.183,1.236c-.262.592-.816.592-1.324.595a13.257,13.257,0,0,1-5.282-1.154,19.574,19.574,0,0,1-3.076-1.662,3.4,3.4,0,0,1-1.5-1.708,17.362,17.362,0,0,1-5.038-8.6C1059.011,359.912,1058.962,359.534,1059.487,358.777Z" transform="translate(-1025.835 -314.951)"/><path class="n" d="M1079.366,414.685a16.02,16.02,0,0,0,10.9,4.09.442.442,0,0,1,.646.022,45,45,0,0,0-.2,5.221,1.521,1.521,0,0,1-.417,1.156,2.558,2.558,0,0,1-1.411.287c-2.3.018-4.6,0-6.9.009a4.249,4.249,0,0,1-1.873-.441,2.566,2.566,0,0,1-.77-.809c-.752-1.6-.412-3.28-.338-4.938.008-.191.188-.331.327-.466Z" transform="translate(-1040.426 -360.364)"/><path class="o" d="M1065.66,430.564q.006,2.7.011,5.4c-1.847-1.7-3.6-3.5-5.285-5.364Z" transform="translate(-1026.759 -372.112)"/><path class="h" d="M1053.395,372.591l.249,1.9c-.062.069-.175.2-.177.2a8.829,8.829,0,0,1-2.566-2.716,4.843,4.843,0,0,0,1.8.24A.651.651,0,0,1,1053.395,372.591Z" transform="translate(-1019.742 -328.766)"/><path class="p" d="M1122.723,489.3q0-12.149,0-24.3c.449-.281.729.039,1.008.3,1.535,1.438,2.887,3.052,4.326,4.583.686.729,1.367,1.466,2.073,2.175.639.641.8.623,1.349-.132q3.222-4.432,6.439-8.867c1.955-2.7,3.917-5.386,5.85-8.1a1.4,1.4,0,0,1,1.132-.641c3.432-.164,6.818-.024,9.935,1.666,5.062,2.744,7.681,7.07,8.2,12.743a37.711,37.711,0,0,1-5.741,6.679,49.387,49.387,0,0,1-26.355,13.276A36.684,36.684,0,0,1,1122.723,489.3Z" transform="translate(-1072.877 -389.648)"/><path class="n" d="M1122.688,315.52q0-5.926,0-11.852a16.638,16.638,0,0,0,4.795-1.064c2.691-.911,5.062-.118,6.332,2.044a7.967,7.967,0,0,1,.729,1.989c.543,1.988,1.088,3.977,1.58,5.978.16.648.438.912,1.121.855a11.711,11.711,0,0,1,2.229,0c.913.1,1.224-.268,1.325-1.144.213-1.858.531-3.7.806-5.554,2.2,1.3,2.844,3.319,2.651,5.726-.114,1.42-.253,2.839-.339,4.261a4.169,4.169,0,0,1-4.849,3.85,1.09,1.09,0,0,1-.86.386c-2.245-.246-4.535-.039-6.727-.823a15.317,15.317,0,0,1-4.7-2.479,8.243,8.243,0,0,0-3.164-1.645,1.759,1.759,0,0,1-.923-.5Z" transform="translate(-1072.849 -277.171)"/><path class="i" d="M1144.393,436.792q-4.07,5.559-8.14,11.119c-1.813,2.482-3.631,4.961-5.415,7.463-.407.571-.6.522-1.058.019-2.225-2.435-4.5-4.822-6.768-7.219-.242-.256-.531-.469-.8-.7l-.184,0,.171-.349.007-.135a4.071,4.071,0,0,1,1.1-1.564c2.011-1.973,3.99-3.979,5.974-5.979.862-.868,1.616-1.841,2.549-2.64a2.169,2.169,0,0,1,.2-.348c.317-.24.567-.554.87-.811,1-.9,1.858-1.95,2.853-2.857a9.338,9.338,0,0,1,2.655-2.209q2.567,2.711,5.136,5.421C1143.816,436.275,1144.111,436.527,1144.393,436.792Z" transform="translate(-1072.366 -372.12)"/><path class="n" d="M1122.69,353.4a5.507,5.507,0,0,1,3.759,1.319,15,15,0,0,0,9.915,3.546c.9-.009,1.8.129,2.7.2a18.168,18.168,0,0,1-3.68,8.476c-.569.7-1.2,1.341-1.8,2.009a3.419,3.419,0,0,1-1.378,1.688,17.994,17.994,0,0,1-7.439,3.144c-.533.094-1.1.237-1.516-.309l-.564-.037Q1122.689,363.416,1122.69,353.4Z" transform="translate(-1072.852 -315.021)"/><path class="q" d="M1123.245,417.69a17.462,17.462,0,0,0,10.333-4.522q.025,2.246.051,4.493c.122.15.31.286.319.477.079,1.664.413,3.347-.332,4.956a2.332,2.332,0,0,1-.753.8,2.784,2.784,0,0,1-1.123.278c-2.757,0-5.515.006-8.273-.006a1.21,1.21,0,0,1-.657-.14l-.13-.14c0-1.7.014-3.4,0-5.092C1122.673,418.306,1122.751,417.9,1123.245,417.69Z" transform="translate(-1072.843 -359.242)"/><path class="r" d="M1164.715,435.869q.007-2.716.013-5.433l5.263.036A65.085,65.085,0,0,1,1164.715,435.869Z" transform="translate(-1103.943 -372.017)"/><path class="l" d="M1083.656,454.373l10.154-.023h0a1.982,1.982,0,0,1,.242.3,2.662,2.662,0,0,1,.226,1.317c.013,2.283.006,4.566,0,6.849a3.255,3.255,0,0,1-.468,1.841l0,.056Q1088.593,459.679,1083.656,454.373Z" transform="translate(-1043.974 -389.708)"/><path class="n" d="M1122.7,464.85l.013-10.112a7.472,7.472,0,0,1,2.1-.09c2.314-.018,4.628-.011,6.943,0,.312,0,.645-.1.935.111C1129.436,458.2,1126.188,461.642,1122.7,464.85Z" transform="translate(-1072.859 -389.907)"/><path class="n" d="M1132.676,454.558l-9.979-.019c-.008-.063-.015-.126-.018-.19l10.184.009Z" transform="translate(-1072.844 -389.708)"/></svg>