<svg width="115" height="115" viewBox="0 0 115 115" fill="none" xmlns="http://www.w3.org/2000/svg">
<path d="M57.6072 114.36C89.1143 114.36 114.656 88.8178 114.656 57.3098C114.656 25.8017 89.1143 0.259399 57.6072 0.259399C26.1001 0.259399 0.558594 25.8017 0.558594 57.3098C0.558594 88.8178 26.1001 114.36 57.6072 114.36Z" fill="#29ABE2"/>
<path d="M60.2538 79.8564L70.3813 16.9033L114.535 61.058C113.905 70.6531 110.86 79.9333 105.683 88.0364C100.506 96.1395 93.3652 102.803 84.9236 107.407L60.2538 79.8564Z" fill="#2983E2"/>
<path d="M35.8505 102.968C35.8618 95.4878 35.8731 88.008 35.8844 80.5286V77.1394C35.9052 77.1238 35.93 77.1143 35.956 77.1119C35.9819 77.1096 36.0079 77.1144 36.0313 77.1259C36.4379 77.5382 36.3385 78.0669 36.3396 78.5595C36.3532 81.4696 36.3397 84.3797 36.3487 87.2899C36.3487 88.502 36.3961 88.5438 37.6026 88.5484C39.6518 88.5551 41.7011 88.5608 43.7503 88.5484C44.7117 88.5416 44.7874 88.4749 44.7908 87.544C44.8055 83.8917 44.7975 80.2394 44.7986 76.5859C44.7766 76.1426 44.6831 75.7058 44.5219 75.2923C44.7478 75.0912 45.0415 75.1692 45.3002 75.106C45.5261 75.1308 45.5658 75.2889 45.5725 75.4731C45.6855 78.5628 45.5951 81.6537 45.6222 84.7446C45.6312 85.7847 45.6312 86.8252 45.6222 87.866C45.6513 88.0724 45.6391 88.2826 45.5863 88.4843C45.5336 88.686 45.4414 88.8752 45.3149 89.0409C42.5009 89.0409 39.6869 89.0692 36.8729 89.0409C36.2018 89.0341 36.0199 89.2465 36.0221 89.9029C36.0459 94.2579 36.0301 98.6118 36.0221 102.967L35.8505 102.968Z" fill="#BECCD1"/>
<path d="M79.3232 77.1395C79.3292 85.363 79.3352 93.5865 79.3412 101.81C79.3412 102.196 79.356 102.582 79.3628 102.967H79.1843C79.1843 98.6424 79.1628 94.3167 79.1922 89.991C79.1922 89.2601 78.9979 89.0285 78.2512 89.0387C75.4676 89.076 72.6818 89.0466 69.8972 89.0387C69.7961 88.9297 69.718 88.8016 69.6676 88.6619C69.6171 88.5221 69.5953 88.3736 69.6034 88.2253C69.5955 83.9731 69.53 79.7208 69.6339 75.4675C69.643 75.2833 69.687 75.1286 69.9107 75.1049L70.0938 75.167C70.2406 75.3726 70.344 75.6059 70.3978 75.8527C70.4515 76.0996 70.4546 76.3548 70.4067 76.6028C70.4169 80.1343 70.4067 83.6669 70.4135 87.1984C70.4135 88.5292 70.4338 88.5439 71.7477 88.5473C73.6771 88.5518 75.6062 88.5518 77.5349 88.5473C78.8442 88.5473 78.8544 88.5349 78.8567 87.1916C78.8567 84.3131 78.8566 81.4301 78.8645 78.555C78.8645 78.0624 78.7696 77.5382 79.1763 77.1225C79.2 77.1117 79.2263 77.1076 79.2522 77.1106C79.278 77.1136 79.3025 77.1236 79.3232 77.1395Z" fill="#BECCD1"/>
<path d="M76.1383 36.5965L76.1869 37.4348C76.4999 37.9787 76.5929 38.6218 76.4467 39.2321C76.2789 42.5965 75.8537 45.9431 75.1747 49.2425C75.1275 49.6873 74.9106 50.0968 74.5692 50.3858C73.4203 55.2604 71.6015 59.7951 67.9267 63.3774C67.2327 64.107 66.4237 64.7176 65.5318 65.1849C65.244 65.6958 64.7753 66.0803 64.218 66.2627C62.1361 67.182 59.8851 67.6568 57.6093 67.6568C55.3334 67.6568 53.0826 67.182 51.0007 66.2627C50.4433 66.0812 49.9743 65.6975 49.6858 65.1872C47.524 63.8822 45.7205 62.0604 44.4374 59.8855C42.6251 56.9702 41.3424 53.7577 40.6484 50.3959C40.3067 50.1063 40.0867 49.6985 40.0327 49.2538C39.4792 46.6815 39.116 44.072 38.9459 41.4463C38.8159 40.4795 38.7526 39.5049 38.7562 38.5294C38.7134 38.1452 38.811 37.7585 39.0307 37.4404L39.0793 36.6022C39.2278 36.5855 39.3782 36.608 39.5153 36.6675C39.6524 36.7269 39.7716 36.8213 39.861 36.9411C41.438 38.3825 43.5007 39.176 45.6371 39.1632C48.0429 39.3434 50.4616 39.094 52.78 38.4266C56.139 37.4435 59.7159 37.4927 63.0465 38.5679C65.6334 39.2847 68.3455 39.4285 70.9937 38.9892C72.6027 38.8108 74.1098 38.1128 75.2865 37.0009C75.5192 36.7784 75.761 36.5344 76.1383 36.5965Z" fill="#FCD6AC"/>
<path d="M49.687 65.1882C51.7064 66.4977 54.0468 67.2273 56.4526 67.2974C59.2104 67.5397 61.9822 67.0298 64.4733 65.822C64.837 65.6333 65.177 65.3995 65.5284 65.186C65.4062 66.1553 65.5083 67.1397 65.8266 68.0633C66.2778 70.8339 67.732 73.3418 69.9126 75.1093L69.7466 75.2991C69.7029 75.4878 69.62 75.6652 69.5032 75.8198C69.3864 75.9743 69.2384 76.1025 69.0688 76.1961C65.7963 78.6428 61.8265 79.9776 57.7406 80.005C53.6547 80.0325 49.6674 78.7511 46.3623 76.3486C45.9771 76.0775 45.5534 75.8256 45.4721 75.2924L45.306 75.1071C48.3076 72.7641 49.3029 69.4506 49.757 65.8819C49.7601 65.6487 49.7366 65.416 49.687 65.1882Z" fill="#FEBA7D"/>
<path d="M39.0317 37.4405C39.0988 41.6282 39.5909 45.7983 40.5003 49.8865C40.541 50.0594 40.6008 50.2255 40.6516 50.396C40.1839 50.3192 39.7152 50.248 39.2486 50.1633C38.2542 50.0357 37.3185 49.621 36.5561 48.9699C35.7937 48.3188 35.2375 47.4596 34.9558 46.4974C34.3116 44.5083 34.1995 42.3853 34.6305 40.3394C35.0993 38.0381 36.5735 37.1027 39.0317 37.4405Z" fill="#F8C694"/>
<path d="M74.5717 50.3915C75.1711 47.9917 75.5865 45.5497 75.8143 43.0868C76.0052 41.2081 76.1531 39.3293 76.187 37.4382C78.7728 37.0801 80.1849 38.0878 80.6424 40.6861C80.9996 42.6233 80.8689 44.6189 80.2618 46.4928C79.9729 47.4842 79.3929 48.366 78.5968 49.0237C77.8007 49.6814 76.8254 50.0847 75.7973 50.1814C75.3895 50.2469 74.9806 50.3226 74.5717 50.3915Z" fill="#F8C694"/>
<path d="M57.8692 37.6109C59.3242 37.5567 63.4939 35.713 67.3178 35.6746C68.2362 35.6656 75.1611 36.6744 76.0796 36.7456C76.4433 47.8088 72.6295 57.826 70.5611 60.3509C69.9804 61.0603 69.3365 61.7189 68.7219 62.4001C68.4538 63.1119 67.9602 63.7166 67.3166 64.1218C65.2018 65.7243 62.7352 66.7991 60.1217 67.2568C59.5783 67.3528 57.7821 67.4827 57.5901 67.4725C57.5923 60.6593 57.8692 44.4276 57.8692 37.6109Z" fill="#FEBA7D"/>
<path d="M58.1449 11.6514C58.4287 11.8245 58.6716 12.0572 58.8567 12.3334C59.0418 12.6096 59.1646 12.9227 59.2169 13.251C59.4453 13.6347 59.5533 14.0782 59.5267 14.524C59.5002 14.9698 59.3402 15.3973 59.0678 15.7511C58.9117 15.9962 58.6963 16.1981 58.4415 16.3379C58.1867 16.4777 57.9006 16.551 57.6099 16.551C57.3193 16.551 57.0334 16.4777 56.7786 16.3379C56.5237 16.1981 56.3082 15.9962 56.1521 15.7511C55.8797 15.3973 55.7199 14.9698 55.6933 14.524C55.6667 14.0782 55.7746 13.6347 56.003 13.251C56.0542 12.9223 56.1766 12.6088 56.3618 12.3324C56.547 12.0561 56.7905 11.8236 57.075 11.6514H58.1449Z" fill="#F2D45A"/>
<path d="M56.0032 13.251C55.9775 13.8663 56.0153 14.4827 56.1161 15.0902C56.1958 15.4275 56.387 15.728 56.6588 15.943C56.9305 16.1581 57.2669 16.2751 57.6135 16.2751C57.96 16.2751 58.2965 16.1581 58.5683 15.943C58.84 15.728 59.0312 15.4275 59.1109 15.0902C59.2105 14.4825 59.2483 13.8663 59.2239 13.251C62.4373 13.2987 65.594 14.1054 68.4364 15.6054C72.9766 18.1325 75.2619 22.204 76.1544 27.1634C76.7253 30.1714 76.7253 33.2598 76.1544 36.2678C75.803 36.505 75.5319 36.261 75.2675 36.096C73.5243 35.03 71.6314 34.2304 69.6518 33.7236C68.7888 33.4977 68.1923 33.1181 68.1279 32.1647C67.8726 28.9331 66.9372 25.792 65.3829 22.9473C64.8293 22.0001 64.1751 21.1153 63.4319 20.3083C63.3182 20.1611 63.1761 20.0383 63.0139 19.9473C62.8517 19.8563 62.6727 19.799 62.4878 19.7787C62.3029 19.7585 62.1159 19.7757 61.9379 19.8295C61.7598 19.8832 61.5944 19.9723 61.4516 20.0914C61.3169 20.2122 61.2101 20.361 61.1389 20.5273C61.0676 20.6936 61.0335 20.8735 61.039 21.0543C61.0445 21.2352 61.0895 21.4127 61.1707 21.5744C61.2519 21.7361 61.3673 21.8781 61.5091 21.9905C63.8021 24.6691 65.1886 28.0048 65.4699 31.5196C65.5196 31.9161 65.637 32.3612 65.1512 32.6165C63.7013 32.5912 62.255 32.4659 60.8224 32.2415C57.6905 32.0056 54.5422 32.109 51.4325 32.5499C50.9971 32.6353 50.552 32.6612 50.1096 32.6267C49.6284 32.4358 49.695 32.0155 49.7413 31.645C50.0178 28.126 51.3863 24.7811 53.6557 22.0775C53.7369 21.9893 53.8123 21.8961 53.8816 21.7984C53.9994 21.673 54.0898 21.5244 54.1472 21.3621C54.2046 21.1999 54.2277 21.0275 54.2149 20.8558C54.2022 20.6842 54.1539 20.5171 54.0732 20.3651C53.9924 20.2131 53.8811 20.0795 53.7461 19.9728C53.6226 19.8629 53.4781 19.7794 53.3212 19.7275C53.1643 19.6755 52.9983 19.6562 52.8337 19.6707C52.6691 19.6852 52.5091 19.7332 52.3637 19.8118C52.2184 19.8903 52.0906 19.9978 51.9882 20.1276C51.3762 20.7335 50.8289 21.4014 50.3548 22.1204C48.6019 24.8568 47.5182 27.9677 47.1917 31.201C47.1657 31.4066 47.1454 31.6145 47.1002 31.8178C47.1737 33.117 46.4134 33.5485 45.2667 33.8298C43.391 34.2983 41.6012 35.0608 39.9641 36.0893C39.6986 36.2553 39.424 36.496 39.0716 36.2599C38.0876 29.1901 38.7011 22.5327 44.3291 17.3338C46.992 15.0664 50.3043 13.7001 53.7913 13.4307C54.5222 13.3448 55.2644 13.3087 56.0032 13.251Z" fill="#EFC319"/>
<path d="M68.3208 32.1535C68.4541 32.9804 68.9614 33.2662 69.7669 33.4843C71.8954 34.0086 73.9177 34.8956 75.7451 36.1063C75.8734 36.1751 76.0091 36.2293 76.1496 36.2679C76.1458 36.3793 76.1417 36.4923 76.1371 36.6068C75.2398 37.5608 74.1484 38.3114 72.9365 38.8079C71.7246 39.3045 70.4204 39.5355 69.1117 39.4853C66.7075 39.5927 64.3022 39.2987 61.9947 38.6154C58.7731 37.7188 55.3567 37.8089 52.1868 38.8741C49.4879 39.6266 46.6532 39.7553 43.8972 39.2503C42.0258 38.9776 40.3156 38.039 39.0804 36.6068C39.0804 36.4938 39.0725 36.3808 39.0691 36.2679C40.8473 35.1743 42.755 34.3068 44.7479 33.6853C44.8044 33.6695 44.8609 33.6345 44.9129 33.6232C45.9477 33.4199 46.9734 33.2086 46.9011 31.7976C47.1892 32.637 47.7472 32.7432 48.5267 32.4754C48.9786 32.3184 49.4847 32.1218 49.9422 32.5229C51.1146 32.2536 52.307 32.0802 53.5075 32.0043C55.4398 31.7503 57.3928 31.694 59.3365 31.836C61.3326 31.8878 63.3201 32.1176 65.2753 32.5229C65.8921 32.062 66.5179 32.4167 67.1155 32.5511C67.3317 32.6314 67.5688 32.6358 67.7879 32.5635C68.0069 32.4912 68.1948 32.3466 68.3208 32.1535Z" fill="#F19B1F"/>
<path d="M49.9424 32.5182C49.2024 32.5215 48.4686 32.6545 47.7745 32.9114C46.9837 33.1102 46.829 32.8312 46.9081 32.1533C46.9141 32.0351 46.9118 31.9165 46.9013 31.7986C47.1278 27.4987 48.7679 23.3939 51.5669 20.1219C51.6945 19.9287 51.8613 19.7646 52.0566 19.6402C52.2518 19.5157 52.471 19.4338 52.7 19.3997C52.929 19.3656 53.1626 19.3801 53.3857 19.4422C53.6087 19.5044 53.8161 19.6128 53.9945 19.7604C54.17 19.9129 54.3095 20.1024 54.4031 20.3153C54.4966 20.5281 54.542 20.759 54.5357 20.9914C54.5295 21.2239 54.4718 21.452 54.367 21.6595C54.2621 21.867 54.1124 22.0487 53.929 22.1915C51.2483 25.1152 50.2576 28.6851 49.9424 32.5182Z" fill="#E47E25"/>
<path d="M68.3233 32.1534C68.4171 32.9442 68.1132 33.1317 67.3631 32.8821C66.6937 32.6404 65.9872 32.5173 65.2755 32.5183C64.9648 28.6954 64.0035 25.1255 61.3149 22.2142C61.1329 22.0715 60.9855 21.8896 60.8838 21.6819C60.7821 21.4742 60.7288 21.2462 60.7277 21.0149C60.7266 20.7837 60.7778 20.5552 60.8776 20.3466C60.9773 20.1379 61.1229 19.9546 61.3035 19.8102C61.4799 19.6753 61.6813 19.5768 61.896 19.5203C62.1107 19.4638 62.3344 19.4504 62.5543 19.481C62.7742 19.5116 62.9859 19.5855 63.1771 19.6984C63.3682 19.8114 63.5351 19.9611 63.668 20.1389C66.5126 23.5146 68.1507 27.7423 68.3233 32.1534Z" fill="#E47E25"/>
<path d="M57.6741 80.0168H57.6199V67.3324H57.83C60.1621 67.3929 62.4727 66.874 64.555 65.822C64.8001 65.6921 65.0385 65.5396 65.2689 65.3916C65.3762 65.3238 65.4858 65.2538 65.5954 65.186C65.4661 65.9696 65.5253 66.7728 65.7682 67.529C65.81 67.7052 65.853 67.886 65.8902 68.0645C66.3287 70.8262 67.7619 73.3322 69.9198 75.1105L69.8622 75.176L69.7492 75.2991C69.7081 75.4878 69.6272 75.6656 69.5119 75.8205C69.3965 75.9754 69.2494 76.1038 69.0804 76.1973C66.3764 78.2513 63.1645 79.531 59.7889 79.8993C59.0866 79.9766 58.3806 80.0158 57.6741 80.0168Z" fill="#EEA26A"/>
<path d="M45.4712 75.2935C48.86 78.1735 53.1621 79.7553 57.6094 79.7565C62.0567 79.7578 66.3597 78.1784 69.7502 75.3003C69.8218 75.3538 69.8772 75.4259 69.9105 75.5088C69.9437 75.5917 69.9536 75.6821 69.9389 75.7703C69.9283 80.195 69.9163 84.6193 69.9027 89.0432H45.3164C45.3044 84.617 45.2927 80.1908 45.2814 75.7646C45.2672 75.6763 45.2773 75.5857 45.3108 75.5026C45.3442 75.4196 45.3996 75.3473 45.4712 75.2935Z" fill="#3D41C2"/>
<path d="M69.9025 89.0431H57.4456V79.7546H57.5732C62.0289 79.7436 66.3389 78.1669 69.75 75.3002C69.8218 75.3531 69.8775 75.425 69.9108 75.5078C69.9441 75.5906 69.9537 75.681 69.9386 75.769C69.9273 80.1937 69.9153 84.618 69.9025 89.042V89.0431Z" fill="#2A2D85"/>
<path d="M21.5365 101.511C21.8291 98.4606 22.1194 95.4025 22.4549 92.3602C23.2626 85.0171 27.0866 79.6148 32.4119 78.1078C33.5709 77.779 34.7311 77.4672 35.8913 77.1475C36.1155 77.6629 36.1911 78.2307 36.1093 78.7867C36.1172 83.1 36.2438 87.4222 36.0833 91.7242C35.8574 97.8551 35.9964 103.984 35.9568 110.111C30.752 107.972 25.8925 105.074 21.5365 101.511Z" fill="#3D41C2"/>
<path d="M79.2824 110.026C79.4157 99.6605 79.0283 89.2988 79.1141 78.9326C79.0206 78.3265 79.0953 77.7064 79.3299 77.1398C80.8086 77.551 82.3032 77.8797 83.7627 78.3824C88.8666 80.155 92.3144 85.6939 92.9346 92.8156C93.1846 95.6926 93.4618 98.5655 93.766 101.434C89.3944 105.023 84.5131 107.941 79.2824 110.092C79.2824 110.074 79.2824 110.049 79.2824 110.026Z" fill="#2A2D85"/>
<path d="M44.5278 75.2947C44.9797 75.2947 45.1299 75.5206 45.1288 75.9725C45.116 80.0673 45.116 84.1621 45.1288 88.257C45.1288 88.7089 44.9606 88.8896 44.5008 88.8874C41.8901 88.8761 39.2782 88.8682 36.6675 88.8874C35.9491 88.893 36.0396 88.4355 36.0396 87.9926C36.0396 84.3723 36.0396 80.7523 36.0396 77.1327C38.4616 76.5912 40.884 76.0508 43.3067 75.5116C43.7089 75.4212 44.12 75.3658 44.5278 75.2947Z" fill="#D0D3D0"/>
<path d="M79.1829 77.1251C79.1829 80.7401 79.1672 84.3653 79.1988 87.9849C79.2044 88.6876 79.001 88.9045 78.295 88.8887C75.8624 88.8488 73.4295 88.8488 70.9962 88.8887C70.2992 88.8989 70.08 88.6989 70.0857 87.9849C70.1162 83.7124 70.1015 79.4398 70.1015 75.1661C72.5574 75.5367 74.9591 76.1682 77.389 76.672C78.0044 76.7431 78.6076 76.8954 79.1829 77.1251Z" fill="#D0D3D0"/>
<path d="M35.7696 110.031C35.7696 103.794 35.7696 97.558 35.7696 91.322C35.7696 89.1213 35.9096 88.875 37.1037 88.8626C38.3769 88.8502 39.65 88.8524 40.922 88.8547C42.377 88.8547 43.8321 88.8547 45.2871 88.8412C45.6341 88.7519 45.992 88.7119 46.3501 88.7225C53.8481 88.7286 61.3469 88.7286 68.8465 88.7225C69.2044 88.7091 69.5624 88.7472 69.9095 88.8355C71.4154 88.8604 72.9212 88.857 74.4282 88.8524C75.6516 88.8524 76.8751 88.8468 78.0997 88.8592C79.3039 88.8717 79.4417 89.1157 79.4451 91.3005C79.4519 97.5418 79.4519 103.783 79.4451 110.025C65.4571 115.799 49.7519 115.799 35.7639 110.025L35.7696 110.031Z" fill="#EBEFF0"/>
<path d="M40.6563 95.2659C40.635 95.0658 40.6564 94.8635 40.7192 94.6723C40.7819 94.4811 40.8846 94.3054 41.0204 94.1568C41.1561 94.0083 41.3218 93.8903 41.5066 93.8106C41.6914 93.7309 41.8909 93.6913 42.0921 93.6945C42.4947 93.7048 42.8797 93.8622 43.1742 94.1369C43.4687 94.4117 43.6524 94.7848 43.6907 95.1857C43.6899 95.5894 43.5315 95.9768 43.2491 96.2654C42.9667 96.5539 42.5827 96.7206 42.1791 96.73C41.9795 96.7487 41.7783 96.7241 41.5891 96.6579C41.3998 96.5917 41.2271 96.4856 41.0826 96.3466C40.938 96.2077 40.8251 96.0392 40.7516 95.8527C40.678 95.6663 40.6455 95.4661 40.6563 95.2659Z" fill="#BDC2C6"/>
<path d="M74.5639 95.2658C74.5712 95.4665 74.5359 95.6663 74.4601 95.8522C74.3843 96.0381 74.2698 96.2058 74.1243 96.3441C73.9788 96.4825 73.8056 96.5883 73.6161 96.6546C73.4267 96.7209 73.2252 96.7462 73.0252 96.7288C72.6228 96.7158 72.2413 96.5462 71.9622 96.256C71.683 95.9659 71.5281 95.5781 71.5307 95.1754C71.5716 94.7757 71.757 94.4046 72.0522 94.1319C72.3474 93.8592 72.732 93.7036 73.1338 93.6944C73.3344 93.6922 73.5332 93.7325 73.7172 93.8126C73.9012 93.8927 74.0663 94.0108 74.2014 94.1593C74.3365 94.3077 74.4385 94.483 74.501 94.6737C74.5635 94.8645 74.585 95.0663 74.5639 95.2658Z" fill="#BDC2C6"/>
</svg>
