<svg width="107" height="106" viewBox="0 0 107 106" fill="none" xmlns="http://www.w3.org/2000/svg">
<path d="M52.9091 0.661255H54.1404C54.6053 0.825192 55.1124 0.825192 55.5773 0.661255H56.604C56.6901 0.73402 56.7991 0.773951 56.9118 0.773951C57.0245 0.773951 57.1336 0.73402 57.2196 0.661255H57.8353C59.367 0.890905 60.9198 0.858238 62.4557 1.01625C66.2546 1.50126 69.9655 2.52276 73.4771 4.05017C79.6306 6.54472 85.2511 10.1899 90.0371 14.79C94.4886 18.99 98.1774 23.9298 100.939 29.3897C103.377 34.0614 105.011 39.1097 105.773 44.3233C106.066 46.88 106.195 49.4528 106.161 52.026C105.844 52.5011 105.518 52.2367 105.222 52.026C104.904 51.7681 104.605 51.4864 104.33 51.1833C94.0626 40.948 83.8062 30.7023 73.5603 20.4459C73.252 20.1745 72.9725 19.872 72.7265 19.5431C72.2171 18.7259 71.4769 18.0778 70.5992 17.6807C68.204 14.6488 65.1062 12.2452 61.5734 10.6774C58.9995 9.59003 56.3267 8.75289 53.5922 8.17756C50.2866 7.639 46.9464 7.33975 43.5976 7.28214C43.0926 7.2539 42.5882 7.34561 42.1255 7.54978C41.6628 7.75394 41.2551 8.06475 40.9358 8.45672C37.6343 12.0846 35.1919 16.4083 33.7896 21.1075C33.1355 23.8775 33.125 26.7604 33.759 29.535C33.9791 30.2892 34.0444 31.08 33.9509 31.86C33.4512 32.5458 32.7196 33.0188 32.2642 33.7562C31.5024 34.8954 31.1803 36.2721 31.3576 37.6307C31.5063 38.7398 31.5802 39.8575 31.579 40.9765C31.5169 41.9286 31.7115 42.88 32.1426 43.7314C32.5737 44.5828 33.2255 45.303 34.03 45.817C34.762 46.9967 35.7661 47.9839 36.9584 48.6961C37.7374 49.5315 37.7459 50.6924 38.1981 51.6742C39.019 53.5444 40.1764 55.2483 41.6126 56.7012C42.0195 57.1015 42.4992 57.4829 42.3758 58.1687C42.5147 59.1644 42.5578 60.1712 42.5045 61.1752C42.5489 61.5785 42.4418 61.984 42.204 62.3129C41.4302 62.6789 40.5655 62.8087 39.7183 62.6858C38.7989 62.7207 37.8781 62.6978 36.9616 62.6173C36.4863 62.8096 36.071 63.1253 35.7588 63.5317C34.5496 65.0466 33.0558 66.3033 31.8499 67.8192C31.4643 68.2956 30.976 68.6787 30.4214 68.9399C29.8668 69.2011 29.2604 69.3337 28.6473 69.3278C26.5874 69.1349 24.5096 69.3501 22.533 69.9609C20.5564 70.5717 18.7198 71.5662 17.1284 72.8873C15.6025 74.1272 14.3378 75.6572 13.4076 77.3888C12.4773 79.1203 11.9 81.0191 11.7089 82.9751C11.6562 83.4334 11.5697 83.8579 11.0763 84.0538C10.3057 84.116 10.0443 83.4797 9.70593 83.0004C7.83139 80.2753 6.22372 77.3762 4.90521 74.3432C3.53813 71.2576 2.48499 68.0425 1.76167 64.7463C1.37904 62.5368 1.155 60.3027 1.09123 58.0612C1.10189 57.926 1.06459 57.7913 0.98584 57.6809V56.8603C1.01544 56.835 1.03916 56.8035 1.05546 56.7682C1.07175 56.7328 1.08023 56.6943 1.08023 56.6554C1.08023 56.6165 1.07175 56.578 1.05546 56.5426C1.03916 56.5072 1.01544 56.4758 0.98584 56.4505V55.6299C1.15263 55.0958 1.15263 54.5237 0.98584 53.9896V51.7332C1.14809 51.3391 1.14809 50.8969 0.98584 50.5028V48.6571C1.2283 47.2876 1.19665 45.9034 1.31894 44.5276C1.77501 40.6193 2.8114 36.8008 4.39395 33.1979C6.85925 27.1392 10.4404 21.5966 14.9515 16.8579C19.266 12.2686 24.3556 8.4744 29.9872 5.6493C34.0223 3.61273 38.3175 2.13824 42.7532 1.26698C44.6665 0.98935 46.5943 0.822271 48.5269 0.766589C48.7588 0.748681 49.0076 0.841393 49.2163 0.661255H50.0376C50.0629 0.690839 50.0943 0.714588 50.1297 0.730872C50.1651 0.747157 50.2036 0.755579 50.2426 0.755579C50.2815 0.755579 50.32 0.747157 50.3554 0.730872C50.3908 0.714588 50.4223 0.690839 50.4476 0.661255H51.4734C51.9379 0.824944 52.4446 0.824944 52.9091 0.661255Z" fill="#29ABE2"/>
<path d="M0.986816 53.9854C1.13263 54.2342 1.20947 54.5172 1.20947 54.8055C1.20947 55.0938 1.13263 55.3769 0.986816 55.6256V53.9854Z" fill="#F1AA39"/>
<path d="M52.9111 0.661255C52.6976 0.800851 52.448 0.875191 52.1928 0.875191C51.9376 0.875191 51.6879 0.800851 51.4744 0.661255H52.9111Z" fill="#EFA329"/>
<path d="M55.5794 0.661255C55.3658 0.800851 55.1162 0.875191 54.861 0.875191C54.6058 0.875191 54.3561 0.800851 54.1426 0.661255H55.5794Z" fill="#EFA329"/>
<path d="M0.986816 50.4985C1.12255 50.6749 1.19617 50.8912 1.19617 51.1138C1.19617 51.3363 1.12255 51.5525 0.986816 51.7289V50.4985Z" fill="#F1AD40"/>
<path d="M57.2218 0.661255C57.0162 0.962535 56.8116 0.894063 56.606 0.661255H57.2218Z" fill="#F7D092"/>
<path d="M50.4487 0.661255C50.3117 0.857196 50.1746 0.893013 50.0386 0.661255H50.4487Z" fill="#F7CC89"/>
<path d="M0.986816 56.4463C1.20816 56.5832 1.23767 56.7191 0.986816 56.8561V56.4463Z" fill="#F8D6A1"/>
<path d="M106.026 52.1367C106.288 61.0297 104.216 69.8365 100.017 77.6816C98.9076 79.907 97.5723 82.0126 96.0322 83.9653C95.4451 83.7378 95.4198 83.1932 95.3492 82.7012C94.8755 78.9431 93.0318 75.4914 90.1711 73.0064C87.3104 70.5214 83.6333 69.1776 79.8432 69.2319C78.8903 69.2727 77.9358 69.2523 76.9854 69.1708C75.902 68.6036 74.9724 67.7823 74.2763 66.7774C73.201 65.469 71.859 64.4145 70.8259 63.0682C70.6349 62.8236 70.362 62.6561 70.0574 62.5963C68.7135 62.7013 67.3642 62.7214 66.0178 62.6563C65.6104 62.6591 65.2111 62.5431 64.8687 62.3224C64.2626 61.1077 64.5946 59.8215 64.5904 58.5626C64.5904 58.2972 64.6959 58.0359 64.6822 57.7652C64.6507 57.5287 64.6829 57.2882 64.7756 57.0684C64.8682 56.8485 65.018 56.6574 65.2092 56.5147C67.6909 54.0142 69.3868 50.8432 70.088 47.392C70.2074 46.9695 70.4051 46.5731 70.671 46.2237C70.9587 45.9719 71.3151 46.0593 71.6482 46.0235C72.6628 45.9466 73.6124 45.495 74.3122 44.7568C75.0119 44.0186 75.4117 43.0465 75.4337 42.0299C75.5591 40.573 75.6014 39.1119 75.7806 37.6571C76.0821 35.211 74.8792 33.4127 73.1261 31.8863C72.9982 30.8744 73.0862 29.8468 73.3844 28.8714C73.8028 25.4333 73.0764 21.9532 71.3172 18.969C71.0473 18.4644 70.4896 17.9946 70.8955 17.3035C71.3608 17.5226 71.7646 17.8534 72.0709 18.2664C83.0716 29.2517 94.07 40.2391 105.066 51.2286C105.369 51.5446 105.702 51.8385 106.026 52.1367Z" fill="#2983E2"/>
<path d="M53.5341 105.636C44.5397 105.692 35.6871 103.395 27.8566 98.9727C21.4337 95.3573 15.8249 90.4585 11.3799 84.5816C11.2028 84.4208 11.0857 84.2046 11.0479 83.9685C11.2119 82.4774 11.5053 81.0033 11.9249 79.563C12.9781 76.4905 14.9462 73.8132 17.5652 71.8902C20.1842 69.9672 23.3291 68.8904 26.5779 68.8042C27.2937 68.7789 28.0105 68.8105 28.7274 68.8158C30.5585 68.4418 31.4513 69.5806 32.3853 70.8974C36.2573 76.3553 40.2241 81.7479 44.1604 87.1562C44.9226 88.2034 44.9943 88.197 45.9293 87.2553C48.0957 85.0757 50.0575 82.7033 52.2481 80.5469C52.6139 80.1877 52.949 79.6283 53.6311 79.9939C53.7137 80.0831 53.7721 80.1918 53.8008 80.3099C53.9449 80.9432 54.0191 81.5904 54.0222 82.2398C54.0222 89.4032 54.0285 96.5666 54.0095 103.736C54.0095 104.392 54.1782 105.125 53.5341 105.636Z" fill="#3D41C2"/>
<path d="M33.5862 31.9169C33.406 30.6707 33.2699 29.416 33.0401 28.1782C32.1483 23.3155 33.5451 18.9395 35.8601 14.7563C37.3665 12.0783 39.1834 9.58696 41.2732 7.33378C41.3996 7.15335 41.566 7.00458 41.7595 6.89913C41.953 6.79368 42.1683 6.7344 42.3885 6.72593C46.2076 6.70615 50.0193 7.06539 53.7673 7.79834C53.9657 8.38125 54.0518 8.9964 54.0214 9.61133C54.0214 15.3168 54.0214 21.0222 54.0214 26.7276C54.075 27.3074 54.0001 27.8919 53.8021 28.4395C53.3361 29.1337 52.6299 29.0378 51.9563 28.9662C50.6991 28.8213 49.4657 28.5154 48.2866 28.056C47.5987 27.7637 46.8534 27.6313 46.1068 27.6689C45.3603 27.7065 44.6319 27.9131 43.9769 28.2731C43.3219 28.633 42.7573 29.1369 42.3256 29.7468C41.894 30.3567 41.6066 31.0566 41.4852 31.7936C41.015 33.8552 40.4415 35.8947 39.8459 37.9247C39.517 39.0445 39.2745 39.2362 38.117 39.2794C37.1957 39.3141 36.2732 39.3163 35.3519 39.2615C34.79 39.2288 34.3272 39.0318 34.1986 38.4409C33.7633 36.5472 33.475 34.6229 33.3363 32.6849C33.3388 32.4093 33.4261 32.1412 33.5862 31.9169Z" fill="#494949"/>
<path d="M53.5374 28.5121C53.5374 21.9998 53.5346 15.4874 53.5289 8.97502C53.4652 8.56714 53.5502 8.14997 53.7683 7.79938C60.5297 9.07088 66.5301 11.7108 70.887 17.3056C72.9432 20.2284 74.0355 23.7196 74.0116 27.2923C73.9736 28.8145 73.6564 30.3293 73.4666 31.8473C73.6183 32.0953 73.7161 32.3723 73.7538 32.6605C73.7916 32.9487 73.7684 33.2415 73.6858 33.5202C73.4876 34.9729 73.2831 36.4246 73.0618 37.8741C72.9047 38.9012 72.5515 39.2098 71.5079 39.2709C70.6551 39.3205 69.8001 39.312 68.9472 39.2794C67.7255 39.233 67.4904 39.0381 67.1552 37.8751C66.6039 35.9789 66.1316 34.0522 65.6034 32.1465C65.498 31.7515 65.3926 31.3554 65.2576 30.9688C65.0832 30.3497 64.7837 29.7729 64.3773 29.2741C63.971 28.7754 63.4666 28.3652 62.8953 28.069C62.324 27.7728 61.6979 27.5969 61.0559 27.552C60.4138 27.5072 59.7694 27.5945 59.1624 27.8085C57.8746 28.2617 56.5583 28.6294 55.222 28.9093C54.7304 29.0664 54.197 29.0287 53.7324 28.8039C53.6372 28.7306 53.5688 28.6281 53.5374 28.5121Z" fill="#333333"/>
<path d="M33.5861 31.9168C33.9108 33.97 34.2566 36.0253 34.5465 38.0795C34.6298 38.6684 34.8321 38.8959 35.4456 38.8591C36.3315 38.8004 37.2204 38.8004 38.1064 38.8591C38.8443 38.9138 39.1784 38.6631 39.3598 37.9267C39.9237 35.646 40.5394 33.3759 41.1835 31.1152C41.3477 30.3965 41.6645 29.7215 42.1124 29.1358C42.5604 28.5501 43.129 28.0674 43.7798 27.7204C44.4306 27.3734 45.1485 27.1702 45.8848 27.1245C46.621 27.0788 47.3585 27.1917 48.0473 27.4555C49.7964 28.1429 51.6578 28.5001 53.5373 28.509L53.5227 28.5711C53.6861 28.6964 53.8149 28.8611 53.8971 29.0498C53.9794 29.2385 54.0123 29.445 53.9927 29.6499C54.0412 33.1283 54.0412 36.6064 53.9927 40.0842C53.997 40.3577 53.9391 40.6286 53.8231 40.8764C53.6874 41.1135 53.4946 41.313 53.2623 41.457C53.0301 41.601 52.7655 41.685 52.4927 41.7012C51.4539 41.9112 50.4859 42.3826 49.6802 43.0707C46.9284 45.3445 43.4932 46.6308 39.9238 46.724C38.7671 46.702 37.6121 46.823 36.4851 47.0843C35.588 46.822 34.5148 47.0664 33.8349 46.172C32.9774 45.7401 32.2644 45.068 31.7831 44.2377C31.3018 43.4074 31.0729 42.455 31.1245 41.4969C31.1098 40.1042 30.8863 38.7158 30.8305 37.3221C30.7023 36.2497 30.8958 35.1634 31.3864 34.2011C31.877 33.2387 32.6427 32.4437 33.5861 31.9168Z" fill="#FED3A5"/>
<path d="M53.3444 80.036C50.6889 82.8803 48.0219 85.7067 45.3885 88.5689C44.8203 89.1862 44.6612 88.6584 44.4188 88.3266C41.7039 84.6044 38.9925 80.8805 36.2847 77.1548C34.7035 74.9753 33.0548 72.8357 31.5505 70.6003C31.2968 70.0671 30.8972 69.6167 30.398 69.301C29.8988 68.9854 29.3203 68.8175 28.7295 68.8168C29.2637 68.8658 29.8013 68.7706 30.2862 68.5412C30.771 68.3118 31.1854 67.9566 31.4861 67.5126C33.0895 65.7271 34.6614 63.9067 36.4355 62.2812C37.0487 62.5002 37.5955 62.8723 38.0241 63.3621C39.3659 64.623 40.6411 65.9529 41.8445 67.3462C41.9669 67.4671 42.116 67.5577 42.2798 67.6106C42.5897 67.9077 42.8937 68.2111 43.1917 68.5208C44.035 69.451 44.892 70.3633 45.7628 71.2598C47.9027 73.472 50.085 75.6316 52.2703 77.8006C52.8138 78.3168 53.2758 78.9125 53.6406 79.5672C53.6733 79.8074 53.5225 79.9306 53.3444 80.036Z" fill="#6B6FFF"/>
<path d="M36.462 46.8294C36.6897 46.2827 37.1809 46.4206 37.6057 46.3901C38.9962 46.2911 40.3972 46.2753 41.7739 46.0741C44.5278 45.7016 47.1187 44.5535 49.2439 42.7642C50.4453 41.7413 51.9497 41.1413 53.5258 41.0565L53.6945 41.1682C53.9774 41.6001 54.0901 42.1214 54.0108 42.6314C54.0291 48.6599 54.0291 54.6884 54.0108 60.7169C54.0403 61.1597 53.9745 61.6037 53.8179 62.019C53.5417 62.6426 52.9576 62.6426 52.4221 62.6457C50.5022 62.6271 48.6067 62.2132 46.854 61.4301C45.723 60.9443 44.6378 60.3584 43.6114 59.6793C42.8933 59.2786 42.335 58.6433 42.0301 57.88C39.4118 55.4437 37.5653 52.294 36.7191 48.8204C35.9601 48.025 35.9085 47.6268 36.462 46.8294Z" fill="#FED3A5"/>
<path d="M42.0364 57.8853C45.1903 60.7106 49.2915 62.2484 53.5268 62.1938C53.572 62.1486 53.6259 62.1132 53.6854 62.0898C53.7448 62.0663 53.8085 62.0553 53.8723 62.0575C53.9362 62.0597 53.999 62.075 54.0568 62.1024C54.1145 62.1298 54.1658 62.1689 54.2078 62.217C54.031 64.0447 53.9607 65.8812 53.997 67.717C54.0126 67.9394 53.9815 68.1626 53.9058 68.3722C53.8301 68.5819 53.7115 68.7736 53.5575 68.9348C53.1009 69.1758 52.5846 69.2808 52.07 69.2371C49.6454 69.2561 47.2208 69.2371 44.7962 69.2466C44.1112 69.2447 43.4357 69.0857 42.8217 68.782C42.4918 68.561 42.2147 68.27 42.01 67.9298C41.2173 66.2443 41.5758 64.4745 41.6538 62.7279C41.6622 62.5267 41.8519 62.3792 41.9984 62.237L42.0364 57.8853Z" fill="#FEBA7D"/>
<path d="M41.9953 62.2371C41.9995 64.1333 42.0034 66.0294 42.0069 67.9256C40.0598 66.1348 38.2118 64.2386 36.4355 62.275L41.9953 62.2371Z" fill="#594B65"/>
<path d="M36.4631 46.8284L36.7256 48.8299C36.6603 48.9026 36.5412 49.0406 36.5391 49.0406C35.4434 48.2907 34.5211 47.3151 33.834 46.1794C34.4449 46.3825 35.0888 46.4683 35.7316 46.4323C35.8801 46.4091 36.032 46.4353 36.1642 46.5069C36.2964 46.5784 36.4014 46.6914 36.4631 46.8284Z" fill="#2983E2"/>
<path d="M53.5332 105.639C53.5332 97.1067 53.5332 88.5738 53.5332 80.0402C54.0065 79.7442 54.3016 80.0813 54.5957 80.3562C56.2139 81.8711 57.6392 83.5714 59.1561 85.1842C59.8793 85.9521 60.5972 86.7285 61.3414 87.4754C62.0151 88.1507 62.1848 88.1317 62.7635 87.3364C65.0279 84.2238 67.2905 81.1102 69.5513 77.9955C71.6122 75.1512 73.6805 72.3217 75.7182 69.4626C75.8476 69.262 76.0238 69.0957 76.2316 68.9781C76.4395 68.8604 76.6729 68.795 76.9116 68.7874C80.5295 68.6146 84.0989 68.7621 87.3848 70.5424C92.721 73.433 95.4819 77.9902 96.0291 83.9664C94.2936 86.5399 92.2624 88.9013 89.9769 91.0023C82.3588 98.3847 72.665 103.264 62.1942 104.988C59.3408 105.529 56.4355 105.748 53.5332 105.639Z" fill="#2A2D85"/>
<path d="M53.5259 41.0597C53.5259 36.8979 53.5259 32.7361 53.5259 28.5743C55.257 28.4527 56.9605 28.0749 58.5807 27.4535C61.4175 26.4938 63.9168 27.3292 65.2556 29.6067C65.604 30.2678 65.8624 30.9725 66.0241 31.702C66.5965 33.7962 67.1711 35.8915 67.6898 37.9995C67.8585 38.6821 68.1515 38.9602 68.8715 38.9002C69.653 38.8255 70.4398 38.8255 71.2212 38.9002C72.1837 39.0055 72.5115 38.6178 72.618 37.695C72.8425 35.7377 73.1778 33.7973 73.4677 31.8442C75.7868 33.2137 76.4657 35.3406 76.2623 37.8762C76.1421 39.3721 75.9956 40.8669 75.9049 42.3649C75.8663 42.9786 75.6992 43.5772 75.4144 44.1222C75.1296 44.6672 74.7335 45.1463 74.2516 45.5286C73.7698 45.911 73.2129 46.1879 72.6172 46.3416C72.0215 46.4952 71.4001 46.5222 70.7932 46.4207C70.6822 46.552 70.5431 46.6566 70.3862 46.727C70.2293 46.7974 70.0586 46.8317 69.8867 46.8273C67.5201 46.5682 65.1059 46.7862 62.7952 45.9603C61.004 45.3849 59.3273 44.5012 57.8406 43.3488C56.8687 42.5349 55.7302 41.9435 54.5052 41.6159C54.1347 41.5434 53.7953 41.3597 53.5322 41.0892L53.5259 41.0597Z" fill="#FEBA7D"/>
<path d="M76.9157 68.7894C74.0553 72.6935 71.1951 76.5979 68.3348 80.5027C66.4236 83.1173 64.5071 85.7288 62.6264 88.3645C62.1974 88.966 61.9939 88.9144 61.5111 88.3845C59.1656 85.8194 56.7673 83.3048 54.3764 80.7797C54.1213 80.51 53.8167 80.2856 53.5332 80.0423H53.3391L53.5194 79.6747L53.5269 79.5324C53.777 78.899 54.1745 78.3343 54.6864 77.8848C56.8064 75.8064 58.8926 73.6932 60.984 71.5863C61.8927 70.6719 62.6875 69.6469 63.6711 68.8052C63.7299 68.6768 63.8005 68.5541 63.882 68.4387C64.2162 68.1858 64.4797 67.855 64.7991 67.5843C65.8533 66.6362 66.7577 65.5301 67.8066 64.5746C68.5866 63.6317 69.5358 62.8426 70.6054 62.2476C72.4095 64.1515 74.2142 66.055 76.0196 67.9583C76.3074 68.2448 76.6184 68.5103 76.9157 68.7894Z" fill="#3D41C2"/>
<path d="M53.5246 41.0913C54.9727 41.0441 56.3862 41.5397 57.4872 42.4808C60.4051 44.9472 64.1181 46.2743 67.9394 46.2163C68.8881 46.2068 69.8368 46.3522 70.7856 46.427C70.2842 49.6877 68.9479 52.7635 66.9063 55.356C66.3065 56.0934 65.6413 56.7686 65.0087 57.4723C64.7316 58.2075 64.2215 58.832 63.5562 59.2505C61.2271 60.934 58.5455 62.0666 55.7141 62.5626C55.1522 62.6616 54.5545 62.8122 54.116 62.237L53.5215 62.1981C53.5229 55.1611 53.5239 48.1255 53.5246 41.0913Z" fill="#FEBA7D"/>
<path d="M54.1194 62.2328C58.1777 61.8928 62.0085 60.2175 65.0121 57.4692C65.0297 59.0465 65.0477 60.6242 65.0659 62.2023C65.1945 62.3603 65.3927 62.5036 65.4022 62.7048C65.4855 64.4577 65.8375 66.2307 65.0522 67.9256C64.8585 68.2657 64.5864 68.5547 64.2585 68.7684C63.8887 68.9478 63.4854 69.0475 63.0746 69.0613C60.1682 69.0613 57.2609 69.0676 54.3535 69.0549C54.1133 69.0721 53.8732 69.021 53.6609 68.9075L53.5239 68.76C53.5239 66.9691 53.5386 65.1783 53.5239 63.3959C53.5165 62.8818 53.5987 62.4541 54.1194 62.2328Z" fill="#EEA26A"/>
<path d="M65.051 67.9256C65.0559 66.0182 65.0606 64.1104 65.0648 62.2023L70.6129 62.2402C68.8705 64.2412 67.0135 66.1396 65.051 67.9256Z" fill="#4A3E56"/>
<path d="M42.8186 68.7821L53.5227 68.7579C53.6178 68.8547 53.7032 68.9605 53.7778 69.0739C53.9739 69.5086 54.0559 69.9861 54.016 70.4613C54.0297 72.8663 54.0223 75.2713 54.016 77.6763C54.0481 78.3574 53.8765 79.0326 53.5227 79.6157V79.6747C49.8563 76.1394 46.2882 72.5085 42.8186 68.7821Z" fill="#FED3A5"/>
<path d="M53.5278 79.6094L53.5416 68.957C54.2714 68.8213 55.0166 68.7894 55.7553 68.8622C58.1947 68.8432 60.634 68.8506 63.0744 68.8622C63.4033 68.8622 63.7544 68.7568 64.0601 68.9791C60.6288 72.604 57.2048 76.2299 53.5278 79.6094Z" fill="#FEBA7D"/>
<path d="M64.0601 68.977L53.5405 68.9569C53.5321 68.8906 53.5246 68.8242 53.5215 68.7568L64.2573 68.7663L64.0601 68.977Z" fill="#FEBA7D"/>
</svg>
