<svg width="26" height="27" viewBox="0 0 26 27" fill="none" xmlns="http://www.w3.org/2000/svg">
<path d="M25.2113 23.8133L18.9606 17.5394C20.5602 15.7209 21.4447 13.3832 21.4497 10.9614C21.3972 8.20028 20.2521 5.57264 18.2654 3.65445C16.2788 1.73626 13.6126 0.684031 10.8513 0.728417C8.08993 0.683748 5.42348 1.73585 3.43657 3.65407C1.44966 5.57229 0.304429 8.20009 0.251953 10.9614C0.304429 13.7226 1.44966 16.3504 3.43657 18.2687C5.42348 20.1869 8.08993 21.239 10.8513 21.1943C13.0156 21.2028 15.1321 20.5576 16.9235 19.3431L23.2185 25.6645C23.4774 25.9203 23.8247 26.0667 24.1885 26.0736C24.5523 26.0805 24.9049 25.9472 25.1733 25.7015C25.3035 25.5823 25.4083 25.4378 25.4811 25.2769C25.5539 25.1161 25.5932 24.9421 25.5968 24.7655C25.6003 24.589 25.568 24.4135 25.5017 24.2498C25.4355 24.0861 25.3366 23.9376 25.2113 23.8133ZM10.8513 3.39807C12.8924 3.36471 14.8633 4.14224 16.3319 5.5601C17.8004 6.97797 18.6467 8.92041 18.685 10.9614C18.6467 13.0023 17.8004 14.9448 16.3319 16.3626C14.8633 17.7805 12.8924 18.558 10.8513 18.5247C8.80976 18.5589 6.83799 17.7817 5.36876 16.3638C3.89952 14.9458 3.05285 13.0029 3.01453 10.9614C3.05285 8.91985 3.89952 6.97692 5.36876 5.55897C6.83799 4.14101 8.80976 3.36386 10.8513 3.39807Z" fill="#29ABE2"/>
</svg>
