<svg width="33" height="33" viewBox="0 0 33 33" fill="none" xmlns="http://www.w3.org/2000/svg">
<path d="M31.6431 29.838L23.9611 21.846C25.8674 19.5736 26.9415 16.7188 27.0057 13.7533C27.07 10.7878 26.1206 7.88916 24.3145 5.53629C22.5083 3.18341 19.9535 1.51712 17.0722 0.812756C14.1909 0.10839 11.1555 0.408099 8.46756 1.66236C5.77963 2.91662 3.60003 5.05037 2.28893 7.71103C0.977816 10.3717 0.613658 13.4001 1.25662 16.2957C1.89959 19.1913 3.5112 21.781 5.82515 23.6367C8.13911 25.4924 11.0169 26.5032 13.9831 26.502C16.6571 26.5088 19.2671 25.6845 21.4521 24.143L29.1951 32.196C29.3499 32.3569 29.5348 32.4858 29.7394 32.5753C29.9439 32.6647 30.1641 32.713 30.3874 32.7174C30.6106 32.7218 30.8325 32.6821 31.0404 32.6007C31.2483 32.5193 31.4382 32.3978 31.5991 32.243C31.76 32.0882 31.8889 31.9033 31.9784 31.6987C32.0678 31.4942 32.1161 31.274 32.1205 31.0507C32.1248 30.8275 32.0852 30.6056 32.0038 30.3977C31.9224 30.1898 31.8009 29.9999 31.6461 29.839L31.6431 29.838ZM13.9811 3.82901C15.8867 3.82901 17.7495 4.3941 19.334 5.4528C20.9185 6.51151 22.1534 8.01629 22.8827 9.77686C23.6119 11.5374 23.8027 13.4747 23.431 15.3437C23.0592 17.2127 22.1415 18.9295 20.7941 20.277C19.4466 21.6245 17.7298 22.5421 15.8608 22.9139C13.9918 23.2856 12.0545 23.0948 10.2939 22.3656C8.53337 21.6363 7.02859 20.4014 5.96989 18.8169C4.91118 17.2325 4.3461 15.3696 4.3461 13.464C4.34901 10.9095 5.36506 8.46054 7.17134 6.65425C8.97762 4.84797 11.4266 3.83192 13.9811 3.82901Z" fill="#373AAD"/>
</svg>
