<svg xmlns="http://www.w3.org/2000/svg" width="96.943" height="96.945" viewBox="0 0 96.943 96.945"><defs><style>.a{fill:#3d41c2;}.b{fill:#445e9f;}.c{fill:#c2dcf3;}.d{fill:#1a2b63;}.e{fill:#edf5fe;}.f{fill:#293d7c;}.g{fill:#69ccfe;}.h{fill:#fe9418;}.i{fill:#91dfe7;}.j{fill:#52baee;}.k{fill:#fecf0d;}.l{fill:#ee8318;}.m{fill:#fcad11;}.n{fill:#e06592;}.o{fill:#37c27a;}.p{fill:#d8e9fb;}</style></defs><path class="a" d="M244.443,687.379h-5.678c-1.76-.186-3.53-.215-5.294-.35a23.507,23.507,0,0,1-4.8-1.005,47.02,47.02,0,0,1-28.06-22.4c-.277-.5-.526-.974.133-1.375a6.884,6.884,0,0,1,1.786-.123q15.531-.007,31.061,0a12.443,12.443,0,0,1,1.878.128c.581-.1.925.284,1.289.635a19.08,19.08,0,0,0,21.342,3.9,2.848,2.848,0,0,1,1.143-.405,6.192,6.192,0,0,1,2.384,1.889c1.3,1.267,1.29,1.278,2.756.175a1.015,1.015,0,0,1,.485-.264,1.5,1.5,0,0,1,1.163.516c2,2,4,3.988,5.986,5.993a1.379,1.379,0,0,1,.513,1.066,1.562,1.562,0,0,1-.741,1.049,46.146,46.146,0,0,1-14.225,8.237c-1.127.4-2.267.764-3.411,1.114a32.921,32.921,0,0,1-8.888,1.141C244.992,687.3,244.7,687.2,244.443,687.379Z" transform="translate(-191.07 -590.434)"/><path class="b" d="M183.242,360c.315-.01.63-.03.944-.03q22.136,0,44.273,0c1.392,0,1.7.312,1.709,1.723q.019,3.121.037,6.243a2.926,2.926,0,0,1,.115,2.951,3.191,3.191,0,0,1-1.832.33c-3.594.011-7.189,0-10.783,0H168.137c-.82,0-1.639.006-2.458-.052-1.066.06-2.133.065-3.2.034a1.372,1.372,0,0,1-1.186-.444v-.189a1.356,1.356,0,0,1,1.171-.443c1.054-.027,2.108-.033,3.161.034,4.811-.114,9.624-.021,14.435-.051.315,0,.629,0,.944,0,1.511-.018,1.771-.265,1.78-1.751.015-2.3-.011-4.593.015-6.89C182.8,360.95,182.723,360.381,183.242,360Z" transform="translate(-161.293 -359.957)"/><path class="c" d="M161.293,405.468l4.352.019a1.168,1.168,0,0,1,.437,1c.032.6.024,1.2.024,1.8q0,27.41,0,54.819a4.59,4.59,0,0,0,.653,3.074.534.534,0,0,1,0,.625c-.881,0-1.762-.022-2.642.008a2.915,2.915,0,0,1-2.828-1.324Z" transform="translate(-161.293 -394.66)"/><path class="d" d="M165.627,370.483a38.788,38.788,0,0,1-4.335.04V360.488a1.953,1.953,0,0,1,1.657-.58c1.083.054,2.17.033,3.256.043.232.751-.133,1.468-.118,2.217.046,2.288.034,4.578.006,6.867C166.087,369.555,166.172,370.127,165.627,370.483Z" transform="translate(-161.293 -359.904)"/><path class="e" d="M180.694,466.686c-1.08-.862-1.139-2.03-1.137-3.305q.039-29,.02-58c.407-.018.815-.054,1.223-.053q31.614.007,63.228.019c.41.124.469.467.509.821a10.076,10.076,0,0,1,.041,1.132q0,13.936,0,27.872a4.456,4.456,0,0,1-.167,1.679c-.45.6-.956.288-1.43.06a21,21,0,0,0-5.464-1.758,20.269,20.269,0,0,0-7.957.311c-1.361-.451-2.744-.1-4.114-.1q-20.674-.02-41.348-.006a6.384,6.384,0,0,0-1.695.1c-.458.124-.834.375-.822.9s.409.749.872.846a7.288,7.288,0,0,0,1.509.068q18.64,0,37.279.01a3.315,3.315,0,0,1,2.02.279.644.644,0,0,1-.14.982c-.908.759-1.814,1.518-2.671,2.333a1.019,1.019,0,0,1-.787.219,13.978,13.978,0,0,1-2.264.131q-16.794,0-33.587,0a5.584,5.584,0,0,0-1.506.095c-.387.107-.7.316-.729.762a.87.87,0,0,0,.618.862,4.233,4.233,0,0,0,1.773.2q15.847.007,31.695.008a5.51,5.51,0,0,1,2.058.174.756.756,0,0,1,.2,1.079,31.389,31.389,0,0,0-1.379,3.2.9.9,0,0,1-.745.634,35.76,35.76,0,0,1-6.338.135c-5.533.115-11.066.019-16.6.054-1.917.012-3.835-.046-5.751.038a19.523,19.523,0,0,0-3.37-.006.954.954,0,0,0-1.015,1.017q-.081,3.907,0,7.815a.955.955,0,0,0,.585.9,13.212,13.212,0,0,0,3.839.346q11.152-.126,22.3,0a38.221,38.221,0,0,1,6.037.094,1.081,1.081,0,0,1,.952.906,17.894,17.894,0,0,0,3.345,6.167.738.738,0,0,1,.141.943q-16.937.009-33.873.02c-.44,0-.88.035-1.321.053Z" transform="translate(-175.225 -394.551)"/><path class="b" d="M332.624,534.322a28.458,28.458,0,0,1,3.36-2.921,1.269,1.269,0,0,1,.564-.92,10.857,10.857,0,0,1,5.681-1.965.384.384,0,0,0,.174-.062,20.583,20.583,0,0,1,9.7.148,23.121,23.121,0,0,1,4.607,1.879,1.355,1.355,0,0,1,1.237.252,20.209,20.209,0,0,1,7.513,9.217,19.058,19.058,0,0,1,1.395,7.459,18.666,18.666,0,0,1-1.97,8.469c-.129.252-.207.527-.352.77a25.446,25.446,0,0,1-3.194,4.308,10.345,10.345,0,0,1-2.062,1.782,9.575,9.575,0,0,1-1.869,1.389,1.555,1.555,0,0,1-1.16.212,20.868,20.868,0,0,1-7.937,2.209,19.123,19.123,0,0,1-15.036-5.721c-.224-.22-.452-.436-.678-.653a21.662,21.662,0,0,1-4.22-7.727,2.5,2.5,0,0,1-.817-1.828,19.7,19.7,0,0,1,.206-7.743,2.251,2.251,0,0,1,.8-1.439,31.129,31.129,0,0,1,1.969-4.3c-.191-1.168.706-1.735,1.363-2.422A1.677,1.677,0,0,1,332.624,534.322Z" transform="translate(-287.904 -488.089)"/><path class="b" d="M483.887,678.413a23.673,23.673,0,0,1-3.936,3.935c-2.424-2.466-4.82-4.96-7.358-7.311-.223-.37.095-.579.247-.837a39.737,39.737,0,0,1,2.827-2.92,1.047,1.047,0,0,1,.828-.391,2.093,2.093,0,0,1,1.038.607c1.971,1.934,3.895,3.915,5.863,5.851A1.289,1.289,0,0,1,483.887,678.413Z" transform="translate(-398.696 -597.124)"/><path class="d" d="M455.462,676.646l-.473.476c-1.871,1.973-1.869,1.971-3.794.052-.579-.578-1.17-1.144-1.756-1.715l2.819-1.833a1,1,0,0,1,.837.322,25.905,25.905,0,0,0,2.173,2.043A.5.5,0,0,1,455.462,676.646Z" transform="translate(-381.094 -599.208)"/><path class="a" d="M467.754,466.864l-7.341-7.278c-.352-.475.047-.742.3-1.037.8-.934.8-1.181-.044-2.058-.457-.477-.929-.94-1.4-1.4a1.314,1.314,0,0,1-.471-.987c.541-1.668,1.351-3.231,1.756-4.958a19.4,19.4,0,0,0-8.636-20.807c-.187-.115-.364-.246-.546-.369q0-15.8-.005-31.6l.108-2.81c14.663,6.736,23.951,17.932,27.083,33.77,2.822,14.271-.7,27.166-9.843,38.5C468.418,466.193,468.074,466.519,467.754,466.864Z" transform="translate(-382.562 -385.575)"/><path class="f" d="M179.567,370.636c.006-2.965.024-5.93.007-8.9a2.112,2.112,0,0,1,.571-1.635h17.036c0,3.155-.018,6.31.02,9.464.01.816-.235,1.1-1.076,1.093C190.606,370.628,185.086,370.639,179.567,370.636Z" transform="translate(-175.233 -360.057)"/><path class="g" d="M193.4,434.4a12.291,12.291,0,0,1,3.476-.119c5.485.19,10.97.027,16.455.086.315,0,.631-.005.946,0,1.035.033,1.279.261,1.283,1.311.012,2.965.005,5.929.006,8.894,0,1.734,0,3.469,0,5.2,0,1.348-.252,1.61-1.593,1.612-3.91.008-7.82,0-11.73.006-2.648,0-5.3.031-7.945.038-.369,0-.763.094-1.092-.178.138-.36.458-.393.774-.429.344-.039.691-.029,1.037-.037,1.314-.029,1.5-.221,1.514-1.569,0-.441,0-.881,0-1.322q0-5.808,0-11.616c0-1.27-.137-1.368-1.41-1.434C194.53,434.817,193.834,435.075,193.4,434.4Z" transform="translate(-185.636 -416.589)"/><path class="h" d="M197.427,585.015l22.523.011a1.181,1.181,0,0,1,.431.995q.072,4.46,0,8.92a1.027,1.027,0,0,1-.427.984q-9.065.008-18.131.017c-2.518,0-5.036.034-7.553.039-.334,0-.7.108-.993-.164.37-.615.994-.43,1.528-.45,1.652-.062,1.775-.166,1.782-1.788.01-2.385,0-4.769.006-7.154A1.281,1.281,0,0,1,197.427,585.015Z" transform="translate(-185.692 -531.62)"/><path class="i" d="M233.764,530.037a21.72,21.72,0,0,0-6.42,2.947,3.339,3.339,0,0,0-1.4-.124q-19.253-.006-38.507,0c-.252,0-.5,0-.757,0-1.168-.014-1.792-.47-1.826-1.332-.035-.9.643-1.5,1.8-1.5Q210.207,530.021,233.764,530.037Z" transform="translate(-179.264 -489.672)"/><path class="i" d="M224.018,554.659l-2.087,2.818q-6.573-.015-13.147-.029-10.736-.007-21.471,0a3.918,3.918,0,0,1-1.494-.165,1.313,1.313,0,0,1-.908-1.482,1.251,1.251,0,0,1,1.182-1.159,6.132,6.132,0,0,1,.755-.032q18.161,0,36.321,0C223.452,554.609,223.735,554.641,224.018,554.659Z" transform="translate(-179.297 -508.425)"/><path class="j" d="M191.466,434.988c1.04.006,2.081.026,3.121.012.485-.007.674.082.531.644a6.165,6.165,0,0,0-.064,1.506c.006,4.667,0,9.335.045,14,.005.6-.226.7-.708.691-1.04-.008-2.081,0-3.121,0-.519-.17-.6-.593-.6-1.055q0-7.359,0-14.717C190.672,435.527,190.822,435.072,191.466,434.988Z" transform="translate(-183.701 -417.179)"/><path class="i" d="M326.588,479.359H315.814a7.51,7.51,0,0,1-.85-.016,1.312,1.312,0,0,1-1.263-1.189,1.277,1.277,0,0,1,.972-1.518,3.817,3.817,0,0,1,1.119-.113q10.868-.009,21.737,0a4.806,4.806,0,0,1,.847.043,1.353,1.353,0,0,1,1.227,1.52,1.329,1.329,0,0,1-1.391,1.265c-.472.022-.945.009-1.417.009Z" transform="translate(-277.536 -448.859)"/><path class="i" d="M326.589,503.291H315.721a4.837,4.837,0,0,1-.849-.024,1.393,1.393,0,0,1-.3-2.678,2.91,2.91,0,0,1,1.211-.136q10.868,0,21.736,0a4.85,4.85,0,0,1,.848.041,1.357,1.357,0,0,1,1.232,1.517,1.334,1.334,0,0,1-1.387,1.271c-.377.022-.756.009-1.134.01Z" transform="translate(-277.532 -467.113)"/><path class="i" d="M326.6,455.412H315.827c-.283,0-.569.013-.85-.014a1.311,1.311,0,0,1-1.281-1.169,1.269,1.269,0,0,1,.953-1.528,4.1,4.1,0,0,1,1.211-.124q10.772-.01,21.544,0c.158,0,.315,0,.472,0,1.106.041,1.728.568,1.727,1.457s-.617,1.376-1.759,1.378Q332.221,455.418,326.6,455.412Z" transform="translate(-277.529 -430.591)"/><path class="i" d="M326.648,431.485q-5.393,0-10.786,0a6.232,6.232,0,0,1-.945-.025,1.309,1.309,0,0,1-1.216-1.237,1.28,1.28,0,0,1,.955-1.443,3.472,3.472,0,0,1,1.215-.135q10.786,0,21.573,0a5.14,5.14,0,0,1,.849.043,1.369,1.369,0,0,1,1.313,1.547,1.35,1.35,0,0,1-1.509,1.244q-5.725,0-11.449,0Z" transform="translate(-277.542 -412.34)"/><path class="k" d="M305.732,595.779q0-5.45-.005-10.9l6.406-.057a21.051,21.051,0,0,0-.19,11.01Z" transform="translate(-271.468 -531.474)"/><path class="l" d="M195.412,584.89a2.07,2.07,0,0,0-.386,1.328c.019,2.925,0,5.851.05,8.775.01.592-.213.7-.7.7-1.038-.009-2.075,0-3.113,0-.554-.13-.622-.569-.623-1.023-.006-2.9,0-5.8,0-8.7a.984.984,0,0,1,1.093-1.121C192.958,584.852,194.185,584.876,195.412,584.89Z" transform="translate(-183.677 -531.495)"/><path class="g" d="M366.172,555.232a13.524,13.524,0,0,1,19.014,19.012c-3.682,3.206-7.932,3.365-12.265,1.945a13.915,13.915,0,0,1-8.384-18.66A11.325,11.325,0,0,1,366.172,555.232Z" transform="translate(-315.47 -506.62)"/><path class="j" d="M358.526,564.854a16.065,16.065,0,0,1-.987,1.933,13.55,13.55,0,0,0,19.062,17.52c.3-.175.625-.295.939-.44a12.44,12.44,0,0,1-7.841,4.869,13.5,13.5,0,0,1-16.194-11.615A12.852,12.852,0,0,1,358.526,564.854Z" transform="translate(-307.824 -516.241)"/><path class="f" d="M466.393,648.809c.845.829,1.7,1.648,2.531,2.489.8.813.786,1.193-.031,2.038-.3.312-.59.638-.884.958a39.521,39.521,0,0,0-3.482,3.427,16.138,16.138,0,0,1-3.2-3.02,25.827,25.827,0,0,0,3.771-4.055A8.464,8.464,0,0,1,466.393,648.809Z" transform="translate(-390.159 -580.283)"/><path class="m" d="M205.648,377.154a1.407,1.407,0,1,1-2.815-.022,1.408,1.408,0,0,1,2.815.022Z" transform="translate(-192.98 -372.017)"/><path class="n" d="M186.09,377.162a1.374,1.374,0,1,1-2.748.078,1.374,1.374,0,0,1,2.748-.078Z" transform="translate(-178.112 -372.051)"/><path class="o" d="M223.925,378.614a1.365,1.365,0,0,1-1.275-1.469,1.36,1.36,0,1,1,2.714.166A1.354,1.354,0,0,1,223.925,378.614Z" transform="translate(-208.095 -372.079)"/><path class="p" d="M413.325,566.215a2.2,2.2,0,1,1-.07-4.408,2.205,2.205,0,1,1,.07,4.408Z" transform="translate(-351.831 -513.917)"/><path class="p" d="M437.186,576.122a1.54,1.54,0,1,1-1.524-1.558A1.481,1.481,0,0,1,437.186,576.122Z" transform="translate(-369.397 -523.648)"/></svg>