<svg width="444" height="274" viewBox="0 0 444 274" fill="none" xmlns="http://www.w3.org/2000/svg">
<path d="M77.8878 10.9235C79.5396 8.75868 82.0827 7.45813 84.8048 7.38612L358.001 0.1587C361.634 0.0626015 364.968 2.16037 366.453 5.47671L442.227 174.659C443.052 176.499 443.234 178.564 442.745 180.52L421.204 266.683C420.203 270.689 416.603 273.5 412.473 273.5H33.6594C29.2444 273.5 25.4812 270.297 24.7752 265.939L0.619014 116.821C0.22384 114.382 0.849127 111.887 2.34821 109.923L77.8878 10.9235Z" fill="#F4F4F4"/>
<path d="M396 247.871H48V248.045H396V247.871Z" fill="#EBEBEB"/>
<path d="M99.2739 254.496H84.5117V254.67H99.2739V254.496Z" fill="#EBEBEB"/>
<path d="M226.252 252.61H167.113V252.784H226.252V252.61Z" fill="#EBEBEB"/>
<path d="M121.622 260.962H95.0977V261.136H121.622V260.962Z" fill="#EBEBEB"/>
<path d="M361.131 259.793H331.07V259.967H361.131V259.793Z" fill="#EBEBEB"/>
<path d="M328.794 259.793H320.463V259.967H328.794V259.793Z" fill="#EBEBEB"/>
<path d="M306.139 256.856H290.131V257.03H306.139V256.856Z" fill="#EBEBEB"/>
<path d="M282.085 256.856H248.371V257.03H282.085V256.856Z" fill="#EBEBEB"/>
<path d="M212.952 216.829H78.561C77.5081 216.827 76.4991 216.407 75.7553 215.662C75.0115 214.917 74.5937 213.907 74.5938 212.855V23.9394C74.6029 22.8926 75.0247 21.8917 75.7675 21.1541C76.5103 20.4165 77.5141 20.0018 78.561 20H212.952C214.006 20 215.016 20.4187 215.762 21.164C216.507 21.9093 216.926 22.9201 216.926 23.9742V212.855C216.926 213.909 216.507 214.92 215.762 215.665C215.016 216.41 214.006 216.829 212.952 216.829ZM78.561 20.1392C77.5543 20.141 76.5895 20.5422 75.8783 21.2547C75.1672 21.9672 74.7677 22.9327 74.7678 23.9394V212.855C74.7677 213.861 75.1672 214.827 75.8783 215.539C76.5895 216.252 77.5543 216.653 78.561 216.655H212.952C213.958 216.651 214.923 216.25 215.635 215.538C216.347 214.826 216.748 213.861 216.752 212.855V23.9394C216.748 22.9326 216.347 21.9682 215.635 21.2563C214.923 20.5444 213.958 20.1429 212.952 20.1392H78.561Z" fill="#EBEBEB"/>
<path d="M363.505 216.829H229.107C228.054 216.825 227.045 216.405 226.301 215.661C225.556 214.916 225.136 213.908 225.133 212.855V23.9394C225.144 22.892 225.567 21.8911 226.311 21.1537C227.055 20.4163 228.06 20.0018 229.107 20H363.505C364.55 20.0036 365.552 20.4192 366.294 21.1566C367.035 21.894 367.456 22.8938 367.465 23.9394V212.855C367.466 213.376 367.364 213.892 367.165 214.373C366.967 214.855 366.676 215.293 366.308 215.662C365.94 216.031 365.503 216.324 365.022 216.524C364.541 216.724 364.026 216.828 363.505 216.829ZM229.107 20.1392C228.1 20.1429 227.136 20.5444 226.424 21.2563C225.712 21.9682 225.31 22.9326 225.307 23.9394V212.855C225.31 213.861 225.712 214.826 226.424 215.538C227.136 216.25 228.1 216.651 229.107 216.655H363.505C364.511 216.651 365.476 216.25 366.188 215.538C366.9 214.826 367.301 213.861 367.305 212.855V23.9394C367.301 22.9326 366.9 21.9682 366.188 21.2563C365.476 20.5444 364.511 20.1429 363.505 20.1392H229.107Z" fill="#EBEBEB"/>
<path d="M267.428 178.041H264.463V248.002H267.428V178.041Z" fill="#F0F0F0"/>
<path d="M234.227 180.038H151.41V195.148H234.227V180.038Z" fill="#AFAFAF"/>
<path d="M185.947 248.058H150.451C150.314 248.058 150.183 248.004 150.086 247.908C149.99 247.811 149.936 247.68 149.936 247.543C149.936 247.407 149.99 247.276 150.086 247.179C150.183 247.083 150.314 247.028 150.451 247.028H185.947C191.076 247.028 191.765 245.532 191.765 239.588V164.636C191.757 164.564 191.764 164.491 191.786 164.421C191.807 164.352 191.844 164.288 191.892 164.234C191.94 164.179 192 164.136 192.066 164.106C192.132 164.076 192.204 164.061 192.277 164.061C192.349 164.061 192.421 164.076 192.488 164.106C192.554 164.136 192.613 164.179 192.661 164.234C192.71 164.288 192.746 164.352 192.768 164.421C192.79 164.491 192.797 164.564 192.788 164.636V239.588C192.767 245.943 191.8 248.058 185.947 248.058Z" fill="#AFAFAF"/>
<path d="M266.621 178.312H154.6V183.56H266.621V178.312Z" fill="#F0F0F0"/>
<path d="M155.407 178.041H119.438V248.002H155.407V178.041Z" fill="#F5F5F5"/>
<path d="M155.399 178.041H152.434V248.002H155.399V178.041Z" fill="#F0F0F0"/>
<path d="M129.933 99.4971H93.1426V248.01H129.933V99.4971Z" fill="#FAFAFA"/>
<path d="M127.914 103.833H95.1602V136.587H127.914V103.833Z" fill="#F5F5F5"/>
<path d="M104.285 103.395H118.811C118.811 104.295 118.453 105.159 117.816 105.796C117.179 106.433 116.315 106.791 115.414 106.791H107.703C107.256 106.794 106.814 106.709 106.401 106.54C105.988 106.372 105.612 106.124 105.295 105.811C104.977 105.498 104.725 105.125 104.552 104.714C104.378 104.303 104.288 103.861 104.285 103.415V103.395Z" fill="#AFAFAF"/>
<path d="M127.908 139.524H95.1543V172.278H127.908V139.524Z" fill="#F5F5F5"/>
<path d="M127.914 175.222H95.1602V207.975H127.914V175.222Z" fill="#F5F5F5"/>
<path d="M127.914 210.919H95.1602V243.673H127.914V210.919Z" fill="#F5F5F5"/>
<path d="M104.285 139.092H118.811C118.809 139.993 118.451 140.857 117.814 141.494C117.178 142.132 116.315 142.492 115.414 142.496H107.703C107.256 142.498 106.813 142.413 106.4 142.245C105.986 142.076 105.61 141.827 105.292 141.513C104.975 141.199 104.722 140.825 104.55 140.414C104.377 140.002 104.287 139.56 104.285 139.113V139.092Z" fill="#AFAFAF"/>
<path d="M104.285 174.783H118.811C118.812 175.229 118.724 175.672 118.554 176.084C118.384 176.497 118.133 176.871 117.818 177.187C117.502 177.502 117.128 177.753 116.715 177.923C116.303 178.093 115.86 178.181 115.414 178.18H107.703C106.803 178.185 105.938 177.834 105.297 177.202C104.656 176.571 104.293 175.711 104.285 174.811V174.783Z" fill="#AFAFAF"/>
<path d="M104.285 210.474H118.811C118.812 210.92 118.724 211.362 118.554 211.775C118.384 212.187 118.133 212.562 117.818 212.878C117.502 213.193 117.128 213.444 116.715 213.614C116.303 213.784 115.86 213.872 115.414 213.871H107.703C106.803 213.876 105.938 213.525 105.297 212.893C104.656 212.261 104.293 211.402 104.285 210.502V210.474Z" fill="#AFAFAF"/>
<path d="M93.142 99.4971H74.7676V248.01H93.142V99.4971Z" fill="#F0F0F0"/>
<path d="M188.048 178.041H180.295L182.174 162.938H189.941L188.048 178.041Z" fill="#F0F0F0"/>
<path d="M189.768 178.041H182.008L183.901 162.938H191.654L189.768 178.041Z" fill="#F5F5F5"/>
<path d="M206.415 178.041H200.798L199.727 176.329H205.336L206.415 178.041Z" fill="#F0F0F0"/>
<path d="M236.477 178.041H202.519L201.447 176.329H231.897L236.477 178.041Z" fill="#FAFAFA"/>
<path d="M163.446 173.705H165.903C166.472 173.705 167.035 173.817 167.561 174.035C168.087 174.253 168.564 174.572 168.966 174.975C169.368 175.378 169.687 175.856 169.904 176.382C170.121 176.908 170.233 177.472 170.232 178.041H159.096C159.096 176.891 159.553 175.788 160.366 174.975C161.179 174.161 162.282 173.705 163.432 173.705H163.446Z" fill="#F0F0F0"/>
<path d="M190.707 170.489H182.953L183.9 162.938H191.653L190.707 170.489Z" fill="#F0F0F0"/>
<path d="M162.186 168.679H217.128C217.228 168.68 217.327 168.661 217.42 168.623C217.512 168.586 217.596 168.53 217.667 168.459C217.737 168.388 217.793 168.304 217.831 168.212C217.869 168.12 217.888 168.02 217.887 167.921C217.89 167.888 217.89 167.856 217.887 167.823L213.648 133.984C213.634 133.794 213.549 133.617 213.409 133.488C213.27 133.359 213.087 133.287 212.897 133.288H157.968C157.767 133.288 157.574 133.368 157.432 133.51C157.29 133.652 157.21 133.845 157.21 134.046C157.206 134.079 157.206 134.111 157.21 134.144L161.448 168.018C161.473 168.198 161.561 168.363 161.696 168.484C161.831 168.605 162.005 168.674 162.186 168.679Z" fill="#F0F0F0"/>
<path d="M163.012 168.679H217.906C218.006 168.68 218.105 168.661 218.197 168.623C218.29 168.586 218.374 168.53 218.444 168.459C218.515 168.388 218.571 168.304 218.609 168.212C218.647 168.12 218.666 168.02 218.665 167.921C218.668 167.888 218.668 167.856 218.665 167.823L214.44 133.984C214.42 133.795 214.331 133.621 214.192 133.493C214.052 133.364 213.871 133.292 213.681 133.288H158.781C158.58 133.288 158.387 133.368 158.244 133.51C158.102 133.652 158.022 133.845 158.022 134.046C158.019 134.079 158.019 134.111 158.022 134.144L162.254 167.99C162.27 168.18 162.357 168.356 162.497 168.484C162.638 168.612 162.822 168.682 163.012 168.679Z" fill="#F5F5F5"/>
<path d="M216.892 166.807L212.952 135.132C212.945 135.08 212.919 135.033 212.88 135C212.84 134.966 212.789 134.949 212.737 134.951H160.015C159.988 134.949 159.96 134.953 159.935 134.962C159.909 134.971 159.885 134.985 159.865 135.003C159.845 135.021 159.829 135.043 159.817 135.068C159.806 135.092 159.8 135.119 159.799 135.146V135.188L163.759 166.856C163.764 166.907 163.789 166.955 163.827 166.99C163.866 167.025 163.916 167.044 163.968 167.044H216.683C216.711 167.043 216.739 167.036 216.765 167.025C216.791 167.013 216.814 166.996 216.833 166.976C216.853 166.955 216.868 166.931 216.878 166.904C216.888 166.878 216.893 166.849 216.892 166.821V166.807Z" fill="#AFAFAF"/>
<path d="M196.833 178.04H184.193V177.88C184.193 177.547 184.325 177.228 184.56 176.992C184.795 176.756 185.113 176.622 185.446 176.621H195.552C195.886 176.621 196.207 176.753 196.443 176.99C196.679 177.226 196.812 177.546 196.812 177.88V178.04H196.833Z" fill="#FAFAFA"/>
<path d="M185.662 178.04H177.094V177.88C177.093 177.715 177.125 177.552 177.187 177.399C177.25 177.246 177.342 177.107 177.458 176.99C177.575 176.873 177.713 176.78 177.866 176.717C178.018 176.653 178.181 176.621 178.347 176.621H184.416C184.749 176.622 185.067 176.756 185.302 176.992C185.537 177.228 185.668 177.547 185.668 177.88V178.04H185.662Z" fill="#F0F0F0"/>
<path d="M108.69 82.7234C108.83 82.2501 108.962 81.7699 109.08 81.2966C109.287 81.6266 109.569 81.9032 109.902 82.104C110.236 82.3047 110.613 82.4239 111.001 82.452H111.168C112.191 82.3545 113.166 81.3593 113.785 79.8002C113.799 79.7732 113.806 79.7434 113.806 79.7132C113.806 79.683 113.799 79.6532 113.785 79.6262C113.771 79.5983 113.751 79.5734 113.727 79.5531C113.703 79.5328 113.676 79.5174 113.646 79.5079C112.912 79.322 112.147 79.2928 111.401 79.4223C110.655 79.5518 109.945 79.8371 109.317 80.2596C109.414 79.8072 109.491 79.3478 109.56 78.8676C109.721 78.9013 109.884 78.9177 110.048 78.9163C110.618 78.8646 111.173 78.7002 111.679 78.4326C112.186 78.165 112.634 77.7995 112.999 77.3573C113.038 77.3147 113.06 77.2588 113.06 77.2007C113.06 77.1425 113.038 77.0866 112.999 77.0441H112.943C112.556 76.8515 112.132 76.7433 111.701 76.7265C111.269 76.7097 110.838 76.7847 110.437 76.9466C110.01 77.1641 109.663 77.5129 109.449 77.9419C109.139 76.9736 108.565 76.111 107.791 75.4508C107.018 74.7906 106.076 74.359 105.071 74.2044C105.041 74.1969 105.009 74.1968 104.979 74.2041C104.949 74.2114 104.921 74.2258 104.897 74.2461C104.872 74.2648 104.85 74.2888 104.835 74.3164C104.819 74.344 104.809 74.3746 104.807 74.4062C104.723 75.9165 104.807 77.7749 105.906 78.6518C106.378 79.0014 106.955 79.1783 107.542 79.1529C108.07 79.1451 108.595 79.063 109.101 78.9093C108.939 80.0021 108.707 81.0831 108.405 82.1457C107.293 80.6407 105.722 79.5368 103.93 78.9998C103.876 78.9938 103.822 79.0065 103.776 79.0356C103.731 79.0647 103.696 79.1086 103.679 79.1599C103.338 80.4684 103.512 81.5263 104.187 82.2223C104.531 82.5275 104.932 82.7615 105.367 82.9108C105.802 83.0601 106.262 83.1218 106.721 83.0923C107.214 83.0869 107.706 83.0356 108.189 82.9392C107.911 83.8301 107.577 84.707 107.264 85.5353C106.568 84.9228 104.584 83.4055 102.392 84.0458C102.334 84.0672 102.287 84.1095 102.259 84.1641C102.246 84.1912 102.239 84.2209 102.239 84.2511C102.239 84.2813 102.246 84.3111 102.259 84.3381C102.872 85.7858 103.526 86.5862 104.347 86.8577C104.572 86.9324 104.807 86.9701 105.043 86.969C105.69 86.943 106.321 86.759 106.881 86.4331C106.414 87.5397 105.92 88.5698 105.454 89.4885C104.894 88.918 104.191 88.5089 103.418 88.3043C102.645 88.0998 101.831 88.1073 101.062 88.3262C101.01 88.3379 100.964 88.3686 100.933 88.4123C100.902 88.4561 100.889 88.5097 100.895 88.5629C100.948 89.0255 101.121 89.4661 101.399 89.8401C101.676 90.214 102.048 90.5081 102.475 90.6926C102.799 90.8304 103.147 90.9014 103.498 90.9014C103.984 90.8925 104.461 90.7684 104.89 90.5395C104.41 91.4234 103.971 92.1681 103.623 92.7249H99.5031C98.8071 91.5974 98.1111 90.1915 97.3247 88.6116C97.6723 88.7167 98.0333 88.7707 98.3965 88.7717C98.7782 88.7772 99.1573 88.7073 99.512 88.5661C99.8667 88.4249 100.19 88.2151 100.464 87.9487C100.737 87.6824 100.955 87.3647 101.106 87.0138C101.256 86.663 101.336 86.2859 101.341 85.9041C101.345 85.6483 101.315 85.393 101.25 85.1455C101.236 85.0959 101.204 85.0531 101.16 85.025C101.117 84.9969 101.065 84.9853 101.013 84.9924C100.164 85.0749 99.3462 85.3608 98.6302 85.826C97.9142 86.2912 97.3208 86.922 96.9001 87.665C96.4129 86.5653 95.9327 85.3961 95.5081 84.185C96.0386 84.4853 96.6322 84.6569 97.2411 84.6861C97.4782 84.6865 97.7135 84.6465 97.9371 84.5678C99.1621 84.1641 99.8651 82.6886 100.464 81.1644C100.477 81.1362 100.484 81.1052 100.484 81.0739C100.484 81.0426 100.477 81.0117 100.464 80.9834C100.449 80.9555 100.43 80.9306 100.406 80.9103C100.382 80.89 100.354 80.8746 100.324 80.8651C97.8745 80.1691 95.8631 82.5355 95.2367 83.3846C94.9099 82.3652 94.6381 81.329 94.4223 80.2805C94.9387 80.3792 95.4627 80.4328 95.9883 80.4405C96.5084 80.4787 97.0308 80.4094 97.5229 80.237C98.015 80.0645 98.4664 79.7927 98.8489 79.4383C99.5867 78.6518 99.7676 77.4756 99.3709 76.0488C99.3644 76.0207 99.3523 75.9942 99.3354 75.9709C99.3185 75.9476 99.2971 75.9279 99.2724 75.9129C99.2478 75.898 99.2204 75.8882 99.1919 75.884C99.1634 75.8799 99.1343 75.8815 99.1064 75.8887C97.1439 76.4813 95.4315 77.7044 94.2344 79.3687L94.137 78.8119C94.1331 78.7651 94.1134 78.7209 94.0813 78.6866C93.979 78.3246 93.8024 77.9878 93.5628 77.6978C93.3231 77.4078 93.0256 77.1709 92.6893 77.0023C92.2476 76.8327 91.7751 76.7581 91.3026 76.7833C90.8301 76.8084 90.3683 76.9329 89.9471 77.1485C89.9153 77.163 89.8871 77.1842 89.8643 77.2106C89.8415 77.2371 89.8246 77.2681 89.8148 77.3016C89.8071 77.3356 89.8075 77.371 89.816 77.4048C89.8244 77.4387 89.8407 77.4701 89.8635 77.4965C90.263 77.973 90.7528 78.3659 91.3046 78.6526C91.8564 78.9393 92.4595 79.114 93.0791 79.1669C93.2752 79.1597 93.4705 79.1388 93.6637 79.1042C93.7403 79.6193 93.8377 80.1413 93.9491 80.6563C93.2515 80.1979 92.4649 79.8921 91.6409 79.7589C90.8169 79.6258 89.974 79.6683 89.1675 79.8837C89.1063 79.9045 89.0544 79.9465 89.0214 80.0021C89.0007 80.0606 89.0007 80.1245 89.0214 80.183C89.7174 81.8882 90.8171 82.967 91.9446 83.0575H92.0977C92.5246 83.0207 92.9366 82.8828 93.2996 82.6553C93.6627 82.4278 93.9664 82.1171 94.1857 81.749C94.4957 82.9277 94.8674 84.0893 95.2993 85.229C94.2414 84.7279 91.8611 83.837 90.1559 85.1803C90.1115 85.2148 90.0817 85.2649 90.0727 85.3204C90.0637 85.3759 90.076 85.4328 90.1071 85.4796C91.2068 86.9829 92.1951 87.7068 93.2252 87.7068C94.0465 87.7068 94.8399 87.1848 95.6264 86.1617C96.0788 87.2822 96.573 88.361 97.0184 89.3563C95.9605 88.7021 94.7982 88.7995 93.4271 89.6625C93.3957 89.683 93.3697 89.7108 93.3515 89.7435C93.3333 89.7763 93.3234 89.813 93.3227 89.8505C93.3197 89.886 93.3266 89.9217 93.3426 89.9536C93.3585 89.9855 93.3829 90.0124 93.4131 90.0314C94.2288 90.621 95.1932 90.9705 96.1971 91.0406C96.7166 91.0553 97.2269 90.9014 97.6518 90.6021C98.0415 91.3538 98.4243 92.0429 98.7793 92.6901H97.0045V93.7689H97.7005L98.2712 99.4692H106.623L107.187 93.7689H107.883V92.7319H104.125C104.542 92.0359 105.071 91.1172 105.642 90.0384C105.656 90.0142 105.668 89.9886 105.677 89.9618C105.823 89.6834 105.969 89.405 106.115 89.1127C106.363 89.4894 106.698 89.8011 107.092 90.0215C107.485 90.242 107.926 90.3647 108.377 90.3794H108.656C109.155 90.3224 109.628 90.1283 110.024 89.8188C110.419 89.5092 110.721 89.0962 110.897 88.6255C110.916 88.5782 110.917 88.5253 110.899 88.4775C110.881 88.4298 110.845 88.3906 110.799 88.368C110.158 88.0049 109.44 87.7997 108.704 87.7694C107.969 87.7392 107.236 87.8847 106.568 88.194C106.881 87.498 107.18 86.802 107.493 86.106C107.519 86.079 107.536 86.0451 107.542 86.0085C107.625 85.7997 107.702 85.5909 107.793 85.3961C108.489 86.3148 109.24 86.7881 109.992 86.7881C110.904 86.7881 111.829 86.0921 112.818 84.7001C112.835 84.6774 112.848 84.6513 112.856 84.6235C112.863 84.5957 112.865 84.5667 112.861 84.5381C112.857 84.5096 112.848 84.4821 112.833 84.4573C112.819 84.4325 112.799 84.411 112.776 84.3938C111.217 83.2245 109.108 84.0249 108.113 84.4913C108.315 83.9345 108.502 83.3777 108.669 82.8139L108.69 82.7234Z" fill="#AFAFAF"/>
<path d="M247.689 213.022H270.72C272.825 213.017 274.844 212.189 276.348 210.716C277.851 209.243 278.719 207.24 278.766 205.136L279.629 163.007C279.659 161.449 279.068 159.942 277.988 158.818C276.907 157.694 275.425 157.046 273.866 157.015H259.327C257.883 157.012 256.49 157.542 255.413 158.502C254.335 159.463 253.65 160.787 253.487 162.221L247.689 213.022Z" fill="#E6E6E6"/>
<path d="M260.28 213.021H235.732C235.428 213.021 235.136 212.9 234.92 212.685C234.705 212.47 234.584 212.178 234.584 211.873V211.762C234.584 210.927 234.915 210.127 235.505 209.537C236.095 208.947 236.896 208.616 237.73 208.616H260.28V213.028V213.021Z" fill="#E6E6E6"/>
<path d="M258.311 248.58C258.192 248.583 258.076 248.544 257.984 248.47C257.891 248.396 257.827 248.293 257.803 248.177L250.613 213.537H238.085L230.902 248.177C230.862 248.301 230.778 248.407 230.665 248.473C230.551 248.539 230.418 248.561 230.29 248.534C230.161 248.507 230.048 248.433 229.971 248.328C229.894 248.222 229.858 248.091 229.872 247.961L237.152 212.917C237.175 212.799 237.24 212.692 237.334 212.617C237.429 212.542 237.547 212.503 237.667 212.507H251.017C251.136 212.504 251.252 212.544 251.345 212.619C251.438 212.695 251.502 212.8 251.525 212.917L258.798 247.961C258.812 248.026 258.813 248.094 258.802 248.16C258.79 248.225 258.765 248.288 258.729 248.345C258.693 248.401 258.646 248.449 258.59 248.487C258.535 248.526 258.473 248.552 258.408 248.566L258.311 248.58Z" fill="#E6E6E6"/>
<path d="M250.536 248.58H250.431C250.297 248.554 250.18 248.475 250.104 248.361C250.028 248.248 250.001 248.109 250.027 247.975L257.308 212.924C257.333 212.807 257.398 212.702 257.492 212.628C257.586 212.553 257.703 212.513 257.823 212.514H271.172C271.291 212.514 271.406 212.555 271.498 212.63C271.591 212.704 271.655 212.808 271.68 212.924L278.953 247.975C278.967 248.042 278.967 248.111 278.954 248.179C278.941 248.246 278.915 248.31 278.877 248.367C278.839 248.424 278.791 248.474 278.734 248.512C278.677 248.55 278.613 248.577 278.546 248.591C278.479 248.605 278.41 248.605 278.342 248.592C278.275 248.579 278.211 248.553 278.154 248.515C278.097 248.477 278.047 248.428 278.009 248.372C277.971 248.315 277.944 248.251 277.93 248.184L270.72 213.544H258.192L251.009 248.184C250.982 248.292 250.922 248.388 250.837 248.46C250.752 248.531 250.646 248.573 250.536 248.58Z" fill="#E6E6E6"/>
<path d="M337.043 238.412H338.477C338.477 235.461 338.477 227.972 338.63 210.795C338.88 179.669 339.381 177.776 339.381 177.776L335.971 192.149C333.799 208.052 336.583 224.06 337.043 238.412Z" fill="#E6E6E6"/>
<path d="M330.688 186.817C323.171 179.391 308.5 178.396 293.508 177.769C287.627 177.526 309.933 188.829 321.118 197.292C329.762 203.863 335.094 205.415 337.975 212.5C338.309 203.306 337.161 193.221 330.688 186.817Z" fill="#E6E6E6"/>
<path d="M338.927 170.67C344.022 160.996 356.835 151.878 371.214 148.398C376.852 147.041 358.13 166.258 351.03 178.66C345.504 188.293 338.175 199.596 337.041 207.725C335.322 191.655 333.846 180.345 338.927 170.67Z" fill="#AFAFAF"/>
<path d="M338.308 247.724C335.898 247.72 333.581 246.795 331.829 245.139C330.078 243.484 329.025 241.222 328.885 238.816L328.021 230.283H348.54L347.677 238.816C347.537 241.212 346.492 243.466 344.752 245.12C343.012 246.775 340.709 247.706 338.308 247.724Z" fill="#EBEBEB"/>
<path d="M349.883 233.567H326.699L326.031 224.06H350.544L349.883 233.567Z" fill="#F0F0F0"/>
<path d="M358.506 34.4629H240.506V118.832H358.506V34.4629Z" fill="#AFAFAF"/>
<path d="M355.903 34.4629H240.506V118.832H355.903V34.4629Z" fill="#F0F0F0"/>
<path d="M351.582 38.0332H244.363V113.313H351.582V38.0332Z" fill="#FAFAFA"/>
<path d="M360.191 30.7812H236.512V32.2568H360.191V30.7812Z" fill="#AFAFAF"/>
<path d="M235.523 33.6067C236.661 33.6067 237.583 32.6843 237.583 31.5465C237.583 30.4087 236.661 29.4863 235.523 29.4863C234.385 29.4863 233.463 30.4087 233.463 31.5465C233.463 32.6843 234.385 33.6067 235.523 33.6067Z" fill="#AFAFAF"/>
<path d="M360.191 33.6067C361.329 33.6067 362.251 32.6843 362.251 31.5465C362.251 30.4087 361.329 29.4863 360.191 29.4863C359.053 29.4863 358.131 30.4087 358.131 31.5465C358.131 32.6843 359.053 33.6067 360.191 33.6067Z" fill="#AFAFAF"/>
<path opacity="0.7" d="M340.939 38.0332L306.947 113.313H293.549L327.541 38.0332H340.939Z" fill="white"/>
<path opacity="0.7" d="M315.216 38.0332L281.223 113.313H257.309L291.301 38.0332H315.216Z" fill="white"/>
<path d="M358.506 68.3374H240.506V70.8987H358.506V68.3374Z" fill="#AFAFAF"/>
<path d="M358.506 64.5718H240.506V67.1331H358.506V64.5718Z" fill="#AFAFAF"/>
<path d="M358.506 60.8135H240.506V63.3748H358.506V60.8135Z" fill="#AFAFAF"/>
<path d="M358.506 57.0479H240.506V59.6091H358.506V57.0479Z" fill="#AFAFAF"/>
<path d="M358.506 53.2896H240.506V55.8508H358.506V53.2896Z" fill="#AFAFAF"/>
<path d="M358.506 49.5312H240.506V52.0925H358.506V49.5312Z" fill="#AFAFAF"/>
<path d="M358.506 45.7661H240.506V48.3274H358.506V45.7661Z" fill="#AFAFAF"/>
<path d="M358.506 42.0073H240.506V44.5686H358.506V42.0073Z" fill="#AFAFAF"/>
<path d="M358.506 38.249H240.506V40.8103H358.506V38.249Z" fill="#AFAFAF"/>
<path d="M358.506 34.4839H240.506V37.0452H358.506V34.4839Z" fill="#AFAFAF"/>
<path d="M198.426 33.7739H176.857V55.343H198.426V33.7739Z" fill="#F0F0F0"/>
<path d="M196.743 33.7739H175.174V55.343H196.743V33.7739Z" fill="#F5F5F5"/>
<path d="M195.085 35.4375H176.836V53.6866H195.085V35.4375Z" fill="#FAFAFA"/>
<path d="M177.351 35.4375H176.836V53.6866H177.351V35.4375Z" fill="#F0F0F0"/>
<path d="M192.893 40.3091V48.7098C192.187 48.7098 191.511 48.9899 191.013 49.4886C190.514 49.9872 190.234 50.6634 190.234 51.3686H182.466C182.466 51.0188 182.397 50.6725 182.263 50.3495C182.129 50.0265 181.933 49.7331 181.685 49.4861C181.438 49.2391 181.144 49.0434 180.82 48.9102C180.497 48.777 180.151 48.7089 179.801 48.7098V40.3091C180.151 40.31 180.497 40.2419 180.82 40.1087C181.144 39.9755 181.438 39.7798 181.685 39.5329C181.933 39.2859 182.129 38.9925 182.263 38.6694C182.397 38.3464 182.466 38.0001 182.466 37.6504H190.234C190.234 37.9995 190.303 38.3453 190.436 38.6678C190.57 38.9904 190.766 39.2835 191.013 39.5304C191.259 39.7773 191.553 39.9731 191.875 40.1067C192.198 40.2403 192.543 40.3091 192.893 40.3091Z" fill="white"/>
<path d="M159.29 33.5996H86.8926V70.4667H159.29V33.5996Z" fill="#E6E6E6"/>
<path d="M156.353 33.5996H83.9551V70.4667H156.353V33.5996Z" fill="#F0F0F0"/>
<path d="M153.75 36.8154H86.6836V66.4024H153.75V36.8154Z" fill="#F5F5F5"/>
<path opacity="0.7" d="M137.881 36.8154L124.9 66.4024H115.859L129.578 36.8154H137.881Z" fill="white"/>
<path opacity="0.7" d="M126.473 36.8154L112.602 66.4024H108.572L122.652 36.8154H126.473Z" fill="white"/>
<path d="M138.662 63.6601C138.662 63.6601 134.235 62.6718 133.609 56.9646C133.031 51.668 135.39 50.6171 135.39 50.6171C135.39 50.6171 132.377 45.2022 137.409 42.0911C142.441 38.98 150.146 43.1281 153.111 41.7222C156.076 40.3163 159.375 41.1028 158.435 45.2788C157.495 49.4548 153.097 50.5405 153.097 50.5405L142.942 48.7588C142.942 48.7588 147.32 60.1732 144.724 62.3238C142.128 64.4744 138.662 63.6601 138.662 63.6601Z" fill="#263238"/>
<path d="M156.353 46.8379C156.353 46.8379 158.546 55.3569 156.353 56.8255C154.161 58.2941 153.688 48.0977 153.688 48.0977L156.353 46.8379Z" fill="#263238"/>
<path d="M140.2 129.348L138.021 134.012L134.158 133.455C130.518 134.039 129.001 131.972 129.001 131.972L126.711 129.884C113.912 117.899 111.754 111.788 112.854 106.965C114.016 101.87 121.728 86.8855 124.053 83.3985C126.377 79.9116 128.131 78.9581 128.131 78.9581C132.349 77.1415 135.544 78.45 137.012 82.9601C138.202 86.6071 135.502 90.4142 133.421 93.1634C130.861 96.5289 128.495 100.038 126.335 103.673C125.639 104.87 124.943 106.088 124.289 107.313C124.004 107.842 122.431 110.139 122.605 110.605C123.677 113.591 129.064 122.068 130.957 125.005L131.611 126.022C138.599 127.024 140.2 129.348 140.2 129.348Z" fill="#263238"/>
<path d="M212.903 80.0998L208.846 82.4175C208.846 82.4175 207.969 84.1435 206.521 86.5587C203.229 92.064 197 101.175 191.494 101.787C184.263 102.393 176.663 99.0449 169.028 93.9224C161.392 88.7998 164.086 77.0791 164.086 77.0791C164.086 77.0791 168.645 78.3598 175.702 83.5798C182.76 88.7998 188.745 91.9875 190.485 92.6626C190.485 92.6626 196.471 90.7347 202.951 83.2039L204.788 77.3019L210.878 75.2139L212.903 80.0998Z" fill="#263238"/>
<path d="M127.873 96.88C128.138 97.2558 135 130.942 135 130.942H167.058C167.058 130.942 167.344 110.348 167.873 105.462C168.402 100.576 171.645 80.4057 164.086 77.0788C164.086 77.0788 156.389 75.2483 150.709 75.1718C147.29 75.1255 143.875 75.4169 140.513 76.0418C140.513 76.0418 130.678 76.5637 128.124 78.9441C125.57 81.3244 127.873 96.88 127.873 96.88Z" fill="#263238"/>
<path d="M167.057 130.49C167.057 130.49 166.514 179.078 165.059 190.701C163.605 202.324 159.832 252.555 159.832 252.555L150.311 250.265C150.311 250.265 149.615 213.704 148.62 195.545C147.625 177.387 147.847 155.873 147.847 155.873C147.847 155.873 140.887 201.113 138.208 205.47C135.528 209.827 124.629 235.009 117.599 247.592L109.846 240.813C109.846 240.813 122.471 200.626 124.629 193.847C126.786 187.068 128.666 136.775 134.999 130.943L167.057 130.49Z" fill="#407BFF"/>
<path d="M116.423 246.117L114.488 249.075L111.878 253.07L106.547 250.3L108.732 245.887L110.361 242.616L116.423 246.117Z" fill="#CE7A63"/>
<path d="M212.902 80.0998L208.844 82.4175C208.844 82.4175 207.967 84.1435 206.52 86.5587L202.949 83.2039L204.787 77.3019L210.877 75.2139L212.902 80.0998Z" fill="#CE7A63"/>
<path opacity="0.3" d="M167.05 130.49C167.05 130.49 166.514 179.078 165.059 190.694C163.605 202.31 159.832 252.555 159.832 252.555L150.429 250.975C150.429 250.975 149.559 213.704 148.599 195.538C148.328 190.36 147.847 186.421 147.743 183.393C147.639 180.366 147.659 175.041 147.743 169.828C147.833 162.284 148 154.948 148 154.948L147.792 156.284C147.792 156.479 147.729 156.695 147.687 156.924L147.645 157.203C146.163 166.571 140.511 201.67 138.215 205.442C135.521 209.827 124.629 235.009 117.599 247.592L109.846 240.813C109.846 240.813 122.443 200.619 124.622 193.847C126.8 187.075 128.659 136.775 134.992 130.936L167.05 130.49Z" fill="black"/>
<path opacity="0.2" d="M147.765 156.277C147.765 156.472 147.702 156.687 147.66 156.917L147.765 156.277Z" fill="black"/>
<path opacity="0.2" d="M149.288 146.526C149.288 146.526 149.107 160.446 147.715 169.821C147.805 162.276 147.972 154.941 147.972 154.941L149.288 146.526Z" fill="black"/>
<path d="M152.037 73.8425C152.97 74.5708 154.033 75.1163 155.169 75.4502C155.169 75.4502 153.547 77.399 148.348 77.0162C146.323 76.8631 143.747 77.9698 140.518 76.0418C140.518 76.0418 141.868 68.3301 141.277 63.7644C141.277 63.7644 135.938 61.4745 137.212 58.0015C138.367 54.8417 141.966 58.4678 142.62 59.1569C141.98 58.3426 138.138 53.213 140.936 49.0162C141.831 47.6763 143.011 46.5497 144.39 45.7162C145.77 44.8827 147.316 44.3627 148.919 44.1929L153.331 45.3761L155.106 49.5521C155.106 49.5521 157.48 52.7676 157.647 59.2056C157.814 65.6436 154.09 67.9265 151.383 68.6921C151.383 68.6921 151.306 69.3881 151.306 70.3277C151.271 71.5874 151.39 73.2509 152.037 73.8425Z" fill="#CE7A63"/>
<path d="M153.436 59.7138L152.74 54.5146L155.67 58.6071C155.393 58.9341 155.052 59.2009 154.668 59.3912C154.283 59.5815 153.864 59.6913 153.436 59.7138Z" fill="#BA4D3C"/>
<path d="M148.35 60.041C148.756 60.5683 149.309 60.9648 149.938 61.1813C150.568 61.3978 151.247 61.4248 151.892 61.259" stroke="#263238" stroke-linecap="round" stroke-linejoin="round"/>
<path d="M147.02 52.8514C147.02 52.8514 147.855 51.0279 149.567 51.3063" stroke="#263238" stroke-linecap="round" stroke-linejoin="round"/>
<path d="M154.543 50.624C155.053 50.5574 155.571 50.6129 156.055 50.786C156.539 50.959 156.975 51.2446 157.327 51.6193" stroke="#263238" stroke-linecap="round" stroke-linejoin="round"/>
<path d="M150.138 55.2174C150.138 55.7255 149.88 56.1361 149.567 56.1361C149.254 56.1361 148.996 55.7255 148.996 55.2174C148.996 54.7093 149.254 54.3057 149.567 54.3057C149.88 54.3057 150.138 54.7163 150.138 55.2174Z" fill="#263238"/>
<path d="M155.929 54.8416C155.929 55.3427 155.671 55.7533 155.358 55.7533C155.045 55.7533 154.787 55.3427 154.787 54.8416C154.787 54.3405 155.045 53.9229 155.358 53.9229C155.671 53.9229 155.929 54.3335 155.929 54.8416Z" fill="#263238"/>
<path d="M146.289 79.3828L150.757 78.7007L151.85 83.0228L149.769 86.8926H148.572L146.289 83.4196V79.3828Z" fill="#407BFF"/>
<path d="M148.572 86.8926L146.289 107.313L150.465 111.336L153.479 107.223L149.769 86.8926H148.572Z" fill="#407BFF"/>
<path opacity="0.3" d="M146.289 79.3828L150.757 78.7007L151.85 83.0228L149.769 86.8926H148.572L146.289 83.4196V79.3828Z" fill="black"/>
<path opacity="0.3" d="M148.572 86.8926L146.289 107.313L150.465 111.336L153.479 107.223L149.769 86.8926H148.572Z" fill="black"/>
<path d="M148.35 77.0164L150.612 82.9742C150.612 82.9742 156.458 80.058 157.314 75.172L153.138 73.7383C151.685 75.0267 150.076 76.128 148.35 77.0164Z" fill="white"/>
<path d="M140.916 73.3486C140.916 73.3486 144.96 75.4784 148.349 77.0166L147.02 82.9743C147.02 82.9743 140.324 78.9654 138.076 75.8334L140.916 73.3486Z" fill="white"/>
<path opacity="0.2" d="M151.355 68.6714C151.355 68.6714 151.279 69.3674 151.279 70.307C150.128 70.023 149.017 69.595 147.973 69.0333C149.113 69.188 150.274 69.0638 151.355 68.6714Z" fill="black"/>
<path d="M142.655 59.1568C143.412 56.1395 143.143 52.9561 141.89 50.1088C141.89 50.1088 149.831 52.3848 149.852 45.1533C149.852 45.1533 139.259 46.8446 138.716 50.61C138.173 54.3753 141.75 58.1337 142.655 59.1568Z" fill="#263238"/>
<path d="M149.735 46.2182C149.735 46.2182 152.769 50.5265 155.372 49.6356V43.3716H146.324L141.543 46.2252L144.856 49.6356L147.32 47.6102L149.735 46.2182Z" fill="#263238"/>
<path d="M159.201 260.385L152.408 260.037L152.241 254.886L152.115 251.128L157.614 250.578L158.699 250.627L158.936 255.276L159.201 260.385Z" fill="#CE7A63"/>
<path opacity="0.2" d="M158.936 255.276L152.241 254.886L152.115 251.128L157.614 250.578L158.699 250.627L158.936 255.276Z" fill="black"/>
<path d="M148.426 253.599L161.49 253.279L162.227 249.019H148.732L148.426 253.599Z" fill="#263238"/>
<path d="M160.662 260.67C160.662 260.67 162.938 253.961 164.713 254.629C166.488 255.297 160.662 260.67 160.662 260.67Z" stroke="#407BFF" stroke-miterlimit="10"/>
<path d="M161.051 260.67C161.051 260.67 164.489 257.399 165.874 258.672C167.259 259.946 161.051 260.67 161.051 260.67Z" stroke="#407BFF" stroke-miterlimit="10"/>
<path opacity="0.2" d="M116.423 246.117L114.488 249.075L108.732 245.887L110.361 242.616L116.423 246.117Z" fill="black"/>
<path d="M107.451 243.444L117.432 248.727L119.784 245.831L109.616 240.117L107.451 243.444Z" fill="#263238"/>
<path d="M113.807 254.844C113.807 254.844 116.632 251.309 117.781 252.144C118.929 252.979 113.807 254.844 113.807 254.844Z" stroke="#407BFF" stroke-miterlimit="10"/>
<path d="M114.322 254.845C114.322 254.845 119.194 253.696 119.403 255.276C119.612 256.856 114.322 254.845 114.322 254.845Z" stroke="#407BFF" stroke-miterlimit="10"/>
<path d="M113.215 251.072L107.974 248.128C107.608 247.925 107.177 247.875 106.774 247.988C106.371 248.102 106.03 248.369 105.823 248.734L103.464 252.91C103.259 253.276 103.207 253.709 103.321 254.113C103.434 254.518 103.703 254.861 104.069 255.067L118.943 263.419C119.31 263.624 119.742 263.676 120.147 263.562C120.551 263.449 120.894 263.18 121.101 262.814C121.284 262.486 121.345 262.105 121.274 261.737C121.202 261.368 121.003 261.037 120.711 260.802C118.79 259.264 114.85 255.728 113.98 252.067C113.928 251.858 113.833 251.661 113.701 251.49C113.57 251.319 113.404 251.176 113.215 251.072Z" fill="#263238"/>
<path d="M158.574 257.774H151.614C151.128 257.776 150.662 257.971 150.319 258.315C149.976 258.659 149.783 259.126 149.783 259.612V265.18C149.783 265.665 149.976 266.131 150.319 266.474C150.663 266.817 151.128 267.01 151.614 267.01H171.352C171.593 267.011 171.832 266.965 172.055 266.873C172.278 266.781 172.48 266.647 172.651 266.477C172.822 266.307 172.957 266.104 173.05 265.882C173.142 265.659 173.19 265.421 173.19 265.18C173.189 264.746 173.035 264.326 172.755 263.995C172.475 263.664 172.086 263.443 171.658 263.37C168.84 262.904 162.868 261.568 159.91 258.373C159.74 258.187 159.534 258.038 159.304 257.935C159.074 257.832 158.825 257.778 158.574 257.774Z" fill="#263238"/>
<path d="M140.199 129.349L138.021 134.012L134.158 133.455C130.518 134.04 129.001 131.973 129.001 131.973L126.711 129.885L130.963 125.013L131.618 126.029C138.599 127.024 140.199 129.349 140.199 129.349Z" fill="#CE7A63"/>
<path d="M202.95 82.8975L201.6 84.6931L205.553 88.1453L206.715 86.5584L202.95 82.8975Z" fill="white"/>
<path d="M126.537 130.08L131.096 124.748L129.558 122.792L124.797 128.521L126.537 130.08Z" fill="white"/>
<path d="M214.057 49.7541C213.587 51.1527 213.434 52.6387 213.61 54.1039C213.786 55.5691 214.286 56.9767 215.074 58.2244C217.774 62.3169 217.162 48.7866 217.162 48.7866L214.057 49.7541Z" fill="#263238"/>
<path d="M219.591 80.4408C219.591 80.4408 202.887 103.826 199.623 102.845C196.359 101.864 188.835 87.2756 188.835 87.2756L188.397 81.5057L183.469 74.7197L177.205 79.6613L180.24 85.3059C180.24 85.3059 181.144 88.2361 183.817 89.0573C183.817 89.0573 189.963 107.926 197.737 111.469C205.511 115.011 216.299 92.5304 216.299 92.5304L219.591 80.4408Z" fill="#FFB573"/>
<path d="M255.353 250.856L246.729 254.135C235.593 229.677 226.545 158.351 226.545 158.351C226.545 158.351 226.281 160.349 225.884 163.564C224.59 174.213 221.847 198.148 222.404 206.716C223.288 221.13 220.741 256.752 220.741 256.752L210.301 257.99C210.301 257.99 210.656 222.78 209.166 203.271C207.677 183.762 212.236 133.706 212.236 133.706L241.029 132.383C245.971 138.063 247.203 207.962 248.441 214.386C249.68 220.81 255.353 250.856 255.353 250.856Z" fill="#263238"/>
<path d="M209.396 83.9277C209.466 83.5447 209.612 83.1797 209.826 82.8545C210.04 82.5293 210.318 82.2504 210.642 82.0346C212.973 80.4755 218.952 76.5919 220.56 76.4666C222.578 76.3065 233.13 73.8287 237.312 76.4666C241.495 79.1044 244.14 86.8579 244.14 86.8579C244.14 86.8579 243.834 122.695 241.969 134.332L212.187 133.713C212.187 133.713 207.503 94.4303 209.396 83.9277Z" fill="#407BFF"/>
<path d="M242.748 96.9428L247.398 105.476C247.398 105.476 248.017 124.713 246.472 129.676L244.14 134.332V141.8L249.708 142.573L251.26 136.677C251.26 136.677 252.186 132.334 251.26 130.476C251.26 130.476 257.775 115.582 255.436 102.706C255.436 102.706 243.681 76.7866 236.47 76.0697C229.26 75.3528 242.748 96.9428 242.748 96.9428Z" fill="#FFB573"/>
<path d="M233.254 76.1049C233.254 76.1049 228.653 80.5454 224.456 80.4201C220.259 80.2948 221.408 76.7174 221.408 76.7174C223.565 76.3137 224.268 74.1561 224.47 72.3047C224.569 71.3794 224.569 70.4461 224.47 69.5207C224.47 69.5207 219.466 69.5207 216.654 63.4099C213.842 57.299 216.654 49.2463 216.654 49.2463C216.654 49.2463 227.282 46.5597 232.043 47.903C236.803 49.2463 233.024 61.2105 233.024 61.2105C231.785 67.9269 233.254 76.1049 233.254 76.1049Z" fill="#FFB573"/>
<path d="M223.928 55.6146C223.928 56.0949 223.663 56.4846 223.343 56.4846C223.023 56.4846 222.766 56.0949 222.766 55.6146C222.766 55.1344 223.023 54.7446 223.343 54.7446C223.663 54.7446 223.928 55.1344 223.928 55.6146Z" fill="#263238"/>
<path d="M217.998 56.1923C217.998 56.6725 217.741 57.0623 217.421 57.0623C217.1 57.0623 216.836 56.6725 216.836 56.1923C216.836 55.712 217.1 55.3223 217.421 55.3223C217.741 55.3223 217.998 55.6911 217.998 56.1923Z" fill="#263238"/>
<path d="M219.959 56.6099V61.28C219.576 61.3992 219.165 61.402 218.78 61.288C218.395 61.174 218.052 60.9484 217.795 60.6397L219.959 56.6099Z" fill="#ED893E"/>
<path d="M221.943 62.0945C221.943 62.0945 224.421 62.0945 225.326 60.0552" stroke="#263238" stroke-linecap="round" stroke-linejoin="round"/>
<path d="M222.766 52.2598C222.766 52.2598 224.923 52.0858 225.55 53.4291" stroke="#263238" stroke-linecap="round" stroke-linejoin="round"/>
<path d="M215.395 53.9025C215.564 53.4783 215.84 53.1043 216.194 52.8157C216.548 52.5272 216.97 52.3335 217.42 52.2529" stroke="#263238" stroke-linecap="round" stroke-linejoin="round"/>
<path opacity="0.2" d="M228.263 68.7759C227.282 70.2214 225.988 71.4275 224.477 72.3046C224.576 71.3793 224.576 70.4459 224.477 69.5206C225.775 69.523 227.062 69.27 228.263 68.7759Z" fill="black"/>
<path d="M223.217 80.5662L225.743 80.3296L226.453 85.6053L225.138 88.0204H223.634L222.229 85.4034L223.217 80.5662Z" fill="#263238"/>
<path d="M232.948 73.9819C230.43 76.5115 227.572 78.6782 224.457 80.4199L225.96 84.1505C225.96 84.1505 232.266 83.0647 234.967 75.5827L232.948 73.9819Z" fill="white"/>
<path d="M224.457 80.42L222.766 84.1505C222.766 84.1505 220.204 81.624 219.592 76.7451L222.766 74.7197C222.766 74.7197 222.884 78.3737 224.457 80.42Z" fill="white"/>
<path d="M223.746 86.6284L222.027 108.935L224.916 112.443L227.581 108.719L224.978 86.6284H223.746Z" fill="#263238"/>
<path d="M235.167 57.8626C235.167 57.8626 229.07 58.6004 228.061 49.7681C228.061 49.7681 217.322 52.9767 213.445 49.6846C209.568 46.3925 212.714 42.1121 212.714 42.1121C213.047 42.945 213.445 43.7502 213.904 44.5203V41.7363C214.556 42.5925 215.275 43.3955 216.055 44.1375C219.183 44.6409 222.388 44.0221 225.103 42.3905C229.759 39.6065 235.682 44.8892 234.589 48.9608C234.624 48.9816 239.872 53.0741 235.167 57.8626Z" fill="#263238"/>
<path d="M230.986 58.113C230.986 58.113 232.628 52.2875 235.329 54.3407C238.029 56.3939 234.18 62.129 232.301 61.8018C230.422 61.4747 230.986 58.113 230.986 58.113Z" fill="#FFB573"/>
<path d="M183.629 90.2963L189.503 87.0529C189.503 87.0529 195.816 99.2468 199.477 100.778C199.477 100.778 206.917 93.2682 209.367 83.8652L212.701 99.5392C212.701 99.5392 206.931 111.726 199.637 111.9C192.343 112.074 186.364 98.1959 183.629 90.2963Z" fill="#407BFF"/>
<path d="M238.571 92.092L247.424 106.304L245.948 128.319L252.609 129.62C252.609 129.62 257.738 114.308 255.463 102.72C253.813 94.3053 248.6 83.6356 242.552 78.5339C240.402 76.7718 237.742 75.7492 234.965 75.6177C234.965 75.6177 233.33 79.39 233.413 82.5777C233.497 85.7654 238.571 92.092 238.571 92.092Z" fill="#407BFF"/>
<path opacity="0.2" d="M243.904 100.639L238.572 92.0918C239.032 92.8296 243.904 107.599 243.904 107.599V100.639Z" fill="black"/>
<path opacity="0.2" d="M226.545 158.351C226.545 158.351 226.281 160.348 225.884 163.564L224.492 146.637L226.545 158.351Z" fill="black"/>
<path d="M251.767 261.401L257.168 258.888L255.616 254.649L254.481 251.552L249.832 252.909L248.969 253.299L250.298 257.162L251.767 261.401Z" fill="#FFB573"/>
<path opacity="0.2" d="M250.298 257.162L255.616 254.649L254.481 251.552L249.832 252.909L248.969 253.299L250.298 257.162Z" fill="black"/>
<path d="M250.668 262.111C250.668 262.111 246.617 257.406 245.392 258.527C244.167 259.647 250.668 262.111 250.668 262.111Z" stroke="#407BFF" stroke-miterlimit="10"/>
<path d="M250.354 262.208C250.354 262.208 246.484 260.677 245.775 262.166C245.065 263.656 250.354 262.208 250.354 262.208Z" stroke="#407BFF" stroke-miterlimit="10"/>
<path d="M251.419 259.076L257.063 256.793C257.458 256.635 257.898 256.639 258.29 256.804C258.681 256.97 258.991 257.284 259.151 257.677L260.975 262.208C261.054 262.403 261.094 262.612 261.093 262.823C261.091 263.033 261.048 263.242 260.966 263.436C260.884 263.63 260.765 263.805 260.614 263.953C260.464 264.101 260.286 264.217 260.091 264.296L244.048 270.776C243.853 270.856 243.643 270.897 243.432 270.895C243.221 270.894 243.012 270.85 242.818 270.767C242.623 270.684 242.448 270.564 242.3 270.412C242.153 270.261 242.037 270.082 241.96 269.885C241.817 269.533 241.803 269.142 241.922 268.781C242.04 268.42 242.283 268.113 242.607 267.915C244.737 266.614 249.164 263.565 250.514 260.002C250.59 259.792 250.711 259.601 250.867 259.442C251.023 259.282 251.211 259.157 251.419 259.076Z" fill="#263238"/>
<path d="M212.305 266.725L218.255 266.579L218.52 262.069L218.715 258.777L213.912 258.171L212.966 258.185L212.646 262.257L212.305 266.725Z" fill="#FFB573"/>
<path opacity="0.2" d="M212.645 262.257L218.519 262.069L218.714 258.777L213.911 258.171L212.965 258.185L212.645 262.257Z" fill="black"/>
<path d="M211.009 266.941C211.009 266.941 209.172 261.011 207.606 261.554C206.04 262.097 211.009 266.941 211.009 266.941Z" stroke="#407BFF" stroke-miterlimit="10"/>
<path d="M210.669 266.934C210.669 266.934 207.732 263.983 206.493 265.069C205.254 266.154 210.669 266.934 210.669 266.934Z" stroke="#407BFF" stroke-miterlimit="10"/>
<path d="M212.911 264.456L219.001 264.616C219.212 264.622 219.42 264.669 219.613 264.755C219.806 264.841 219.98 264.964 220.126 265.117C220.271 265.27 220.385 265.45 220.461 265.647C220.536 265.845 220.572 266.055 220.567 266.266L220.435 271.138C220.429 271.349 220.382 271.557 220.296 271.749C220.21 271.942 220.087 272.116 219.934 272.26C219.781 272.405 219.6 272.518 219.403 272.593C219.206 272.668 218.996 272.704 218.785 272.697L201.489 272.245C201.279 272.239 201.071 272.192 200.878 272.106C200.686 272.02 200.512 271.897 200.367 271.744C200.222 271.591 200.109 271.41 200.034 271.213C199.959 271.016 199.924 270.806 199.93 270.595C199.942 270.214 200.088 269.85 200.343 269.567C200.598 269.284 200.945 269.101 201.322 269.05C203.8 268.702 209.069 267.658 211.728 264.937C211.882 264.78 212.066 264.657 212.27 264.575C212.473 264.492 212.691 264.452 212.911 264.456Z" fill="#263238"/>
<path d="M246.541 256.557L243.555 251.358L256.549 246.548L257.461 253.439L246.541 256.557Z" fill="#407BFF"/>
<path d="M208.852 253.397V260.12H222.486L223.008 253.397H208.852Z" fill="#407BFF"/>
<path d="M281.633 89.0573C281.633 89.0573 277.68 104.648 273.504 109.478C273.504 109.478 265.924 101.905 263.621 95.3143C263.621 95.3143 263.405 92.238 261.205 90.9226L257.913 86.4194L252.422 88.3961L253.737 92.7878L259.451 95.9755C259.451 95.9755 266.697 115.958 273.281 115.846C279.865 115.735 282.837 106.951 282.837 106.951L286.456 88.1594L281.633 89.0573Z" fill="#FF8B7B"/>
<path d="M259.584 97.8476L263.649 95.3141C263.649 95.3141 270.567 106.617 273.803 108.886C273.803 108.886 277.833 101.536 279.211 95.4881C279.934 92.1971 280.824 88.9449 281.877 85.7441L286.484 92.4188C286.484 92.4188 283.457 113.675 277.193 115.832C270.929 117.99 267.386 111.872 265.959 109.464C264.533 107.056 259.584 97.8476 259.584 97.8476Z" fill="#263238"/>
<path d="M294.418 250.857C294.418 251.114 298.594 257.016 298.594 257.016L302.965 251.365L298.253 244.69L294.418 250.857Z" fill="#FF8B7B"/>
<path d="M296.624 254.761L301.148 249.854C301.466 249.512 301.907 249.31 302.374 249.291C302.841 249.273 303.296 249.44 303.64 249.757L307.565 253.39C307.735 253.546 307.873 253.735 307.97 253.945C308.067 254.154 308.121 254.381 308.13 254.612C308.139 254.843 308.103 255.073 308.022 255.29C307.942 255.507 307.82 255.705 307.663 255.875L294.8 269.795C294.483 270.135 294.043 270.336 293.578 270.354C293.113 270.372 292.659 270.206 292.316 269.892C292.009 269.609 291.812 269.227 291.761 268.812C291.71 268.398 291.808 267.979 292.037 267.63C293.541 265.34 296.492 260.259 296.165 256.09C296.145 255.849 296.176 255.606 296.255 255.377C296.334 255.149 296.459 254.939 296.624 254.761Z" fill="#263238"/>
<path d="M285.043 248.114L297.738 236.978L302.408 246.673L293.729 254.218L285.043 248.114Z" fill="#407BFF"/>
<path d="M280.402 121.929C280.402 121.929 266.711 181.695 266.482 196.032C266.252 210.37 278.759 235.238 286.666 246.882L297.314 238.412L281.884 200.828L289.046 154.029L297.314 248.852L307.532 250.16C307.532 250.16 308.833 214.302 307.532 201.266C306.23 188.23 313.469 143.895 308.109 126.94L280.402 121.929Z" fill="#263238"/>
<path d="M308.143 126.926C308.143 126.926 310.475 104.696 314.95 95.9892L316.69 85.9181C316.69 85.9181 313.454 81.9369 306.118 82.0622C298.782 82.1875 295.552 81.3662 295.552 81.3662C295.552 81.3662 285.969 80.7189 283.72 82.8348C281.472 84.9506 281.361 94.5276 280.985 99.1281C280.609 103.729 279.732 124.88 279.732 124.88L308.143 126.926Z" fill="#407BFF"/>
<path d="M307.497 81.3247C307.497 81.3247 296.472 94.2355 298.56 126.927L311.45 129.14L309.696 115.582L317.958 90.7973C317.958 90.7973 319.691 83.0786 307.497 81.3247Z" fill="#263238"/>
<path d="M294.927 81.3248C294.927 81.3248 283.053 89.997 282.141 123.273L275.926 123.447L281.014 96.8317C280.12 94.4296 280.004 91.8078 280.679 89.3358C281.375 86.9415 282.127 84.1297 283.728 82.8073C286.275 80.6984 290.333 80.8794 294.927 81.3248Z" fill="#263238"/>
<path d="M309.473 89.1339C309.473 89.1339 316.865 107.077 315.041 114.336C315.041 114.336 302.291 111.058 296.409 105.358C296.409 105.358 294.565 102.247 291.537 102.017L285.719 99.031L281 103.987L284.689 107.898L292.345 108.239C292.345 108.239 310.441 125.395 317.303 121.818C320.512 120.141 321.89 116.883 322.447 113.891C322.966 110.954 322.804 107.937 321.974 105.072L317.067 87.5122L309.473 89.1339Z" fill="#FF8B7B"/>
<path d="M291.879 109.951L296.918 104.091C296.918 104.091 308.11 112.721 315.014 114.336C314.412 108.44 313.482 102.583 312.23 96.7899L308.75 90.7973L309.07 88.2778L317.506 87.1851C317.506 87.1851 325.162 108.587 323.129 116.299C321.097 124.01 316.733 124.776 309.383 121.929C302.034 119.083 291.879 109.951 291.879 109.951Z" fill="#263238"/>
<path d="M307.67 265.66H300.661L300.258 259.828L300.056 256.911L299.938 255.227L307.663 255.874V259.828L307.67 265.66Z" fill="#FF8B7B"/>
<path d="M300.362 263.05H307.036C307.503 263.05 307.951 263.236 308.281 263.566C308.612 263.896 308.797 264.344 308.797 264.811V270.163C308.795 270.629 308.609 271.075 308.279 271.404C307.949 271.733 307.502 271.917 307.036 271.917H288.077C287.846 271.918 287.618 271.874 287.404 271.786C287.19 271.698 286.996 271.569 286.833 271.406C286.669 271.243 286.539 271.049 286.451 270.836C286.362 270.623 286.316 270.394 286.316 270.163C286.316 269.746 286.463 269.343 286.732 269.024C287.001 268.706 287.374 268.493 287.785 268.423C290.492 267.978 296.227 266.697 299.067 263.621C299.232 263.442 299.432 263.298 299.655 263.2C299.877 263.102 300.118 263.051 300.362 263.05Z" fill="#263238"/>
<path opacity="0.1" d="M307.496 81.3247C306.226 83.0041 305.152 84.8232 304.295 86.7465C301.799 92.2536 300.127 98.0975 299.332 104.091L307.496 97.4789L305.721 91.7925L315.653 84.582C315.653 84.582 313.057 81.9441 307.496 81.3247Z" fill="white"/>
<path opacity="0.1" d="M285.295 99.5947C285.295 99.5947 289.227 85.5703 294.927 81.3247C294.927 81.3247 288.169 80.3851 285.058 81.965L285.754 91.7925L282.852 92.7043L285.295 99.5947Z" fill="white"/>
<path d="M315.793 58.1059C317.129 61.4536 315.695 65.219 315.828 68.8173C315.883 70.4599 316.273 72.0746 316.315 73.6893C316.357 75.304 315.981 77.0858 314.777 78.2063C313.691 79.2295 312.139 79.5357 310.677 79.8071C308.394 80.2178 305.917 80.6075 303.87 79.5218C303.397 79.2712 302.966 78.9511 302.478 78.7423C301.467 78.3971 300.388 78.3039 299.332 78.4708C298.28 78.6403 297.204 78.5882 296.173 78.3177C292.915 77.1832 295.156 72.701 295.713 70.4042C296.572 66.8871 297.425 63.3723 298.274 59.8598C301.789 59.1638 305.276 58.1894 308.798 57.4795C309.948 57.1514 311.159 57.099 312.334 57.3263C313.433 57.6604 314.693 58.4608 315.793 58.1059Z" fill="#263238"/>
<path d="M315.884 65.0243C315.611 65.9386 315.025 66.7274 314.228 67.2515C313.413 67.683 313.288 68.4486 313.358 69.3395C313.504 71.4275 314.638 74.3785 310.734 76.0489C310.16 76.3358 309.516 76.451 308.879 76.3806C308.242 76.3102 307.639 76.0573 307.142 75.6522C304.4 73.4877 303.53 67.4185 303.53 67.4185L298.561 53.0879C298.577 53.0569 298.598 53.0287 298.623 53.0044L298.665 52.9278C298.682 52.8993 298.703 52.8735 298.728 52.8513C298.904 52.6062 299.097 52.3736 299.305 52.1553C299.461 51.9749 299.626 51.8029 299.799 51.6402C301.616 49.9559 305.367 47.8053 310.748 51.3966C316.657 55.3499 317.165 61.6069 315.884 65.0243Z" fill="#263238"/>
<path d="M316.169 66.2353C316.231 67.8988 314.7 68.8523 313.385 69.3743C312.742 69.6165 312.078 69.7959 311.401 69.9102C310.176 71.9495 307.524 73.3902 307.524 73.3902C307.327 74.1462 307.208 74.9206 307.169 75.7009C307.098 77.5896 307.217 79.4806 307.524 81.3455L305.729 84.1295C298.247 87.5538 295.581 81.3455 295.581 81.3455C298.323 81.0532 299.2 78.7494 299.458 76.8145C299.563 75.9268 299.563 75.0296 299.458 74.1419C298.242 73.6302 297.166 72.836 296.319 71.8253C295.471 70.8146 294.877 69.6165 294.586 68.3303C293.702 64.5858 294.426 61.0641 295.978 57.6049C296.602 56.2247 297.349 54.9038 298.212 53.6586L298.56 53.0949C298.576 53.0638 298.597 53.0356 298.622 53.0113C298.652 52.9571 298.687 52.9059 298.727 52.8582V52.8095C298.852 52.6494 299.033 52.4197 299.27 52.1692H299.311L308.701 50.9512L312.779 54.2085L314.206 62.2821L312.118 64.7668L311.248 65.8038L311.032 66.0544L311.304 65.8247C312.96 64.4327 315.076 63.7367 315.848 65.0521C316.048 65.4152 316.158 65.821 316.169 66.2353Z" fill="#FF8B7B"/>
<path d="M303.487 60.2077C303.369 60.7019 303.007 61.0429 302.686 60.9664C302.366 60.8898 302.192 60.4235 302.311 59.9224C302.429 59.4213 302.791 59.0872 303.118 59.1637C303.445 59.2403 303.612 59.7066 303.487 60.2077Z" fill="#263238"/>
<path d="M298.143 58.7675C298.025 59.2686 297.663 59.6096 297.336 59.5331C297.009 59.4565 296.842 58.9832 296.96 58.4891C297.078 57.9949 297.44 57.6469 297.767 57.7235C298.094 57.8 298.261 58.2803 298.143 58.7675Z" fill="#263238"/>
<path d="M303.202 59.1989L301.914 58.5029C301.914 58.5029 302.137 59.8184 303.202 59.1989Z" fill="#263238"/>
<path d="M297.864 57.8L296.576 57.104C296.576 57.104 296.82 58.4264 297.864 57.8Z" fill="#263238"/>
<path d="M299.451 59.3589L298.226 63.7646C298.061 63.8165 297.887 63.8346 297.714 63.8176C297.542 63.8007 297.374 63.749 297.222 63.6658C297.07 63.5827 296.937 63.4696 296.829 63.3335C296.722 63.1974 296.643 63.041 296.598 62.8737L299.451 59.3589Z" fill="#FF5652"/>
<path d="M299.715 66.8268C299.715 66.8268 302.756 67.2792 303.626 64.7388" stroke="#263238" stroke-linecap="round" stroke-linejoin="round"/>
<path d="M303.529 56.7557C303.787 56.6208 304.069 56.5399 304.359 56.5179C304.649 56.4958 304.94 56.5332 305.215 56.6277C305.49 56.7221 305.743 56.8717 305.958 57.0673C306.173 57.2628 306.346 57.5002 306.466 57.7649" stroke="#263238" stroke-linecap="round" stroke-linejoin="round"/>
<path d="M299.291 54.9324C299.062 54.779 298.802 54.6763 298.53 54.6311C298.258 54.586 297.979 54.5994 297.712 54.6705C297.445 54.7417 297.197 54.8689 296.983 55.0437C296.769 55.2184 296.595 55.4368 296.473 55.6841" stroke="#263238" stroke-linecap="round" stroke-linejoin="round"/>
<path d="M314.944 62.3933L311.339 65.7967H311.283C305.256 63.8479 306.467 52.7119 306.467 52.7119C304.762 53.7977 298.721 53.1991 298.561 53.0739C298.887 52.5911 299.263 52.1433 299.681 51.7375C299.946 51.48 300.788 51.5566 301.136 51.5287L303.356 51.3547L307.852 50.9928C307.984 50.9928 308.611 50.8327 308.722 50.9232L312.801 54.1805L314.944 62.3933Z" fill="#263238"/>
<path opacity="0.2" d="M302.527 74.615C301.741 75.6429 300.66 76.4075 299.43 76.8074C299.535 75.9197 299.535 75.0225 299.43 74.1348C300.431 74.4523 301.476 74.6143 302.527 74.615Z" fill="black"/>
<path opacity="0.3" d="M287.543 164.058L288.316 144.188L289.081 154.015L287.543 164.058Z" fill="black"/>
<path opacity="0.1" d="M307.664 256.55V259.828H300.258L300.057 256.912L307.664 256.55Z" fill="black"/>
<path d="M295.824 248.594L297.62 258.652H308.631L310.148 248.114L295.824 248.594Z" fill="#407BFF"/>
</svg>
