<svg width="444" height="274" viewBox="0 0 444 274" fill="none" xmlns="http://www.w3.org/2000/svg">
<path d="M77.8878 10.9235C79.5396 8.75868 82.0827 7.45813 84.8048 7.38612L358.001 0.1587C361.634 0.0626015 364.968 2.16037 366.453 5.47671L442.227 174.659C443.052 176.499 443.234 178.564 442.745 180.52L421.204 266.683C420.203 270.689 416.603 273.5 412.473 273.5H33.6594C29.2444 273.5 25.4812 270.297 24.7752 265.939L0.619014 116.821C0.22384 114.382 0.849127 111.887 2.34821 109.923L77.8878 10.9235Z" fill="#F4F4F4"/>
<path d="M383.5 251.295H59.5V251.457H383.5V251.295Z" fill="#EBEBEB"/>
<path d="M114.956 257.464H93.4941V257.626H114.956V257.464Z" fill="#EBEBEB"/>
<path d="M176.03 255.708H158.93V255.87H176.03V255.708Z" fill="#EBEBEB"/>
<path d="M147.557 261.288H117.801V261.45H147.557V261.288Z" fill="#EBEBEB"/>
<path d="M351.036 262.396H337.039V262.558H351.036V262.396Z" fill="#EBEBEB"/>
<path d="M333.888 262.396H313.172V262.558H333.888V262.396Z" fill="#EBEBEB"/>
<path d="M274.851 259.661H239.133V259.823H274.851V259.661Z" fill="#EBEBEB"/>
<path d="M213.076 222.395H87.9534C86.9732 222.393 86.0337 222.002 85.3412 221.309C84.6487 220.615 84.2598 219.675 84.2598 218.694V42.8078C84.2683 41.8332 84.661 40.9014 85.3526 40.2147C86.0442 39.5279 86.9788 39.1418 87.9534 39.1401H213.076C214.057 39.1401 214.998 39.53 215.692 40.2239C216.386 40.9178 216.776 41.8589 216.776 42.8402V218.694C216.776 219.676 216.386 220.617 215.692 221.311C214.998 222.005 214.057 222.395 213.076 222.395ZM87.9534 39.2697C87.0161 39.2715 86.1179 39.645 85.4558 40.3083C84.7936 40.9716 84.4218 41.8706 84.4218 42.8078V218.694C84.4218 219.632 84.7936 220.531 85.4558 221.194C86.1179 221.857 87.0161 222.231 87.9534 222.233H213.076C214.014 222.231 214.912 221.858 215.576 221.194C216.239 220.531 216.612 219.632 216.614 218.694V42.8078C216.612 41.87 216.239 40.9711 215.576 40.3079C214.912 39.6448 214.014 39.2715 213.076 39.2697H87.9534Z" fill="#EBEBEB"/>
<path d="M353.245 222.395H228.116C227.135 222.393 226.195 222.002 225.502 221.309C224.808 220.615 224.418 219.675 224.416 218.694V42.8078C224.426 41.8327 224.82 40.9008 225.513 40.2143C226.206 39.5277 227.141 39.1418 228.116 39.1401H353.245C354.218 39.1435 355.151 39.5304 355.842 40.2169C356.532 40.9035 356.923 41.8344 356.932 42.8078V218.694C356.932 219.674 356.544 220.613 355.853 221.306C355.162 222 354.224 222.391 353.245 222.395ZM228.116 39.2697C227.178 39.2715 226.279 39.6448 225.616 40.3079C224.953 40.9711 224.58 41.87 224.578 42.8078V218.694C224.58 219.632 224.953 220.531 225.616 221.194C226.279 221.858 227.178 222.231 228.116 222.233H353.245C354.183 222.231 355.082 221.858 355.745 221.194C356.408 220.531 356.781 219.632 356.783 218.694V42.8078C356.781 41.87 356.408 40.9711 355.745 40.3079C355.082 39.6448 354.183 39.2715 353.245 39.2697H228.116Z" fill="#EBEBEB"/>
<path d="M115.384 147.998L327.047 147.998V56.1824L115.384 56.1824V147.998Z" fill="#C9C9C9"/>
<path d="M112.467 147.998L325.775 147.998V56.1824L112.467 56.1824V147.998Z" fill="#F5F5F5"/>
<path d="M320.541 142.703V61.4766L117.698 61.4766V142.703H320.541Z" fill="#FAFAFA"/>
<path d="M203.945 142.704L180.812 61.4834H164.67L187.804 142.704H203.945Z" fill="white"/>
<path d="M183.223 142.704L160.096 61.4834H148.977L172.11 142.704H183.223Z" fill="white"/>
<path d="M301.062 142.704L277.935 61.4834H261.787L284.921 142.704H301.062Z" fill="white"/>
<path d="M280.344 142.704L257.211 61.4834H246.098L269.225 142.704H280.344Z" fill="white"/>
<path d="M162.539 142.703V61.4766H156.292V142.703H162.539Z" fill="#C9C9C9"/>
<path d="M286.131 142.71V61.4834H279.884V142.71H286.131Z" fill="#C9C9C9"/>
<path d="M161.41 146.067V57.5435H153.518V146.067H161.41Z" fill="#F5F5F5"/>
<path d="M285.01 146.067V57.5435H277.117V146.067H285.01Z" fill="#F5F5F5"/>
<path d="M118.254 142.71V61.4834H117.697V142.71H118.254Z" fill="#C9C9C9"/>
<path d="M110.265 49.3784H332.737C332.908 49.3784 333.073 49.4467 333.195 49.5682C333.316 49.6897 333.385 49.8546 333.385 50.0264C333.385 50.1983 333.316 50.3631 333.195 50.4846C333.073 50.6061 332.908 50.6744 332.737 50.6744H110.265C110.093 50.6744 109.929 50.6061 109.807 50.4846C109.685 50.3631 109.617 50.1983 109.617 50.0264C109.617 49.8546 109.685 49.6897 109.807 49.5682C109.929 49.4467 110.093 49.3784 110.265 49.3784Z" fill="#C9C9C9"/>
<path d="M327.04 53.8303C327.281 53.8303 327.513 53.7349 327.684 53.565C327.855 53.395 327.952 53.1643 327.954 52.9231V50.9791C327.954 50.7368 327.857 50.5044 327.686 50.333C327.515 50.1617 327.282 50.0654 327.04 50.0654C326.799 50.0671 326.568 50.1642 326.398 50.3353C326.228 50.5065 326.133 50.7379 326.133 50.9791V52.9231C326.133 53.1637 326.228 53.3945 326.399 53.5646C326.569 53.7347 326.799 53.8303 327.04 53.8303Z" fill="#C9C9C9"/>
<path d="M120.444 53.8303C120.686 53.8303 120.917 53.7349 121.088 53.565C121.259 53.395 121.356 53.1643 121.358 52.9231V50.9791C121.358 50.7368 121.262 50.5044 121.09 50.333C120.919 50.1617 120.687 50.0654 120.444 50.0654C120.203 50.0671 119.972 50.1642 119.802 50.3353C119.632 50.5065 119.537 50.7379 119.537 50.9791V52.9231C119.537 53.1637 119.633 53.3945 119.803 53.5646C119.973 53.7347 120.204 53.8303 120.444 53.8303Z" fill="#C9C9C9"/>
<path opacity="0.6" d="M110.477 73.0176L323.695 73.0176V50.0525L110.477 50.0525V73.0176Z" fill="#E0E0E0"/>
<path d="M185.704 218.442C188.004 217.664 189.67 215.448 188.212 213.174C185.794 209.415 191.84 208.638 190.156 202.333C187.764 193.455 180.332 201.147 178.492 192.613C177.15 186.411 166.737 182.348 166.329 190.513C165.881 199.449 161.404 193.611 160.406 203.551C159.719 210.42 169.478 211.418 166.581 213.569C164.449 215.137 163.186 217.872 166.16 219.744C170.217 222.291 166.387 224.28 169.147 226.056C171.908 227.831 172.348 225 176.625 226.38C180.448 227.611 183.688 223.833 182.93 221.468C182.198 219.284 183.397 219.226 185.704 218.442Z" fill="#C9C9C9"/>
<path d="M163.602 222.524C163.602 222.524 163.913 251.295 175.972 251.295C188.031 251.295 188.342 222.524 188.342 222.524H163.602Z" fill="#F0F0F0"/>
<path d="M152.124 218.442C154.418 217.664 156.09 215.448 154.626 213.174C152.209 209.415 158.261 208.638 156.57 202.333C154.172 193.455 146.739 201.147 144.906 192.613C143.564 186.411 133.151 182.348 132.743 190.513C132.296 199.449 127.818 193.611 126.82 203.551C126.133 210.42 135.892 211.418 132.995 213.569C130.863 215.137 129.6 217.872 132.581 219.744C136.631 222.291 132.807 224.28 135.561 226.056C138.315 227.831 138.763 225 143.039 226.38C146.869 227.611 150.109 223.833 149.344 221.468C148.612 219.284 149.811 219.226 152.124 218.442Z" fill="#C9C9C9"/>
<path d="M130.016 222.524C130.016 222.524 130.333 251.295 142.386 251.295C154.439 251.295 154.756 222.524 154.756 222.524H130.016Z" fill="#F0F0F0"/>
<path d="M257.562 190.694C259.298 171.468 260.51 140.261 259.571 129.821C259.556 129.645 259.505 129.473 259.422 129.317C259.338 129.161 259.223 129.024 259.085 128.914C258.898 128.767 258.673 128.679 258.436 128.66C258.2 128.641 257.963 128.692 257.755 128.806C257.548 128.921 257.379 129.095 257.269 129.305C257.16 129.516 257.115 129.754 257.141 129.99C257.309 135.174 257.497 148.088 256.493 170.393C255.981 181.493 255.242 189.094 255.747 190.694H257.562Z" fill="#F0F0F0"/>
<path d="M262.914 150.881C267.075 145.697 275.563 141.965 284.214 141.984C287.61 141.984 273.879 148.043 268.17 154.724C263.737 159.908 258.735 168.643 257.037 173.484C258.132 163.291 258.761 156.091 262.914 150.881Z" fill="#F0F0F0"/>
<path d="M254.224 150.829C250.116 145.101 240.616 140.695 230.345 140.196C226.308 140.001 241.66 147.188 247.381 154.555C251.833 160.277 256.395 169.764 257.646 174.961C257.95 164.204 258.339 156.558 254.224 150.829Z" fill="#F0F0F0"/>
<path d="M262.914 159.247C267.075 154.063 275.563 150.33 284.214 150.35C287.61 150.35 273.879 156.408 268.17 163.089C263.737 168.273 258.735 177.008 257.037 181.881C258.132 171.656 258.761 164.457 262.914 159.247Z" fill="#F0F0F0"/>
<path d="M254.224 159.668C250.116 153.94 240.616 149.534 230.345 149.035C226.308 148.84 241.66 156.027 247.381 163.394C251.833 169.123 256.395 178.603 257.646 183.8C257.95 173.004 258.339 165.39 254.224 159.668Z" fill="#F0F0F0"/>
<path d="M262.168 131.201C264.89 127.313 270.715 124.307 276.8 123.898C279.191 123.736 269.769 128.668 266.011 133.618C263.088 137.506 259.907 143.87 258.883 147.362C259.278 140.163 259.44 135.044 262.168 131.201Z" fill="#F0F0F0"/>
<path d="M256.75 132.834C253.854 128.797 247.16 125.706 239.902 125.344C237.058 125.207 247.873 130.275 251.91 135.465C255.046 139.496 258.26 146.183 259.141 149.844C259.375 142.243 259.653 136.871 256.75 132.834Z" fill="#F0F0F0"/>
<path d="M263.101 136.223C266.619 131.81 273.806 128.674 281.135 128.687C284.012 128.687 272.387 133.819 267.527 139.476C263.768 143.87 259.537 151.263 258.092 155.365C259.083 146.708 259.582 140.63 263.101 136.223Z" fill="#F0F0F0"/>
<path d="M255.954 138.569C252.468 133.748 244.426 129.99 235.756 129.568C232.341 129.4 245.333 135.491 250.18 141.725C253.9 146.572 257.788 154.601 258.851 159.02C259.084 149.87 259.434 143.423 255.954 138.569Z" fill="#F0F0F0"/>
<path d="M263.334 142.341C267.131 137.585 274.888 134.195 282.774 134.215C285.878 134.215 273.339 139.749 268.123 145.879C264.073 150.622 259.504 158.593 257.949 163.019C258.967 153.681 259.537 147.097 263.334 142.341Z" fill="#F0F0F0"/>
<path d="M255.404 144.946C251.516 139.561 242.613 135.42 232.951 134.954C229.16 134.766 243.585 141.524 248.969 148.451C253.156 153.836 257.445 162.753 258.625 167.639C258.903 157.491 259.273 150.337 255.404 144.946Z" fill="#F0F0F0"/>
<path d="M245.871 187.448L246.519 192.846C246.554 193.429 246.81 193.977 247.235 194.378C247.66 194.779 248.222 195.003 248.806 195.003H264.916C265.5 195.003 266.062 194.779 266.487 194.378C266.912 193.977 267.168 193.429 267.203 192.846L267.851 187.448C267.869 187.137 267.823 186.825 267.716 186.533C267.609 186.24 267.443 185.972 267.229 185.746C267.014 185.52 266.756 185.339 266.47 185.216C266.184 185.093 265.875 185.03 265.564 185.031H248.158C247.847 185.03 247.538 185.093 247.252 185.216C246.966 185.339 246.707 185.52 246.493 185.746C246.279 185.972 246.113 186.24 246.006 186.533C245.899 186.825 245.853 187.137 245.871 187.448Z" fill="#C9C9C9"/>
<path d="M244.913 188.588H268.805C268.974 188.588 269.137 188.526 269.264 188.414C269.39 188.301 269.471 188.147 269.492 187.979L270.062 182.834C270.072 182.738 270.062 182.64 270.032 182.548C270.002 182.456 269.953 182.371 269.888 182.299C269.823 182.227 269.744 182.17 269.656 182.13C269.568 182.09 269.472 182.07 269.375 182.069H244.343C244.246 182.07 244.15 182.09 244.062 182.13C243.974 182.17 243.895 182.227 243.83 182.299C243.765 182.371 243.716 182.456 243.686 182.548C243.656 182.64 243.646 182.738 243.656 182.834L244.226 187.979C244.247 188.147 244.328 188.301 244.454 188.414C244.581 188.526 244.744 188.588 244.913 188.588Z" fill="#F5F5F5"/>
<path d="M209.148 251.295H219.529V195.004H209.148V251.295Z" fill="#C9C9C9"/>
<path d="M212.259 251.295H209.148V240.519H215.518L212.259 251.295Z" fill="#F0F0F0"/>
<path d="M338.471 251.295H348.852V195.004H338.471V251.295Z" fill="#C9C9C9"/>
<path d="M209.148 244.686L341.191 244.686V195.003H209.148V244.686Z" fill="#F0F0F0"/>
<path d="M338.076 251.295H341.186V240.519H334.816L338.076 251.295Z" fill="#F0F0F0"/>
<path d="M211.56 218.383L338.775 218.383V198.503H211.56V218.383Z" fill="#C9C9C9"/>
<path d="M230.202 204.678H318.051C321.084 204.678 323.987 202.222 326.08 197.894H222.18C224.266 202.222 227.169 204.678 230.202 204.678Z" fill="#F0F0F0"/>
<path d="M211.56 241.472L338.775 241.472V221.591H211.56V241.472Z" fill="#C9C9C9"/>
<path d="M230.202 227.766H318.051C321.084 227.766 323.987 225.317 326.08 220.988H222.18C224.266 225.317 227.169 227.766 230.202 227.766Z" fill="#F0F0F0"/>
<path d="M339.591 181.811C339.591 181.811 339.021 195.004 317.261 195.004C295.501 195.004 294.938 181.811 294.938 181.811H339.591Z" fill="#F5F5F5"/>
<path d="M339.591 174.961C339.591 174.961 339.021 188.18 317.261 188.18C295.501 188.18 294.938 174.987 294.938 174.987L339.591 174.961Z" fill="#F5F5F5"/>
<path d="M297.9 91.2196C294.012 93.345 292.716 99.6436 294.536 102.385C287.797 104.406 291.296 115.993 302.312 116.641C313.328 117.289 321.714 113.265 316.303 104.672C321.655 97.4598 319.193 89.4052 314.501 90.2929C309.466 80.2036 292.605 80.5017 297.9 91.2196Z" fill="#263238"/>
<path d="M309.627 117.418C307.928 117.413 306.262 116.947 304.806 116.07C304.783 116.062 304.762 116.048 304.744 116.031C304.727 116.013 304.714 115.992 304.705 115.969C304.697 115.945 304.694 115.921 304.696 115.896C304.698 115.871 304.706 115.847 304.719 115.826C304.731 115.805 304.748 115.787 304.769 115.773C304.789 115.759 304.813 115.749 304.837 115.746C304.862 115.742 304.887 115.743 304.91 115.75C304.934 115.757 304.956 115.769 304.975 115.785C306.852 116.909 309.071 117.322 311.227 116.948C313.383 116.575 315.333 115.44 316.723 113.75C318.492 111.56 319.315 108.048 316.224 104.769C316.209 104.753 316.198 104.735 316.19 104.715C316.182 104.694 316.178 104.673 316.179 104.651C316.18 104.629 316.184 104.608 316.193 104.588C316.202 104.569 316.215 104.551 316.231 104.536C316.246 104.521 316.265 104.509 316.285 104.502C316.305 104.494 316.327 104.49 316.349 104.491C316.37 104.491 316.392 104.496 316.411 104.505C316.431 104.514 316.449 104.527 316.464 104.542C319.665 107.977 318.829 111.67 316.976 113.958C316.078 115.036 314.955 115.905 313.685 116.503C312.416 117.101 311.031 117.413 309.627 117.418Z" fill="#263238"/>
<path d="M293.318 104.536C293.285 104.535 293.253 104.524 293.226 104.504C293.2 104.485 293.18 104.457 293.169 104.426C291.445 99.4882 293.752 92.8592 297.828 91.0448C297.868 91.0306 297.912 91.0314 297.951 91.0468C297.99 91.0623 298.023 91.0915 298.042 91.129C298.051 91.1486 298.055 91.1696 298.056 91.191C298.056 91.2123 298.052 91.2336 298.044 91.2534C298.037 91.2733 298.025 91.2914 298.01 91.3068C297.995 91.3221 297.977 91.3344 297.958 91.3428C294.018 93.0924 291.795 99.5206 293.474 104.303C293.481 104.323 293.484 104.345 293.482 104.366C293.481 104.388 293.475 104.409 293.465 104.428C293.456 104.448 293.442 104.465 293.426 104.479C293.41 104.493 293.39 104.504 293.37 104.51L293.318 104.536Z" fill="#263238"/>
<path d="M292.261 97.4013H292.203C292.163 97.3854 292.132 97.3551 292.114 97.3167C292.096 97.2782 292.093 97.2344 292.106 97.194C293.272 94.103 295.475 91.7508 297.847 91.0509C297.888 91.0389 297.932 91.0437 297.97 91.0644C298.008 91.085 298.036 91.1198 298.048 91.1611C298.06 91.2023 298.055 91.2467 298.034 91.2843C298.014 91.322 297.979 91.3499 297.938 91.362C295.663 92.01 293.544 94.3104 292.41 97.3106C292.397 97.3384 292.375 97.3617 292.349 97.3777C292.323 97.3938 292.292 97.402 292.261 97.4013Z" fill="#263238"/>
<path d="M301.333 269.77L297.588 269.776L296.959 255.708L303.264 255.864L301.333 269.77Z" fill="#FFB573"/>
<path d="M294.822 148.373C294.822 148.373 294.492 187.415 293.669 204.412C293.636 204.917 293.636 205.424 293.669 205.929C294.9 222.964 296.941 255.708 296.941 255.708L303.285 255.87C303.285 255.87 308.813 229.723 305.391 206.039C310.893 179.25 313.854 155.346 308.871 148.367L294.822 148.373Z" fill="#4D61FC"/>
<path opacity="0.2" d="M305.448 163.88C303.504 170.399 305.396 191.355 306.401 201.023C307.768 194.038 308.935 187.318 309.796 181.123L305.448 163.88Z" fill="black"/>
<path d="M297.167 267.955H302.034C302.136 267.951 302.236 267.987 302.313 268.054C302.39 268.121 302.439 268.216 302.449 268.318L302.941 272.303C302.944 272.426 302.922 272.549 302.876 272.664C302.831 272.778 302.763 272.883 302.677 272.971C302.59 273.059 302.487 273.129 302.374 273.177C302.26 273.224 302.138 273.249 302.014 273.249C299.87 273.249 298.846 273.094 296.144 273.1C294.478 273.1 293.474 273.268 291.173 273.268C288.873 273.268 288.873 271.065 289.838 270.864C294.174 269.964 294.731 269.465 296.241 268.272C296.506 268.067 296.832 267.955 297.167 267.955Z" fill="#263238"/>
<path d="M298.768 119.641C298.528 120.982 298.256 122.233 297.964 123.529C297.673 124.825 297.375 126.121 297.031 127.417C296.351 130.009 295.644 132.549 294.711 135.115C294.243 136.442 293.698 137.74 293.078 139.003C292.735 139.704 292.339 140.378 291.893 141.018C291.763 141.193 291.646 141.362 291.478 141.556C291.317 141.763 291.137 141.954 290.94 142.127C290.443 142.596 289.844 142.944 289.19 143.144C288.505 143.351 287.778 143.38 287.078 143.228C286.527 143.101 286.001 142.882 285.523 142.58C284.797 142.115 284.153 141.533 283.618 140.856C282.699 139.713 281.966 138.431 281.447 137.059C281.333 136.767 281.323 136.445 281.419 136.147C281.515 135.849 281.711 135.593 281.973 135.423C282.236 135.252 282.549 135.177 282.861 135.211C283.172 135.245 283.462 135.385 283.682 135.608L283.76 135.692C284.564 136.541 285.431 137.33 286.352 138.051C286.712 138.326 287.112 138.544 287.538 138.699C287.694 138.738 287.804 138.738 287.817 138.699C287.83 138.66 287.726 138.634 287.635 138.64C287.544 138.647 287.486 138.679 287.512 138.64C287.543 138.584 287.577 138.53 287.616 138.478C287.68 138.4 287.737 138.315 287.784 138.226C288.056 137.779 288.294 137.314 288.497 136.832C288.969 135.722 289.384 134.589 289.741 133.437C290.48 131.065 291.154 128.596 291.737 126.114C292.32 123.633 292.897 121.099 293.415 118.624C293.575 117.939 293.994 117.343 294.584 116.962C295.174 116.58 295.888 116.441 296.578 116.575C297.268 116.71 297.879 117.106 298.282 117.681C298.686 118.257 298.851 118.966 298.742 119.66L298.768 119.641Z" fill="#FFB573"/>
<path d="M292.877 143.073C292.877 144.667 317.721 144.978 317.721 142.872L305.027 139.632L292.877 143.073Z" fill="#263238"/>
<path d="M297.439 115.461C303.989 114.366 310.682 114.432 317.209 115.656C317.592 115.717 317.959 115.855 318.286 116.063C318.613 116.27 318.895 116.543 319.113 116.863C319.331 117.184 319.481 117.546 319.553 117.927C319.626 118.307 319.62 118.699 319.536 119.077C316.024 134.804 316.224 140.092 316.561 148.373H294.827C293.739 134.558 293.162 126.672 293.02 122.194C292.903 118.779 294.076 115.96 297.439 115.461Z" fill="#FFB573"/>
<path opacity="0.2" d="M317.144 120.03C317.007 122.225 317.298 124.425 318 126.51C318.278 125.013 318.602 123.406 318.972 121.65L317.144 120.03Z" fill="black"/>
<path d="M310.075 103.979C309.427 107.121 308.838 112.895 311.041 114.995C311.041 114.995 310.179 118.189 304.334 118.189C297.899 118.189 301.256 114.995 301.256 114.995C304.768 114.152 304.677 111.547 304.068 109.104L310.075 103.979Z" fill="#FFB573"/>
<path opacity="0.2" d="M307.626 106.072L304.068 109.124C304.219 109.693 304.321 110.274 304.373 110.86C305.714 110.666 307.555 109.195 307.697 107.789C307.777 107.217 307.753 106.635 307.626 106.072Z" fill="black"/>
<path d="M313.471 98.5226C312.266 103.648 311.871 105.845 308.799 108.055C304.186 111.385 298.146 108.793 297.783 103.408C297.459 98.5679 299.475 90.9928 304.911 89.8005C306.105 89.5312 307.349 89.5715 308.523 89.9174C309.697 90.2634 310.763 90.9035 311.621 91.7772C312.478 92.6509 313.098 93.729 313.422 94.9095C313.746 96.09 313.763 97.3337 313.471 98.5226Z" fill="#FFB573"/>
<path d="M311.515 90.8115C306.084 91.4142 307.737 101.536 311.819 102.514C316.601 100.175 319.55 91.291 311.515 90.8115Z" fill="#263238"/>
<path d="M338.095 260.503L334.343 261.643L328.867 250.174L334.641 248.599L338.095 260.503Z" fill="#FFB573"/>
<path d="M333.261 260.497L338.082 258.631C338.166 258.598 338.26 258.596 338.345 258.626C338.43 258.656 338.503 258.715 338.549 258.793L340.706 262.434C340.758 262.525 340.79 262.626 340.799 262.73C340.808 262.834 340.795 262.939 340.76 263.038C340.725 263.136 340.669 263.226 340.596 263.3C340.523 263.375 340.435 263.434 340.337 263.471C338.646 264.119 337.829 264.45 335.71 265.273C334.414 265.778 332.38 267.463 330.578 268.156C328.777 268.85 327.986 267.204 328.634 266.633C330.39 265.101 331.773 263.189 332.678 261.041C332.733 260.915 332.813 260.802 332.913 260.709C333.013 260.615 333.132 260.543 333.261 260.497Z" fill="#263238"/>
<path d="M300.789 148.373C300.789 148.373 308.779 189.242 311.805 205.397C314.935 222.245 328.88 250.148 328.88 250.148L334.667 248.567C334.667 248.567 326.741 218.72 323.048 203.926C322.322 177.138 323.177 155.326 316.568 148.347L300.789 148.373Z" fill="#4D61FC"/>
<path d="M304.969 98.4902C304.898 98.9114 304.619 99.216 304.321 99.1382C304.023 99.0605 303.88 98.7106 303.952 98.2894C304.023 97.8682 304.308 97.5636 304.6 97.609C304.891 97.6543 305.047 98.069 304.969 98.4902Z" fill="#263238"/>
<path d="M300.207 97.6801C300.136 98.1013 299.85 98.4058 299.559 98.3281C299.267 98.2503 299.118 97.9069 299.19 97.4792C299.261 97.0515 299.546 96.7534 299.838 96.8312C300.129 96.909 300.278 97.2589 300.207 97.6801Z" fill="#263238"/>
<path d="M299.954 96.8767L298.988 96.4102C298.988 96.4102 299.377 97.2914 299.954 96.8767Z" fill="#263238"/>
<path d="M301.542 98.6909C301.007 99.5871 300.353 100.407 299.598 101.127C299.787 101.316 300.014 101.462 300.265 101.555C300.515 101.648 300.783 101.686 301.049 101.665L301.542 98.6909Z" fill="#ED893E"/>
<path d="M303.058 103.706C302.841 103.707 302.624 103.687 302.41 103.648C302.394 103.646 302.378 103.64 302.364 103.632C302.35 103.623 302.338 103.612 302.328 103.599C302.319 103.585 302.312 103.57 302.308 103.554C302.304 103.538 302.304 103.522 302.306 103.505C302.313 103.473 302.331 103.445 302.357 103.426C302.384 103.406 302.417 103.398 302.449 103.402C302.972 103.501 303.511 103.477 304.023 103.331C304.535 103.185 305.006 102.92 305.397 102.559C305.409 102.547 305.423 102.537 305.439 102.53C305.454 102.523 305.471 102.52 305.488 102.52C305.505 102.52 305.522 102.523 305.538 102.53C305.553 102.537 305.567 102.547 305.579 102.559C305.601 102.583 305.613 102.615 305.613 102.647C305.613 102.679 305.601 102.71 305.579 102.734C304.9 103.379 303.994 103.729 303.058 103.706Z" fill="#263238"/>
<path d="M314.209 102.942C313.692 103.819 312.853 104.459 311.87 104.724C310.574 105.054 309.926 103.882 310.327 102.663C310.671 101.568 311.772 100.071 313.075 100.272C313.358 100.324 313.623 100.445 313.848 100.625C314.072 100.804 314.249 101.037 314.361 101.302C314.473 101.566 314.518 101.855 314.492 102.141C314.465 102.427 314.368 102.703 314.209 102.942Z" fill="#FFB573"/>
<path d="M307.036 97.8419C306.984 97.8414 306.933 97.8241 306.891 97.7927C306.849 97.7612 306.818 97.7172 306.803 97.667C306.46 96.5589 305.04 96.0793 305.027 96.0793C304.996 96.0698 304.966 96.0539 304.94 96.0326C304.915 96.0113 304.894 95.985 304.878 95.9553C304.863 95.9256 304.854 95.8931 304.852 95.8599C304.85 95.8266 304.854 95.7933 304.865 95.7618C304.875 95.7299 304.891 95.7002 304.912 95.6746C304.934 95.649 304.96 95.628 304.99 95.6128C305.019 95.5977 305.052 95.5887 305.085 95.5865C305.118 95.5843 305.152 95.5888 305.183 95.5998C305.248 95.5998 306.861 96.1636 307.282 97.5438C307.292 97.5757 307.296 97.6093 307.293 97.6426C307.29 97.6759 307.28 97.7082 307.265 97.7378C307.249 97.7673 307.228 97.7934 307.202 97.8146C307.176 97.8359 307.146 97.8517 307.114 97.8613L307.036 97.8419Z" fill="#263238"/>
<path d="M299.144 95.2309C299.101 95.2304 299.059 95.2188 299.021 95.1972C298.984 95.1757 298.953 95.1449 298.93 95.1078C298.898 95.0493 298.89 94.9804 298.908 94.916C298.926 94.8516 298.969 94.7971 299.028 94.7644C299.369 94.5579 299.755 94.4361 300.152 94.4091C300.55 94.382 300.949 94.4505 301.315 94.6088C301.374 94.6393 301.418 94.6917 301.439 94.7548C301.46 94.8178 301.455 94.8864 301.425 94.9458C301.395 95.0047 301.342 95.0493 301.279 95.0699C301.216 95.0905 301.148 95.0855 301.088 95.056C300.796 94.9362 300.479 94.8868 300.164 94.9115C299.849 94.9363 299.544 95.0346 299.274 95.1985C299.235 95.2221 299.19 95.2334 299.144 95.2309Z" fill="#263238"/>
<path d="M318.986 116.556C320.832 118.973 322.511 121.416 324.105 123.995C324.895 125.291 325.673 126.587 326.386 127.968C327.16 129.398 327.8 130.897 328.297 132.445C328.369 132.653 328.42 132.893 328.479 133.093L328.524 133.281L328.582 133.553C328.609 133.723 328.626 133.894 328.634 134.065C328.664 134.628 328.623 135.192 328.511 135.744C328.327 136.619 328.051 137.473 327.688 138.29C327.049 139.735 326.295 141.126 325.433 142.451C323.793 144.995 321.948 147.403 319.919 149.65C319.696 149.899 319.389 150.056 319.058 150.092C318.726 150.128 318.392 150.039 318.122 149.843C317.852 149.647 317.664 149.358 317.595 149.031C317.526 148.704 317.58 148.364 317.748 148.075V148.043C319.18 145.548 320.599 142.982 321.824 140.442C322.424 139.217 322.946 137.955 323.386 136.664C323.575 136.116 323.705 135.549 323.774 134.973C323.798 134.803 323.798 134.63 323.774 134.461V134.422V134.344C323.729 134.214 323.697 134.098 323.638 133.962C323.134 132.747 322.54 131.571 321.863 130.443C321.15 129.244 320.392 128.045 319.614 126.847C318.033 124.475 316.374 122.09 314.689 119.783C314.286 119.205 314.123 118.491 314.236 117.795C314.349 117.098 314.729 116.473 315.296 116.052C315.862 115.631 316.57 115.446 317.269 115.538C317.969 115.63 318.605 115.991 319.044 116.543L318.986 116.556Z" fill="#FFB573"/>
<path d="M304.723 97.6868L303.758 97.2202C303.758 97.2202 304.14 98.108 304.723 97.6868Z" fill="#263238"/>
<path d="M293.63 120.645C294.03 119.01 294.545 117.406 295.172 115.844C296.166 115.547 297.182 115.33 298.211 115.196C300.307 117.053 302.031 119.291 303.291 121.792C306.071 118.98 311.391 116.135 314.631 115.098C315.727 115.029 316.827 115.168 317.871 115.507C315.662 122.479 313.407 129.49 317.405 131.292C317.334 134.603 317.521 138.711 317.69 142.865C313.912 142.45 298.93 141.731 292.846 143.066C292.535 138.854 292.424 135.29 292.444 132.212C289.612 128.603 292.45 123.691 293.63 120.645Z" fill="#263238"/>
<g opacity="0.2">
<path d="M299.585 133.612C299.551 133.616 299.519 133.629 299.492 133.649C299.464 133.67 299.443 133.697 299.43 133.728C298.97 135.017 298.984 136.428 299.468 137.707C299.021 137.331 298.581 136.962 298.172 136.586C298.537 135.806 298.678 134.939 298.58 134.084C298.482 133.228 298.148 132.416 297.615 131.739C297.595 131.713 297.568 131.692 297.538 131.678C297.507 131.664 297.473 131.659 297.44 131.661C297.406 131.664 297.373 131.676 297.345 131.697C297.318 131.718 297.297 131.746 297.285 131.778C296.81 133.103 296.84 134.556 297.369 135.86C296.786 135.329 296.228 134.798 295.716 134.286C296.099 133.501 296.253 132.625 296.16 131.757C296.067 130.89 295.732 130.066 295.192 129.38C295.171 129.354 295.145 129.333 295.114 129.319C295.083 129.306 295.05 129.3 295.017 129.303C294.982 129.305 294.949 129.318 294.922 129.338C294.894 129.359 294.873 129.387 294.861 129.419C294.39 130.747 294.42 132.201 294.945 133.508C294.058 132.581 293.319 131.739 292.768 131.039C292.57 130.256 292.177 129.535 291.625 128.945C291.073 128.354 290.381 127.913 289.612 127.663C289.581 127.658 289.549 127.66 289.519 127.669C289.488 127.678 289.461 127.695 289.438 127.717C289.415 127.739 289.398 127.766 289.388 127.796C289.377 127.826 289.374 127.859 289.379 127.89C289.962 130.761 292.075 131.26 292.502 131.331C292.807 131.713 293.15 132.134 293.565 132.588C292.55 132.133 291.42 131.997 290.325 132.199C290.292 132.207 290.262 132.224 290.238 132.248C290.213 132.272 290.197 132.302 290.189 132.335C290.179 132.367 290.178 132.401 290.185 132.434C290.191 132.467 290.206 132.498 290.228 132.523C290.785 133.158 291.509 133.625 292.317 133.872C293.125 134.118 293.986 134.133 294.803 133.916C295.166 134.292 295.554 134.674 295.963 135.07C294.59 134.677 293.125 134.764 291.809 135.316C291.778 135.333 291.752 135.357 291.734 135.388C291.715 135.418 291.706 135.452 291.706 135.488C291.706 135.523 291.715 135.558 291.734 135.588C291.752 135.618 291.778 135.643 291.809 135.659C292.549 136.12 293.397 136.379 294.268 136.409C295.139 136.44 296.002 136.242 296.773 135.834C297.317 136.346 297.894 136.858 298.49 137.37C297.162 136.771 295.66 136.683 294.271 137.124C294.239 137.137 294.211 137.158 294.189 137.185C294.168 137.213 294.154 137.245 294.148 137.279C294.145 137.313 294.15 137.347 294.162 137.379C294.174 137.41 294.194 137.438 294.22 137.461C294.902 138.013 295.723 138.366 296.594 138.481C297.464 138.595 298.349 138.466 299.151 138.109L299.203 138.076C299.223 138.055 299.237 138.028 299.242 137.999L299.974 138.595C299.997 138.625 300.028 138.648 300.065 138.66C300.453 138.971 300.849 139.275 301.25 139.573C301.286 139.604 301.33 139.62 301.377 139.62C301.423 139.62 301.468 139.604 301.503 139.573C301.518 139.553 301.529 139.529 301.535 139.504C301.54 139.479 301.541 139.453 301.537 139.428C301.533 139.403 301.524 139.378 301.51 139.357C301.496 139.335 301.479 139.316 301.458 139.301C301.088 139.023 300.719 138.744 300.363 138.452C300.699 137.68 300.82 136.832 300.713 135.997C300.606 135.161 300.274 134.371 299.754 133.709C299.736 133.679 299.712 133.655 299.682 133.638C299.653 133.621 299.619 133.612 299.585 133.612Z" fill="white"/>
<path d="M293.195 123.574C293.229 123.57 293.261 123.557 293.288 123.537C293.315 123.516 293.337 123.489 293.35 123.458C293.81 122.169 293.796 120.758 293.311 119.479C293.759 119.855 294.199 120.224 294.607 120.6C294.242 121.38 294.101 122.246 294.2 123.102C294.298 123.958 294.632 124.77 295.165 125.447C295.185 125.473 295.212 125.494 295.242 125.508C295.273 125.522 295.306 125.527 295.34 125.525C295.374 125.522 295.407 125.51 295.434 125.489C295.462 125.468 295.483 125.44 295.495 125.408C295.969 124.083 295.94 122.63 295.411 121.326C295.994 121.857 296.551 122.388 297.063 122.9C296.681 123.685 296.527 124.561 296.62 125.428C296.713 126.296 297.048 127.12 297.588 127.806C297.609 127.832 297.635 127.853 297.666 127.867C297.696 127.88 297.73 127.886 297.763 127.883C297.797 127.881 297.83 127.868 297.858 127.848C297.885 127.827 297.906 127.799 297.919 127.767C298.39 126.439 298.36 124.985 297.834 123.678C298.722 124.605 299.461 125.447 300.012 126.147C300.21 126.93 300.603 127.651 301.155 128.241C301.707 128.832 302.399 129.273 303.167 129.523C303.199 129.528 303.231 129.526 303.261 129.517C303.292 129.508 303.319 129.491 303.342 129.469C303.365 129.447 303.382 129.42 303.392 129.39C303.402 129.359 303.405 129.327 303.401 129.296C302.818 126.425 300.705 125.926 300.277 125.855C299.973 125.473 299.629 125.052 299.215 124.598C300.23 125.055 301.361 125.188 302.455 124.98C302.488 124.975 302.518 124.959 302.542 124.936C302.567 124.913 302.584 124.883 302.591 124.851C302.6 124.819 302.602 124.785 302.595 124.752C302.588 124.719 302.574 124.688 302.552 124.663C301.995 124.028 301.271 123.561 300.463 123.314C299.655 123.068 298.794 123.053 297.977 123.27C297.614 122.894 297.225 122.511 296.817 122.116C298.189 122.509 299.654 122.422 300.971 121.87C301.002 121.853 301.028 121.829 301.046 121.798C301.064 121.768 301.074 121.734 301.074 121.698C301.074 121.663 301.064 121.628 301.046 121.598C301.028 121.568 301.002 121.543 300.971 121.527C300.231 121.066 299.383 120.807 298.512 120.777C297.641 120.746 296.777 120.944 296.007 121.352C295.463 120.84 294.886 120.328 294.29 119.816C295.618 120.415 297.12 120.503 298.508 120.062C298.54 120.048 298.568 120.026 298.589 119.999C298.61 119.972 298.625 119.94 298.631 119.907C298.635 119.873 298.63 119.839 298.618 119.807C298.605 119.776 298.586 119.747 298.56 119.725C297.878 119.173 297.056 118.82 296.186 118.705C295.316 118.591 294.431 118.719 293.629 119.077L293.577 119.109C293.557 119.131 293.543 119.158 293.538 119.187L292.806 118.591C292.783 118.56 292.752 118.538 292.715 118.526C292.326 118.215 291.931 117.911 291.529 117.613C291.494 117.582 291.449 117.566 291.403 117.566C291.357 117.566 291.312 117.582 291.277 117.613C291.247 117.654 291.235 117.706 291.242 117.756C291.249 117.807 291.276 117.853 291.316 117.885C291.691 118.163 292.061 118.442 292.417 118.734C292.081 119.506 291.959 120.354 292.067 121.189C292.174 122.025 292.506 122.815 293.026 123.477C293.043 123.507 293.068 123.531 293.097 123.548C293.127 123.565 293.161 123.574 293.195 123.574Z" fill="white"/>
<path d="M313.174 138.342C313.141 138.347 313.11 138.359 313.083 138.378C313.055 138.398 313.033 138.423 313.018 138.452C312.564 139.742 312.578 141.15 313.057 142.431C312.61 142.062 312.169 141.686 311.761 141.31C312.126 140.531 312.267 139.666 312.169 138.811C312.071 137.956 311.736 137.145 311.204 136.469C311.184 136.443 311.157 136.422 311.127 136.408C311.096 136.395 311.063 136.39 311.029 136.393C310.996 136.396 310.964 136.408 310.937 136.427C310.91 136.446 310.888 136.472 310.873 136.502C310.402 137.83 310.432 139.284 310.958 140.591C310.374 140.053 309.817 139.528 309.305 139.016C309.69 138.233 309.844 137.358 309.751 136.491C309.658 135.624 309.322 134.801 308.78 134.117C308.761 134.089 308.735 134.067 308.704 134.053C308.673 134.04 308.639 134.035 308.605 134.039C308.572 134.044 308.541 134.056 308.514 134.075C308.487 134.094 308.465 134.12 308.45 134.15C307.979 135.477 308.009 136.931 308.534 138.238C307.646 137.318 306.908 136.469 306.357 135.77C306.157 134.987 305.763 134.268 305.211 133.678C304.66 133.088 303.968 132.646 303.201 132.394C303.17 132.387 303.138 132.389 303.107 132.398C303.077 132.407 303.049 132.423 303.026 132.445C303.003 132.469 302.985 132.497 302.975 132.529C302.965 132.561 302.962 132.594 302.968 132.627C303.551 135.491 305.67 135.99 306.091 136.061C306.396 136.444 306.739 136.871 307.154 137.325C306.138 136.869 305.008 136.734 303.914 136.936C303.881 136.945 303.852 136.962 303.828 136.986C303.804 137.01 303.787 137.04 303.778 137.072C303.768 137.103 303.766 137.136 303.773 137.168C303.78 137.2 303.795 137.229 303.817 137.254C304.37 137.893 305.094 138.363 305.903 138.61C306.713 138.856 307.575 138.869 308.391 138.647C308.754 139.023 309.143 139.411 309.551 139.807C308.179 139.411 306.713 139.498 305.398 140.053C305.368 140.071 305.343 140.095 305.325 140.124C305.307 140.154 305.296 140.187 305.294 140.221C305.293 140.256 305.302 140.289 305.319 140.319C305.336 140.349 305.361 140.373 305.391 140.39C306.131 140.851 306.978 141.11 307.849 141.142C308.72 141.174 309.584 140.977 310.355 140.571C310.899 141.077 311.476 141.589 312.072 142.107C310.744 141.508 309.242 141.42 307.854 141.861C307.821 141.874 307.793 141.895 307.772 141.922C307.75 141.95 307.736 141.982 307.731 142.016C307.727 142.05 307.732 142.084 307.745 142.114C307.759 142.145 307.781 142.172 307.808 142.191C308.49 142.744 309.312 143.097 310.182 143.211C311.053 143.326 311.938 143.197 312.74 142.839L312.785 142.8C312.804 142.779 312.819 142.755 312.83 142.729L313.563 143.325C313.583 143.355 313.612 143.378 313.647 143.39C314.036 143.701 314.431 144.006 314.833 144.31C314.868 144.34 314.913 144.357 314.959 144.357C315.005 144.357 315.05 144.34 315.085 144.31C315.116 144.269 315.13 144.217 315.122 144.166C315.115 144.115 315.088 144.069 315.046 144.038C314.671 143.759 314.308 143.474 313.945 143.189C314.283 142.418 314.406 141.57 314.299 140.734C314.193 139.899 313.862 139.108 313.342 138.446C313.325 138.416 313.301 138.39 313.272 138.372C313.242 138.354 313.208 138.343 313.174 138.342Z" fill="white"/>
<path d="M325.633 142.82C325.599 142.823 325.566 142.835 325.539 142.856C325.511 142.876 325.49 142.904 325.478 142.937C325.016 144.225 325.027 145.635 325.51 146.915C325.063 146.54 324.629 146.164 324.214 145.794C324.581 145.015 324.723 144.149 324.626 143.293C324.529 142.437 324.196 141.625 323.663 140.947C323.642 140.92 323.615 140.898 323.583 140.885C323.551 140.871 323.516 140.866 323.482 140.87C323.448 140.874 323.416 140.887 323.389 140.908C323.362 140.928 323.34 140.955 323.327 140.986C322.855 142.312 322.885 143.764 323.411 145.069C322.828 144.537 322.277 144.006 321.765 143.494C322.148 142.71 322.301 141.833 322.208 140.966C322.116 140.098 321.78 139.274 321.24 138.589C321.22 138.562 321.193 138.541 321.162 138.528C321.132 138.514 321.098 138.508 321.065 138.511C321.031 138.514 320.998 138.526 320.97 138.547C320.943 138.567 320.922 138.595 320.909 138.627C320.435 139.955 320.465 141.41 320.994 142.716C320.106 141.79 319.361 140.947 318.816 140.247C318.619 139.464 318.225 138.743 317.673 138.153C317.122 137.563 316.429 137.122 315.661 136.871C315.629 136.864 315.596 136.865 315.565 136.874C315.534 136.883 315.506 136.899 315.483 136.922C315.46 136.944 315.442 136.972 315.433 137.003C315.423 137.034 315.421 137.066 315.427 137.098C316.011 139.969 318.123 140.468 318.551 140.539C318.849 140.921 319.199 141.343 319.613 141.796C318.598 141.342 317.468 141.207 316.373 141.407C316.341 141.417 316.312 141.435 316.289 141.459C316.265 141.482 316.247 141.511 316.237 141.543C316.229 141.576 316.228 141.61 316.236 141.643C316.244 141.676 316.26 141.706 316.283 141.731C316.839 142.366 317.562 142.832 318.369 143.078C319.176 143.324 320.035 143.34 320.851 143.125C321.221 143.5 321.603 143.883 322.011 144.278C320.641 143.886 319.178 143.972 317.864 144.524C317.833 144.54 317.806 144.564 317.788 144.594C317.77 144.624 317.76 144.658 317.76 144.693C317.76 144.727 317.768 144.761 317.783 144.792C317.799 144.822 317.822 144.848 317.851 144.868C318.593 145.326 319.441 145.584 320.313 145.615C321.184 145.645 322.049 145.448 322.821 145.043C323.365 145.552 323.936 146.064 324.532 146.578C323.204 145.979 321.702 145.892 320.313 146.332C320.281 146.344 320.253 146.365 320.232 146.393C320.212 146.421 320.199 146.453 320.197 146.488C320.193 146.521 320.198 146.555 320.21 146.587C320.223 146.619 320.243 146.647 320.268 146.669C320.95 147.221 321.772 147.574 322.642 147.688C323.512 147.802 324.397 147.674 325.199 147.317C325.214 147.32 325.23 147.32 325.245 147.317C325.269 147.298 325.285 147.27 325.29 147.239L326.022 147.836C326.044 147.864 326.073 147.887 326.106 147.9C326.495 148.211 326.891 148.516 327.292 148.814C327.327 148.844 327.372 148.861 327.419 148.861C327.465 148.861 327.51 148.844 327.545 148.814C327.561 148.794 327.573 148.771 327.58 148.746C327.587 148.721 327.588 148.695 327.585 148.669C327.581 148.644 327.572 148.619 327.559 148.597C327.545 148.576 327.527 148.557 327.506 148.542L326.405 147.693C326.743 146.922 326.865 146.073 326.759 145.238C326.653 144.403 326.322 143.612 325.802 142.95C325.789 142.914 325.766 142.884 325.736 142.861C325.706 142.838 325.671 142.824 325.633 142.82Z" fill="white"/>
<path d="M297.142 143.552C297.108 143.555 297.076 143.567 297.049 143.586C297.022 143.605 297 143.632 296.986 143.662C296.524 144.95 296.536 146.361 297.019 147.641C296.571 147.272 296.137 146.896 295.723 146.52C296.089 145.74 296.232 144.874 296.134 144.018C296.037 143.162 295.704 142.35 295.172 141.673C295.151 141.647 295.123 141.626 295.092 141.613C295.06 141.601 295.026 141.596 294.993 141.6C294.959 141.604 294.927 141.616 294.899 141.636C294.872 141.655 294.85 141.681 294.835 141.712C294.364 143.04 294.394 144.494 294.919 145.801C294.336 145.263 293.785 144.738 293.273 144.226C293.656 143.442 293.81 142.566 293.717 141.698C293.624 140.83 293.288 140.006 292.748 139.321C292.728 139.294 292.702 139.273 292.671 139.26C292.64 139.248 292.606 139.244 292.573 139.249C292.54 139.251 292.507 139.262 292.479 139.281C292.452 139.301 292.43 139.328 292.418 139.36C291.944 140.687 291.974 142.142 292.502 143.448C291.734 142.663 291.008 141.839 290.325 140.98C290.125 140.197 289.731 139.478 289.179 138.888C288.628 138.297 287.936 137.856 287.169 137.604C287.137 137.597 287.104 137.599 287.072 137.608C287.04 137.617 287.012 137.633 286.988 137.655C286.967 137.679 286.952 137.707 286.943 137.737C286.934 137.767 286.931 137.799 286.936 137.83C287.519 140.701 289.631 141.2 290.059 141.271C290.357 141.654 290.707 142.075 291.122 142.567C290.108 142.107 288.976 141.971 287.882 142.178C287.85 142.187 287.821 142.203 287.797 142.226C287.773 142.248 287.756 142.277 287.746 142.308C287.737 142.341 287.736 142.375 287.744 142.408C287.752 142.441 287.768 142.471 287.791 142.496C288.343 143.136 289.066 143.606 289.874 143.852C290.682 144.099 291.544 144.112 292.359 143.889C292.729 144.265 293.111 144.654 293.519 145.049C292.15 144.65 290.685 144.737 289.372 145.295C289.341 145.31 289.315 145.333 289.297 145.361C289.279 145.39 289.269 145.423 289.269 145.457C289.267 145.492 289.275 145.526 289.291 145.557C289.307 145.587 289.33 145.613 289.359 145.632C290.1 146.093 290.948 146.353 291.82 146.384C292.692 146.416 293.557 146.219 294.329 145.814C294.874 146.319 295.444 146.831 296.04 147.343C294.712 146.745 293.209 146.66 291.822 147.103C291.79 147.115 291.763 147.135 291.742 147.161C291.722 147.188 291.709 147.219 291.705 147.252C291.7 147.286 291.705 147.32 291.717 147.352C291.73 147.384 291.75 147.412 291.776 147.434C292.459 147.986 293.28 148.338 294.151 148.452C295.021 148.567 295.906 148.439 296.708 148.082C296.723 148.085 296.738 148.085 296.753 148.082C296.776 148.064 296.792 148.039 296.798 148.01L297.531 148.607C297.552 148.635 297.581 148.658 297.615 148.671C298.01 148.982 298.399 149.287 298.801 149.592C298.836 149.622 298.881 149.638 298.927 149.638C298.973 149.638 299.018 149.622 299.053 149.592C299.069 149.571 299.081 149.548 299.088 149.523C299.095 149.499 299.097 149.473 299.093 149.447C299.089 149.421 299.081 149.397 299.067 149.375C299.053 149.353 299.036 149.334 299.014 149.319L297.913 148.47C298.251 147.698 298.373 146.849 298.267 146.012C298.161 145.176 297.83 144.384 297.31 143.721C297.307 143.677 297.288 143.636 297.257 143.605C297.227 143.574 297.185 143.555 297.142 143.552Z" fill="white"/>
<path d="M312.759 116.252C312.725 116.257 312.693 116.27 312.666 116.29C312.639 116.311 312.617 116.338 312.603 116.369C312.15 117.658 312.163 119.067 312.642 120.347C312.195 119.971 311.754 119.602 311.346 119.226C311.711 118.446 311.852 117.58 311.754 116.724C311.656 115.868 311.321 115.056 310.789 114.379C310.769 114.353 310.742 114.332 310.711 114.318C310.681 114.305 310.647 114.299 310.614 114.301C310.58 114.304 310.547 114.317 310.519 114.337C310.492 114.358 310.471 114.386 310.458 114.418C309.987 115.744 310.017 117.196 310.543 118.5C309.96 117.969 309.402 117.438 308.89 116.926C309.273 116.142 309.427 115.265 309.334 114.398C309.241 113.53 308.905 112.706 308.365 112.02C308.345 111.994 308.319 111.972 308.288 111.959C308.258 111.945 308.224 111.939 308.19 111.943C308.156 111.945 308.123 111.958 308.096 111.978C308.068 111.999 308.047 112.027 308.035 112.059C307.564 113.387 307.594 114.841 308.119 116.148C307.231 115.222 306.493 114.379 305.942 113.679C305.744 112.896 305.351 112.175 304.799 111.585C304.247 110.994 303.555 110.554 302.786 110.303C302.755 110.298 302.723 110.3 302.692 110.309C302.662 110.319 302.634 110.335 302.612 110.357C302.589 110.379 302.572 110.406 302.561 110.437C302.551 110.467 302.548 110.499 302.553 110.53C303.136 113.401 305.255 113.9 305.676 113.971C305.981 114.353 306.324 114.774 306.739 115.228C305.723 114.773 304.593 114.637 303.499 114.839C303.467 114.849 303.438 114.867 303.414 114.891C303.39 114.914 303.373 114.943 303.363 114.975C303.353 115.007 303.352 115.041 303.358 115.074C303.365 115.107 303.38 115.138 303.402 115.163C303.959 115.799 304.682 116.266 305.491 116.512C306.299 116.758 307.16 116.773 307.977 116.556C308.34 116.932 308.728 117.315 309.137 117.71C307.764 117.318 306.299 117.404 304.983 117.956C304.953 117.974 304.928 117.998 304.91 118.028C304.892 118.057 304.882 118.09 304.879 118.125C304.879 118.16 304.887 118.194 304.904 118.225C304.922 118.256 304.946 118.281 304.976 118.3C305.716 118.76 306.564 119.019 307.435 119.05C308.306 119.08 309.17 118.882 309.94 118.475C310.484 118.986 311.061 119.498 311.657 120.01C310.33 119.411 308.827 119.323 307.439 119.764C307.407 119.777 307.378 119.798 307.357 119.826C307.335 119.853 307.321 119.885 307.316 119.92C307.312 119.954 307.317 119.989 307.331 120.021C307.344 120.052 307.366 120.08 307.393 120.101C308.075 120.653 308.895 121.006 309.764 121.12C310.634 121.234 311.518 121.106 312.318 120.749L312.37 120.717C312.39 120.695 312.404 120.668 312.409 120.639L313.141 121.235C313.165 121.264 313.196 121.287 313.232 121.3C313.621 121.611 314.016 121.915 314.418 122.214C314.453 122.244 314.498 122.26 314.544 122.26C314.59 122.26 314.635 122.244 314.67 122.214C314.701 122.172 314.715 122.12 314.707 122.069C314.7 122.018 314.673 121.972 314.632 121.941C314.256 121.663 313.893 121.384 313.53 121.092C313.868 120.321 313.991 119.473 313.885 118.637C313.778 117.802 313.448 117.011 312.927 116.349C312.909 116.321 312.884 116.297 312.855 116.28C312.826 116.263 312.793 116.254 312.759 116.252Z" fill="white"/>
<path d="M306.602 128.564C306.636 128.561 306.668 128.55 306.695 128.53C306.722 128.511 306.744 128.484 306.758 128.454C307.22 127.166 307.208 125.755 306.725 124.475C307.172 124.845 307.607 125.22 308.021 125.596C307.655 126.376 307.512 127.242 307.609 128.098C307.707 128.954 308.04 129.766 308.572 130.443C308.593 130.47 308.621 130.49 308.652 130.503C308.684 130.516 308.718 130.52 308.751 130.516C308.785 130.513 308.817 130.5 308.845 130.481C308.872 130.461 308.894 130.435 308.909 130.404C309.38 129.077 309.35 127.623 308.825 126.315C309.408 126.851 309.959 127.376 310.477 127.89C310.095 128.674 309.941 129.551 310.034 130.418C310.127 131.286 310.462 132.11 311.002 132.795C311.023 132.822 311.051 132.842 311.082 132.855C311.114 132.868 311.148 132.873 311.181 132.869C311.215 132.865 311.247 132.852 311.275 132.833C311.302 132.813 311.324 132.787 311.339 132.757C311.811 131.429 311.779 129.973 311.248 128.668C312.016 129.453 312.743 130.277 313.426 131.137C313.626 131.92 314.021 132.64 314.573 133.231C315.126 133.821 315.819 134.262 316.588 134.513C316.619 134.519 316.651 134.518 316.682 134.509C316.712 134.5 316.74 134.483 316.763 134.461C316.785 134.437 316.802 134.408 316.811 134.376C316.82 134.345 316.821 134.312 316.815 134.279C316.238 131.415 314.119 130.916 313.691 130.845C313.393 130.463 313.043 130.041 312.629 129.549C313.643 130.009 314.774 130.145 315.869 129.938C315.9 129.929 315.93 129.913 315.953 129.891C315.977 129.868 315.995 129.84 316.005 129.808C316.014 129.776 316.014 129.741 316.006 129.708C315.998 129.676 315.982 129.645 315.959 129.62C315.407 128.981 314.685 128.51 313.876 128.264C313.068 128.017 312.206 128.004 311.391 128.227C311.028 127.851 310.639 127.462 310.231 127.067C311.6 127.466 313.066 127.379 314.378 126.821C314.409 126.805 314.436 126.781 314.454 126.751C314.472 126.722 314.482 126.687 314.482 126.652C314.484 126.619 314.477 126.585 314.461 126.555C314.445 126.526 314.42 126.501 314.391 126.484C313.65 126.023 312.802 125.764 311.93 125.732C311.058 125.7 310.193 125.897 309.421 126.303C308.877 125.797 308.306 125.285 307.71 124.773C309.039 125.368 310.541 125.453 311.929 125.013C311.96 125.001 311.987 124.981 312.008 124.955C312.029 124.929 312.042 124.897 312.045 124.864C312.051 124.83 312.048 124.795 312.035 124.763C312.023 124.731 312.001 124.703 311.974 124.683C311.293 124.129 310.471 123.775 309.6 123.66C308.73 123.546 307.844 123.675 307.043 124.035C307.028 124.032 307.012 124.032 306.997 124.035C306.979 124.056 306.963 124.08 306.952 124.106L306.22 123.51C306.2 123.48 306.17 123.457 306.136 123.445C305.747 123.134 305.352 122.797 304.95 122.525C304.915 122.495 304.87 122.478 304.823 122.478C304.777 122.478 304.732 122.495 304.697 122.525C304.666 122.566 304.653 122.618 304.66 122.669C304.667 122.72 304.695 122.766 304.736 122.797L305.838 123.646C305.5 124.418 305.377 125.268 305.483 126.104C305.589 126.94 305.92 127.732 306.44 128.396C306.446 128.437 306.465 128.476 306.494 128.506C306.523 128.536 306.561 128.556 306.602 128.564Z" fill="white"/>
</g>
<path d="M309.447 134.137L266.031 138.517C264.873 138.635 263.809 139.208 263.073 140.109C262.336 141.011 261.988 142.167 262.104 143.326L263.594 158.171C264.725 157.37 266.046 156.879 267.426 156.748C268.805 156.616 270.195 156.849 271.457 157.423C272.719 157.997 273.808 158.891 274.616 160.017C275.424 161.143 275.922 162.461 276.061 163.84C276.201 165.219 275.976 166.61 275.41 167.875C274.844 169.14 273.956 170.234 272.834 171.049C271.713 171.863 270.398 172.37 269.02 172.517C267.642 172.665 266.249 172.448 264.981 171.889L266.478 186.735C266.597 187.893 267.17 188.956 268.071 189.693C268.972 190.43 270.128 190.781 271.286 190.668L314.702 186.294C315.86 186.173 316.924 185.599 317.661 184.697C318.397 183.795 318.748 182.639 318.635 181.48L314.261 138.064C314.139 136.907 313.564 135.845 312.662 135.109C311.761 134.374 310.605 134.024 309.447 134.137Z" fill="#4D61FC"/>
<path opacity="0.3" d="M309.447 134.137L266.031 138.517C264.873 138.635 263.809 139.208 263.073 140.109C262.336 141.011 261.988 142.167 262.104 143.326L263.594 158.171C264.725 157.37 266.046 156.879 267.426 156.748C268.805 156.616 270.195 156.849 271.457 157.423C272.719 157.997 273.808 158.891 274.616 160.017C275.424 161.143 275.922 162.461 276.061 163.84C276.201 165.219 275.976 166.61 275.41 167.875C274.844 169.14 273.956 170.234 272.834 171.049C271.713 171.863 270.398 172.37 269.02 172.517C267.642 172.665 266.249 172.448 264.981 171.889L266.478 186.735C266.597 187.893 267.17 188.956 268.071 189.693C268.972 190.43 270.128 190.781 271.286 190.668L314.702 186.294C315.86 186.173 316.924 185.599 317.661 184.697C318.397 183.795 318.748 182.639 318.635 181.48L314.261 138.064C314.139 136.907 313.564 135.845 312.662 135.109C311.761 134.374 310.605 134.024 309.447 134.137Z" fill="black"/>
<path d="M321.292 147.453L319.283 146.578L314.566 147.783C314.025 147.925 313.546 148.242 313.205 148.684L312.207 149.98C311.994 150.264 311.886 150.613 311.902 150.967C311.917 151.322 312.055 151.66 312.291 151.924L313.419 153.168C313.689 153.465 314.064 153.644 314.465 153.668C314.865 153.692 315.259 153.559 315.564 153.298L318.123 151.101C318.123 151.101 321.208 149.656 321.292 147.453Z" fill="#FFB573"/>
<path d="M280.396 139.36L282.483 139.094C282.764 139.062 283.027 138.939 283.232 138.744C283.437 138.548 283.572 138.291 283.617 138.012L283.902 136.353C283.94 136.155 283.931 135.952 283.877 135.758C283.823 135.564 283.724 135.386 283.589 135.237C283.454 135.088 283.286 134.972 283.098 134.899C282.911 134.827 282.709 134.798 282.509 134.817L280.072 134.992C279.729 135.011 279.408 135.164 279.178 135.419C278.949 135.674 278.83 136.01 278.847 136.353L278.912 138.103C278.916 138.286 278.958 138.468 279.037 138.634C279.116 138.8 279.23 138.947 279.37 139.066C279.511 139.185 279.675 139.273 279.852 139.323C280.028 139.374 280.214 139.386 280.396 139.36Z" fill="#FFB573"/>
<path d="M312.868 91.738C307.723 94.33 298.684 93.1376 298.684 93.1376C298.684 93.1376 303.725 84.8951 312.868 91.738Z" fill="#263238"/>
<path d="M222.33 256.149L219.744 269.607L213.199 268.026L215.785 254.567L222.33 256.149Z" fill="#7F3E3B"/>
<path d="M213.406 265.292L220.683 266.873C220.796 266.895 220.896 266.959 220.965 267.051C221.033 267.143 221.064 267.258 221.053 267.372L220.547 272.718C220.531 272.852 220.486 272.982 220.417 273.098C220.347 273.214 220.254 273.314 220.144 273.392C220.033 273.47 219.908 273.524 219.776 273.551C219.643 273.578 219.506 273.577 219.374 273.548C217.087 273.01 216.406 272.673 213.51 272.044C210.134 271.299 208.935 271.5 204.969 270.632C202.572 270.107 202.682 267.592 203.758 267.586C206.598 267.593 209.391 266.849 211.851 265.428C212.333 265.187 212.889 265.138 213.406 265.292Z" fill="#263238"/>
<path opacity="0.2" d="M222.335 256.155L221 263.089L214.449 261.507L215.784 254.567L222.335 256.155Z" fill="black"/>
<path d="M233.722 204.315C241.401 181.726 247.479 155.067 247.479 155.067L225.577 153.68C225.577 153.68 222.337 188.27 220.665 204.224C218.915 220.8 213.479 258.222 213.479 258.222L223.361 260.224C223.361 260.224 232.627 224.986 233.722 204.315Z" fill="#263238"/>
<path opacity="0.2" d="M237.375 167.638L242.689 174.209C241.334 179.283 239.753 184.985 238.017 190.811C237.02 183.128 236.805 175.364 237.375 167.638Z" fill="#263238"/>
<path d="M213.621 259.629L222.693 261.611C222.874 261.652 223.063 261.623 223.225 261.533C223.386 261.442 223.508 261.294 223.568 261.119L224.566 258.196C224.6 258.097 224.613 257.992 224.605 257.888C224.596 257.783 224.565 257.682 224.514 257.59C224.463 257.498 224.394 257.418 224.31 257.355C224.226 257.292 224.13 257.248 224.028 257.224L214.185 254.924C214.081 254.9 213.974 254.897 213.869 254.917C213.765 254.938 213.666 254.98 213.579 255.041C213.492 255.102 213.419 255.181 213.365 255.273C213.311 255.364 213.276 255.466 213.265 255.572L213.038 258.812C213.017 258.996 213.066 259.181 213.173 259.332C213.281 259.482 213.44 259.588 213.621 259.629Z" fill="#263238"/>
<path opacity="0.1" d="M213.621 259.629L222.693 261.611C222.874 261.652 223.063 261.623 223.225 261.533C223.386 261.442 223.508 261.294 223.568 261.119L224.566 258.196C224.6 258.097 224.613 257.992 224.605 257.888C224.596 257.783 224.565 257.682 224.514 257.59C224.463 257.498 224.394 257.418 224.31 257.355C224.226 257.292 224.13 257.248 224.028 257.224L214.185 254.924C214.081 254.9 213.974 254.897 213.869 254.917C213.765 254.938 213.666 254.98 213.579 255.041C213.492 255.102 213.419 255.181 213.365 255.273C213.311 255.364 213.276 255.466 213.265 255.572L213.038 258.812C213.017 258.996 213.066 259.181 213.173 259.332C213.281 259.482 213.44 259.588 213.621 259.629Z" fill="white"/>
<path d="M258.359 255.682L258.767 269.569L252.125 269.478L251.717 255.591L258.359 255.682Z" fill="#7F3E3B"/>
<path d="M251.956 266.627L259.02 266.731C259.134 266.73 259.245 266.772 259.33 266.849C259.415 266.926 259.468 267.031 259.48 267.145L260.05 272.485C260.061 272.62 260.043 272.756 259.998 272.884C259.954 273.012 259.883 273.129 259.79 273.228C259.697 273.327 259.585 273.405 259.46 273.458C259.335 273.511 259.2 273.537 259.065 273.535C256.719 273.463 255.98 273.269 253.019 273.224C249.559 273.165 248.814 273.599 244.757 273.541C242.301 273.502 241.906 271.014 242.956 270.794C245.743 270.237 248.334 268.953 250.466 267.074C250.888 266.741 251.421 266.581 251.956 266.627Z" fill="#263238"/>
<path opacity="0.2" d="M258.365 255.689L258.573 262.842L251.924 262.752L251.717 255.591L258.365 255.689Z" fill="black"/>
<path d="M256.705 203.855C254.826 180.093 256.414 167.276 253.653 155.475L233.721 154.238C233.721 154.238 239.909 189.165 243.324 204.963C246.739 220.761 250.413 259.136 250.413 259.136L260.211 259.259C260.211 259.259 261.41 222.394 256.705 203.855Z" fill="#263238"/>
<path d="M250.439 260.898L259.712 261.041C259.904 261.043 260.089 260.972 260.23 260.842C260.371 260.712 260.457 260.532 260.47 260.341L260.671 257.283C260.679 257.181 260.666 257.08 260.634 256.984C260.601 256.888 260.549 256.8 260.481 256.725C260.413 256.649 260.331 256.589 260.239 256.547C260.146 256.504 260.047 256.481 259.945 256.479L249.856 256.168C249.744 256.164 249.632 256.185 249.529 256.23C249.427 256.276 249.335 256.343 249.263 256.429C249.19 256.514 249.137 256.615 249.108 256.723C249.08 256.832 249.076 256.946 249.098 257.056L249.746 260.296C249.781 260.458 249.867 260.604 249.992 260.713C250.117 260.821 250.274 260.887 250.439 260.898Z" fill="#263238"/>
<path opacity="0.1" d="M250.439 260.898L259.712 261.041C259.904 261.043 260.089 260.972 260.23 260.842C260.371 260.712 260.457 260.532 260.47 260.341L260.671 257.283C260.679 257.181 260.666 257.08 260.634 256.984C260.601 256.888 260.549 256.8 260.481 256.725C260.413 256.649 260.331 256.589 260.239 256.547C260.146 256.504 260.047 256.481 259.945 256.479L249.856 256.168C249.744 256.164 249.632 256.185 249.529 256.23C249.427 256.276 249.335 256.343 249.263 256.429C249.19 256.514 249.137 256.615 249.108 256.723C249.08 256.832 249.076 256.946 249.098 257.056L249.746 260.296C249.781 260.458 249.867 260.604 249.992 260.713C250.117 260.821 250.274 260.887 250.439 260.898Z" fill="white"/>
<path d="M233.079 117.684C232.314 119.337 231.517 120.801 230.649 122.311C229.781 123.821 228.867 125.285 227.856 126.724C226.834 128.209 225.717 129.627 224.512 130.968C223.176 132.513 221.608 133.841 219.866 134.908L219.639 135.038C219.252 135.266 218.821 135.409 218.374 135.458C217.927 135.507 217.475 135.461 217.047 135.323C215.784 134.914 214.559 134.454 213.36 133.962C212.162 133.469 210.995 132.925 209.848 132.355C208.701 131.785 207.58 131.182 206.479 130.534C205.377 129.886 204.301 129.238 203.239 128.454C202.858 128.184 202.584 127.79 202.463 127.339C202.342 126.889 202.382 126.41 202.577 125.986C202.771 125.562 203.107 125.219 203.527 125.017C203.948 124.814 204.425 124.765 204.878 124.877H204.949C206.109 125.156 207.308 125.493 208.474 125.797L211.98 126.724C213.14 127.041 214.306 127.307 215.453 127.592C216.6 127.877 217.747 128.098 218.875 128.331L216.082 128.752C217.052 127.947 217.922 127.029 218.674 126.017C219.562 124.877 220.417 123.62 221.266 122.324C222.115 121.028 222.886 119.674 223.651 118.3C224.415 116.926 225.193 115.507 225.88 114.198L225.919 114.127C226.435 113.266 227.257 112.632 228.22 112.351C229.183 112.069 230.217 112.16 231.115 112.606C232.014 113.052 232.712 113.821 233.07 114.758C233.428 115.695 233.419 116.733 233.047 117.665L233.079 117.684Z" fill="#7F3E3B"/>
<path d="M234.674 106.357C226.937 107.238 221.066 119.22 221.066 119.22L229.05 127.715C229.05 127.715 232.607 123.477 236.43 118.118C240.604 112.28 240.798 105.664 234.674 106.357Z" fill="#4D61FC"/>
<path d="M233.721 108.152C236.695 107.096 250.018 108.8 250.018 108.8C247.426 112.144 245.262 139.833 245.022 155.748C242.191 156.136 231.33 155.391 228.822 154.808C229.146 148.561 231.751 119.259 233.721 108.152Z" fill="white"/>
<path d="M225.122 116.55C225.471 113.671 226.866 111.02 229.042 109.101C231.217 107.183 234.022 106.13 236.922 106.143C242.489 106.188 248.036 106.8 253.478 107.971C254.326 108.15 255.129 108.498 255.84 108.993C256.551 109.488 257.156 110.121 257.618 110.853C258.08 111.586 258.39 112.404 258.531 113.259C258.671 114.114 258.639 114.989 258.436 115.831C254.334 133.035 255.416 149.358 254.321 156.953C250.417 158.388 246.27 159.049 242.113 158.897C242.113 158.897 242.21 152.346 243.123 141.284C243.849 132.491 245.152 111.813 247.834 108.379C247.834 108.379 238.218 107.083 235.244 108.126C233.034 120.6 231.414 158.385 231.414 158.391C226.71 158.054 224.493 155.437 224.565 154.659C223.612 139.373 224.092 125.512 225.122 116.55Z" fill="#4D61FC"/>
<path d="M248.178 97.4146C247.277 100.007 246.234 104.601 247.899 107.18C247.984 107.3 248.041 107.437 248.066 107.581C248.091 107.726 248.084 107.874 248.045 108.015C248.006 108.156 247.936 108.287 247.84 108.398C247.744 108.509 247.625 108.598 247.491 108.657C244.814 110.201 241.721 110.868 238.646 110.562C234.466 110.226 234.758 108.34 235.834 107.115C236.088 106.832 236.44 106.656 236.819 106.623C240.765 106.15 240.804 103.771 240.234 101.439L248.178 97.4146Z" fill="#7F3E3B"/>
<path opacity="0.2" d="M244.938 99.0669L240.24 101.458C240.389 102.01 240.474 102.578 240.493 103.149C242.204 103.149 244.627 102.002 244.906 100.687C245.049 100.158 245.06 99.6014 244.938 99.0669Z" fill="black"/>
<path d="M241.913 88.4052C242.089 86.0677 240.818 84.066 239.073 83.9342C237.328 83.8023 235.77 85.5904 235.593 87.9278C235.417 90.2653 236.688 92.267 238.433 92.3988C240.178 92.5307 241.736 90.7427 241.913 88.4052Z" fill="#263238"/>
<path d="M250.718 90.3319C249.85 95.4446 249.597 98.4837 246.759 100.862C242.488 104.432 236.494 101.413 235.846 96.1444C235.257 91.4076 236.773 83.8324 241.944 82.3032C247.115 80.7739 251.586 85.2127 250.718 90.3319Z" fill="#7F3E3B"/>
<path d="M249.604 94.6541C249.539 94.6541 249.461 94.5699 249.39 94.6087C247.07 95.9047 246.318 93.1183 246.461 91.2651C246.508 90.6468 246.686 90.0456 246.982 89.5007C247.278 88.9557 247.685 88.4794 248.178 88.1028C245.664 88.3879 243.227 86.7679 243.188 85.2581C240.408 86.4828 237.058 86.5541 235.548 83.9621C234.039 81.3701 236.196 77.9811 239.074 78.8818C237.907 76.7952 242.838 72.6221 248.003 78.7781C248.165 74.3134 255.384 78.7781 254.198 83.1651C257.542 84.3185 260.406 90.6689 254.736 92.0232C254.36 97.9071 249.604 94.6541 249.604 94.6541Z" fill="#263238"/>
<path d="M252.338 96.2612C251.553 97.2242 250.433 97.854 249.202 98.0237C247.647 98.1987 247.303 96.6176 248.1 95.179C248.82 93.883 250.491 92.2371 251.878 92.7425C253.265 93.248 253.349 95.03 252.338 96.2612Z" fill="#7F3E3B"/>
<path d="M243.304 90.7143C243.265 91.142 243.013 91.4595 242.734 91.4336C242.455 91.4077 242.261 91.0448 242.3 90.6171C242.339 90.1895 242.591 89.8784 242.87 89.9043C243.149 89.9303 243.337 90.2931 243.304 90.7143Z" fill="#263238"/>
<path d="M238.283 90.1568C238.245 90.578 237.992 90.8955 237.713 90.8696C237.435 90.8437 237.247 90.4808 237.279 90.0596C237.311 89.6384 237.571 89.3144 237.849 89.3403C238.128 89.3662 238.348 89.7291 238.283 90.1568Z" fill="#263238"/>
<path d="M240.247 90.397C239.628 91.6393 238.841 92.7905 237.908 93.8184C238.177 94.0527 238.494 94.2257 238.836 94.3253C239.179 94.4249 239.539 94.4487 239.891 94.3951L240.247 90.397Z" fill="#630F0F"/>
<path d="M241.199 96.4555C241.669 96.4885 242.142 96.4257 242.587 96.2709C243.033 96.1161 243.442 95.8725 243.791 95.5548C243.802 95.5429 243.811 95.5288 243.817 95.5134C243.823 95.498 243.826 95.4816 243.826 95.465C243.826 95.4485 243.822 95.4322 243.816 95.417C243.809 95.4018 243.799 95.3881 243.788 95.3766C243.776 95.3651 243.762 95.3561 243.746 95.35C243.731 95.344 243.714 95.341 243.698 95.3413C243.681 95.3416 243.665 95.3452 243.65 95.3518C243.635 95.3584 243.621 95.3679 243.609 95.3799C243.215 95.729 242.743 95.9797 242.233 96.1115C241.723 96.2433 241.188 96.2524 240.674 96.138C240.658 96.1343 240.642 96.1338 240.626 96.1368C240.61 96.1397 240.595 96.146 240.581 96.1551C240.568 96.1643 240.556 96.1761 240.548 96.1899C240.539 96.2037 240.534 96.2191 240.531 96.2352C240.525 96.2678 240.532 96.3013 240.55 96.3291C240.568 96.3568 240.596 96.3765 240.629 96.3843C240.836 96.4167 241.017 96.4426 241.199 96.4555Z" fill="#263238"/>
<path d="M244.964 89.6842C245.004 89.6936 245.046 89.6936 245.087 89.6842C245.117 89.6709 245.144 89.6517 245.166 89.6278C245.189 89.6039 245.207 89.5757 245.218 89.5449C245.229 89.5141 245.235 89.4813 245.233 89.4485C245.232 89.4156 245.224 89.3834 245.21 89.3537C245.058 88.9871 244.821 88.6616 244.519 88.4037C244.218 88.1459 243.859 87.9629 243.473 87.8698C243.408 87.8604 243.342 87.8768 243.289 87.9155C243.235 87.9543 243.199 88.0122 243.188 88.0771C243.179 88.1423 243.195 88.2086 243.234 88.2618C243.273 88.3151 243.331 88.3511 243.395 88.3623C243.7 88.4407 243.981 88.5895 244.218 88.7965C244.454 89.0036 244.639 89.2633 244.756 89.5546C244.778 89.5912 244.808 89.6221 244.844 89.6447C244.88 89.6672 244.921 89.6808 244.964 89.6842Z" fill="#263238"/>
<path d="M236.178 88.0896C236.218 88.1004 236.26 88.1012 236.301 88.0922C236.342 88.0832 236.379 88.0645 236.411 88.0378C236.642 87.8286 236.919 87.6767 237.22 87.5945C237.52 87.5123 237.836 87.5021 238.141 87.5648C238.204 87.5828 238.271 87.5751 238.329 87.5436C238.386 87.512 238.428 87.459 238.446 87.3963C238.464 87.3327 238.457 87.2645 238.425 87.2064C238.394 87.1482 238.341 87.1047 238.278 87.0853C237.892 86.9974 237.491 87.004 237.108 87.1044C236.726 87.2048 236.373 87.3961 236.081 87.662C236.058 87.6849 236.039 87.7121 236.027 87.7421C236.014 87.7722 236.008 87.8044 236.008 87.8369C236.008 87.8695 236.014 87.9017 236.027 87.9317C236.039 87.9617 236.058 87.989 236.081 88.0119C236.106 88.0461 236.139 88.073 236.178 88.0896Z" fill="#263238"/>
<path d="M259.977 115.481C260.399 116.304 260.742 117.016 261.079 117.788C261.416 118.559 261.727 119.304 262.064 120.069C262.712 121.598 263.276 123.153 263.807 124.728C264.888 127.913 265.715 131.178 266.282 134.493L266.457 135.789L266.548 136.437V136.593V136.878C266.548 137.085 266.58 137.292 266.58 137.526C266.555 138.707 266.321 139.874 265.887 140.973C265.242 142.651 264.421 144.256 263.438 145.762C262.545 147.171 261.578 148.531 260.541 149.838C259.525 151.138 258.443 152.386 257.301 153.577C256.973 153.924 256.531 154.142 256.055 154.191C255.58 154.24 255.102 154.117 254.71 153.844C254.318 153.571 254.036 153.166 253.917 152.703C253.798 152.24 253.849 151.75 254.061 151.322V151.27C255.402 148.477 256.822 145.652 257.949 142.898C258.241 142.211 258.5 141.524 258.727 140.856C258.952 140.233 259.141 139.597 259.29 138.951C259.396 138.55 259.433 138.134 259.401 137.72C259.401 137.72 259.401 137.759 259.401 137.72L259.368 137.59L259.245 137.053L259.005 135.983C258.258 133.082 257.343 130.226 256.264 127.43C255.746 126.004 255.156 124.598 254.586 123.185C254.301 122.486 253.996 121.786 253.692 121.092L252.785 119.071L252.733 118.954C252.277 118 252.219 116.904 252.572 115.908C252.924 114.912 253.658 114.096 254.612 113.64C255.566 113.185 256.661 113.127 257.658 113.48C258.654 113.832 259.47 114.566 259.925 115.52L259.977 115.481Z" fill="#7F3E3B"/>
<path d="M254.147 108.152C262.778 110.329 265.163 121.365 265.163 121.365L254.445 129.05C254.445 129.05 251.788 126.27 250.985 119.738C250.615 116.621 252.397 108.068 254.147 108.152Z" fill="#4D61FC"/>
<path d="M255.474 149.948L250.484 151.814L254.308 156.933C254.308 156.933 258.617 154.698 257.8 152.216L255.474 149.948Z" fill="#7F3E3B"/>
<path d="M246.772 152.54C245.428 152.314 244.049 152.439 242.767 152.903L245.243 138.193C245.434 137.044 245.162 135.867 244.487 134.918C243.812 133.97 242.788 133.327 241.64 133.132L198.613 125.888C197.466 125.698 196.291 125.97 195.344 126.644C194.397 127.317 193.755 128.339 193.558 129.484L191.044 144.226C192.324 143.756 193.705 143.631 195.049 143.863C196.243 144.064 197.376 144.535 198.36 145.243C199.344 145.95 200.152 146.873 200.723 147.942C201.294 149.01 201.612 150.195 201.653 151.406C201.693 152.617 201.456 153.821 200.958 154.926C200.46 156.03 199.716 157.006 198.782 157.777C197.848 158.549 196.749 159.096 195.571 159.376C194.392 159.657 193.165 159.663 191.984 159.394C190.802 159.126 189.698 158.59 188.757 157.828L186.275 172.537C186.083 173.686 186.355 174.863 187.03 175.812C187.706 176.761 188.73 177.403 189.878 177.598L232.905 184.843C234.052 185.032 235.228 184.761 236.176 184.087C237.124 183.413 237.767 182.392 237.966 181.246L240.441 166.53C241.384 167.28 242.485 167.805 243.662 168.065C244.838 168.325 246.058 168.314 247.229 168.031C248.401 167.748 249.492 167.202 250.42 166.434C251.348 165.666 252.089 164.696 252.585 163.598C253.082 162.5 253.322 161.304 253.286 160.1C253.251 158.896 252.941 157.715 252.38 156.649C251.819 155.582 251.023 154.658 250.051 153.946C249.079 153.234 247.958 152.753 246.772 152.54Z" fill="#4D61FC"/>
<path opacity="0.6" d="M246.772 152.54C245.428 152.314 244.049 152.439 242.767 152.903L245.243 138.193C245.434 137.044 245.162 135.867 244.487 134.918C243.812 133.97 242.788 133.327 241.64 133.132L198.613 125.888C197.466 125.698 196.291 125.97 195.344 126.644C194.397 127.317 193.755 128.339 193.558 129.484L191.044 144.226C192.324 143.756 193.705 143.631 195.049 143.863C196.243 144.064 197.376 144.535 198.36 145.243C199.344 145.95 200.152 146.873 200.723 147.942C201.294 149.01 201.612 150.195 201.653 151.406C201.693 152.617 201.456 153.821 200.958 154.926C200.46 156.03 199.716 157.006 198.782 157.777C197.848 158.549 196.749 159.096 195.571 159.376C194.392 159.657 193.165 159.663 191.984 159.394C190.802 159.126 189.698 158.59 188.757 157.828L186.275 172.537C186.083 173.686 186.355 174.863 187.03 175.812C187.706 176.761 188.73 177.403 189.878 177.598L232.905 184.843C234.052 185.032 235.228 184.761 236.176 184.087C237.124 183.413 237.767 182.392 237.966 181.246L240.441 166.53C241.384 167.28 242.485 167.805 243.662 168.065C244.838 168.325 246.058 168.314 247.229 168.031C248.401 167.748 249.492 167.202 250.42 166.434C251.348 165.666 252.089 164.696 252.585 163.598C253.082 162.5 253.322 161.304 253.286 160.1C253.251 158.896 252.941 157.715 252.38 156.649C251.819 155.582 251.023 154.658 250.051 153.946C249.079 153.234 247.958 152.753 246.772 152.54Z" fill="white"/>
<path d="M248.153 156.843L249.793 158.411C250.108 158.714 250.522 158.895 250.959 158.921C251.396 158.948 251.828 158.817 252.177 158.553L254.309 156.953L250.486 151.833L248.121 154.205C247.947 154.379 247.809 154.586 247.716 154.813C247.623 155.041 247.577 155.285 247.58 155.531C247.583 155.777 247.635 156.019 247.734 156.245C247.832 156.47 247.975 156.673 248.153 156.843Z" fill="#7F3E3B"/>
<path d="M200.117 127.268L200.713 125.058C200.813 124.798 200.991 124.576 201.224 124.423C201.456 124.269 201.731 124.192 202.009 124.203C202.853 124.168 203.696 124.298 204.491 124.585L207.86 125.829L207.698 127.203C207.562 128.382 206.247 129.367 204.757 129.413C203.756 129.426 202.757 129.319 201.782 129.095L201.419 129.017C201.213 129.003 201.012 128.944 200.83 128.844C200.648 128.745 200.49 128.607 200.367 128.441C200.243 128.275 200.157 128.084 200.114 127.882C200.07 127.679 200.072 127.47 200.117 127.268Z" fill="#7F3E3B"/>
<path d="M147.039 96.7669C149.196 94.2591 152.443 87.7467 146.339 85.2584C141.835 83.4181 132.277 84.3577 126.789 92.9048C123.037 94.2008 121.929 102.547 130.592 104.303C139.256 106.059 147.039 96.7669 147.039 96.7669Z" fill="#263238"/>
<path d="M166.614 257.568L156.713 258.391L158.391 270.029L166.666 269.355L166.614 257.568Z" fill="#FFC3BD"/>
<path opacity="0.2" d="M166.615 257.575L156.707 258.398L157.653 264.917L166.647 264.171L166.615 257.575Z" fill="black"/>
<path d="M147.687 223.309C143.799 208.405 133.729 190.662 140.111 176.322L167.852 176.238C167.852 176.238 168.539 205.754 168.734 219.654C168.928 234.188 167.716 261.534 167.716 261.534L156.37 262.396C156.37 262.396 148.594 240.02 147.687 223.309Z" fill="#4D61FC"/>
<path d="M155.806 262.843L168.066 261.942C168.17 261.933 168.268 261.887 168.342 261.812C168.416 261.737 168.46 261.639 168.468 261.534L168.727 256.998C168.731 256.935 168.721 256.872 168.698 256.813C168.675 256.754 168.64 256.701 168.594 256.658C168.548 256.615 168.493 256.582 168.433 256.562C168.373 256.543 168.31 256.536 168.247 256.544L154.639 258.352C154.577 258.359 154.518 258.379 154.465 258.412C154.412 258.444 154.367 258.488 154.332 258.54C154.298 258.592 154.276 258.651 154.268 258.713C154.259 258.774 154.264 258.837 154.283 258.897L155.359 262.538C155.389 262.632 155.449 262.712 155.53 262.767C155.611 262.822 155.708 262.849 155.806 262.843Z" fill="#263238"/>
<path opacity="0.2" d="M140.013 190.429C139.906 193.949 140.049 197.472 140.441 200.972C141.795 205.657 143.525 210.348 145.08 214.897C147.115 202.015 147.122 187.001 140.013 190.429Z" fill="black"/>
<path d="M129.963 258.294L120.023 258.391L120.01 270.12L128.317 270.055L129.963 258.294Z" fill="#FFC3BD"/>
<path d="M119.225 268.318C119.235 268.253 119.258 268.191 119.293 268.135C119.329 268.079 119.375 268.031 119.43 267.995C119.485 267.958 119.547 267.933 119.612 267.922C119.677 267.911 119.744 267.914 119.808 267.93C122.303 268.921 127.033 268.163 128.822 267.819C129.019 267.779 129.223 267.779 129.42 267.82C129.617 267.861 129.804 267.943 129.969 268.059C131.432 268.998 133.017 269.73 134.68 270.236C135.036 271.19 135.126 272.223 134.939 273.224H118.182C118.654 271.618 119.003 269.978 119.225 268.318Z" fill="#263238"/>
<path d="M157.295 268.318C157.305 268.253 157.328 268.191 157.364 268.135C157.399 268.079 157.446 268.031 157.501 267.995C157.556 267.958 157.618 267.933 157.683 267.922C157.748 267.911 157.814 267.914 157.878 267.93C160.373 268.921 165.104 268.163 166.892 267.819C167.09 267.779 167.293 267.779 167.49 267.82C167.688 267.861 167.875 267.943 168.039 268.059C169.944 269.407 175.025 270.236 175.025 270.236C175.381 271.19 175.469 272.224 175.277 273.224H156.252C156.725 271.618 157.074 269.978 157.295 268.318Z" fill="#263238"/>
<path opacity="0.2" d="M129.963 258.3L120.016 258.391L120.01 264.962L129.043 264.884L129.963 258.3Z" fill="black"/>
<path d="M118.624 218.487C117.276 203.434 113.051 183.158 117.846 176.238H150.311C150.311 176.238 143.695 206.253 140.98 220.146C138.161 234.59 130.054 262.325 130.054 262.325L119.304 262.357C119.304 262.357 115.228 235.672 118.624 218.487Z" fill="#4D61FC"/>
<path opacity="0.2" d="M120.574 259.279C120.504 259.278 120.436 259.255 120.38 259.213C120.325 259.171 120.283 259.112 120.263 259.045C119.492 256.453 119.615 226.678 121.559 218.526C121.559 217.45 121.332 215.338 121.073 212.662C120.185 203.59 118.539 186.742 120.995 177.184C121.017 177.098 121.071 177.024 121.147 176.978C121.223 176.933 121.314 176.919 121.4 176.941C121.486 176.962 121.56 177.017 121.606 177.093C121.651 177.169 121.665 177.26 121.643 177.346C119.213 186.8 120.853 203.583 121.734 212.603C122 215.325 122.213 217.47 122.226 218.558C122.23 218.586 122.23 218.615 122.226 218.643C120.36 226.354 120.179 256.356 120.93 258.864C120.955 258.946 120.946 259.034 120.906 259.109C120.866 259.184 120.798 259.24 120.716 259.266C120.671 259.284 120.622 259.288 120.574 259.279Z" fill="white"/>
<path d="M118.559 262.758H130.735C130.832 262.761 130.927 262.729 131.002 262.667C131.078 262.605 131.128 262.518 131.143 262.421L131.947 258.099C131.958 258.034 131.955 257.967 131.938 257.903C131.92 257.839 131.888 257.779 131.845 257.729C131.801 257.679 131.747 257.639 131.686 257.612C131.626 257.585 131.56 257.572 131.493 257.574L118.235 258.164C118.179 258.166 118.124 258.179 118.073 258.202C118.023 258.226 117.977 258.26 117.94 258.302C117.903 258.344 117.875 258.393 117.858 258.446C117.841 258.499 117.834 258.556 117.84 258.611L118.112 262.344C118.122 262.456 118.173 262.561 118.255 262.637C118.338 262.714 118.446 262.757 118.559 262.758Z" fill="#263238"/>
<path d="M161.34 123.808C161.988 126.4 162.584 128.992 163.161 131.584C163.737 134.176 164.282 136.768 164.787 139.36L165.565 143.248L166.29 147.136C166.789 149.728 167.23 152.359 167.684 154.977L166.627 152.612C166.769 153.097 167.073 153.518 167.489 153.804C168.319 154.364 169.253 154.75 170.237 154.938C171.547 155.24 172.884 155.416 174.228 155.463C174.948 155.502 175.686 155.528 176.432 155.515C176.801 155.515 177.177 155.515 177.553 155.515C177.929 155.515 178.337 155.515 178.596 155.515L179.516 155.579C180.29 155.629 181.027 155.929 181.616 156.434C182.205 156.94 182.614 157.623 182.78 158.38C182.947 159.138 182.863 159.929 182.541 160.635C182.218 161.341 181.675 161.923 180.994 162.293C180.475 162.578 180.106 162.792 179.665 163.018C179.225 163.245 178.816 163.44 178.369 163.666C177.501 164.042 176.613 164.399 175.693 164.697C174.759 165.003 173.81 165.258 172.848 165.461C171.836 165.663 170.812 165.806 169.783 165.889C168.671 165.968 167.555 165.951 166.446 165.837C165.214 165.734 163.999 165.477 162.83 165.073C161.519 164.636 160.274 164.021 159.13 163.245C157.924 162.41 156.849 161.398 155.942 160.245C155.55 159.758 155.26 159.199 155.087 158.599L154.886 157.88C154.173 155.327 153.441 152.78 152.767 150.214L151.736 146.378L150.758 142.529C150.11 139.937 149.462 137.384 148.872 134.805C148.283 132.226 147.693 129.621 147.181 127.029C146.814 125.174 147.186 123.249 148.216 121.664C149.247 120.079 150.855 118.959 152.699 118.542C154.544 118.125 156.478 118.443 158.09 119.431C159.703 120.418 160.866 121.995 161.333 123.827L161.34 123.808Z" fill="#FFC3BD"/>
<path d="M178.143 156.156L178.279 160.342C179.97 164.405 184.817 161.321 184.817 161.321L187.746 160.783C188.256 160.653 188.703 160.347 189.009 159.919C189.315 159.491 189.46 158.968 189.418 158.444L189.34 155.515C189.36 154.91 189.142 154.322 188.734 153.875C188.326 153.428 187.76 153.159 187.156 153.124L184.564 153.175C183.808 153.188 183.066 153.389 182.406 153.759L178.143 156.156Z" fill="#FFC3BD"/>
<path d="M156.375 116.589C162.336 119.725 166.231 130.793 166.231 130.793C164.974 135.977 159.906 145.432 155.215 145.373C155.215 145.373 148.327 136.489 147.581 130.061C146.674 122.291 144.322 110.252 156.375 116.589Z" fill="#263238"/>
<path d="M150.868 114.749C141.668 113.874 132.399 114.022 123.231 115.19C117.93 115.935 114.159 119.233 114.807 130.094C116.103 152.126 114.094 169.298 116.893 177.216C116.893 177.216 157.666 188.88 169.291 177.702C172.116 151.192 162.603 129.186 158.275 120.03C157.597 118.588 156.559 117.345 155.262 116.42C153.965 115.496 152.452 114.92 150.868 114.749Z" fill="#263238"/>
<path d="M147.802 117.159C146.745 116.123 145.637 116.725 145.125 115.164C144.9 113.938 145.106 112.671 145.709 111.58L133.131 104.789C133.377 109.416 133.565 113.07 131.511 114.911C130.915 118.358 137.343 121.799 145.903 121.851C151.353 121.883 149.325 118.65 147.802 117.159Z" fill="#FFC3BD"/>
<path opacity="0.2" d="M145.521 111.969L135.594 109.487C138.102 113.434 142.618 115.591 145.048 114.639C144.979 113.723 145.141 112.805 145.521 111.969Z" fill="black"/>
<path d="M141.414 89.3281C134.843 87.8701 129.167 93.3262 130.437 99.2749C131.707 105.224 132.711 109.241 136.826 111.263C145.004 115.293 148.996 111.405 149.663 105.191C150.266 99.5924 148.082 90.799 141.414 89.3281Z" fill="#FFC3BD"/>
<path opacity="0.2" d="M140.124 99.8904C139.352 99.6971 138.535 99.8158 137.85 100.221C138.622 100.262 139.395 100.149 140.124 99.8904Z" fill="black"/>
<path opacity="0.2" d="M140.169 100.441C139.805 100.424 139.443 100.487 139.107 100.626C138.771 100.765 138.47 100.976 138.225 101.245C138.923 101.121 139.587 100.847 140.169 100.441Z" fill="black"/>
<path d="M131.265 104.303C134.94 105.126 136.449 103.286 136.449 101.225C136.449 99.0347 134.382 95.3346 132.114 94.6542C132.924 89.7942 146.318 96.5982 145.042 89.8655C145.042 89.8655 144.679 88.7121 141.219 88.0641C137.758 87.4161 128.511 89.5026 129.159 96.4168C129.807 103.331 131.265 104.303 131.265 104.303Z" fill="#263238"/>
<path d="M126.588 93.248C127.487 91.4434 127.741 89.3851 127.307 87.416C127.307 87.416 131.338 90.0793 126.588 93.248Z" fill="#263238"/>
<path d="M143.487 106.15C143.762 106.129 144.035 106.088 144.304 106.027C144.325 106.022 144.345 106.014 144.362 106.001C144.38 105.989 144.395 105.973 144.406 105.955C144.417 105.937 144.425 105.917 144.429 105.896C144.432 105.875 144.432 105.853 144.427 105.833C144.423 105.811 144.415 105.791 144.403 105.773C144.391 105.755 144.375 105.74 144.357 105.728C144.339 105.716 144.318 105.709 144.297 105.706C144.275 105.702 144.254 105.704 144.233 105.709C143.56 105.874 142.858 105.878 142.183 105.723C141.508 105.568 140.878 105.257 140.345 104.815C140.33 104.8 140.311 104.787 140.291 104.779C140.271 104.77 140.25 104.766 140.228 104.766C140.206 104.766 140.185 104.77 140.165 104.779C140.145 104.787 140.126 104.8 140.111 104.815C140.081 104.847 140.064 104.888 140.064 104.932C140.064 104.975 140.081 105.017 140.111 105.048C140.573 105.447 141.109 105.749 141.689 105.938C142.268 106.127 142.88 106.199 143.487 106.15Z" fill="#263238"/>
<path d="M128.938 104.588C129.359 105.158 129.888 105.64 130.495 106.005C131.102 106.369 131.776 106.61 132.476 106.714C134.362 106.973 135.068 105.23 134.343 103.584C133.695 102.1 131.932 100.182 130.144 100.675C128.355 101.167 127.915 103.169 128.938 104.588Z" fill="#FFC3BD"/>
<path d="M141.194 99.9552C141.272 100.48 141.609 100.869 141.952 100.817C142.296 100.765 142.516 100.292 142.438 99.7673C142.36 99.2424 142.03 98.8601 141.686 98.9119C141.343 98.9638 141.149 99.4044 141.194 99.9552Z" fill="#263238"/>
<path d="M147.369 99.1256C147.447 99.6569 147.784 100.039 148.127 99.9874C148.47 99.9355 148.691 99.469 148.613 98.9441C148.535 98.4192 148.205 98.0304 147.861 98.0823C147.518 98.1341 147.298 98.6007 147.369 99.1256Z" fill="#263238"/>
<path d="M145.035 99.8188L145.333 104.264C145.333 104.264 146.791 104.517 147.582 103.674C147.08 102.191 146.203 100.863 145.035 99.8188Z" fill="#ED847E"/>
<path d="M139.158 98.7564C139.105 98.7708 139.049 98.7706 138.996 98.7558C138.943 98.741 138.895 98.7121 138.857 98.6723C138.819 98.6324 138.793 98.583 138.781 98.5294C138.769 98.4757 138.771 98.4198 138.789 98.3676C138.912 97.8859 139.148 97.4403 139.477 97.0674C139.805 96.6946 140.218 96.4051 140.681 96.2227C140.759 96.1982 140.844 96.2056 140.916 96.2432C140.989 96.2808 141.044 96.3456 141.07 96.4236C141.094 96.5027 141.087 96.5882 141.05 96.6621C141.012 96.7359 140.947 96.7922 140.869 96.8189C140.503 96.9678 140.179 97.201 139.921 97.4995C139.663 97.7979 139.479 98.1531 139.385 98.5361C139.37 98.5897 139.341 98.6384 139.301 98.6772C139.262 98.7159 139.212 98.7433 139.158 98.7564Z" fill="#263238"/>
<path d="M149.397 96.7669C149.346 96.7716 149.294 96.7627 149.247 96.7411C149.201 96.7195 149.161 96.6859 149.131 96.6438C148.909 96.3219 148.613 96.058 148.268 95.8742C147.923 95.6904 147.539 95.5921 147.148 95.5876C147.062 95.5876 146.98 95.5534 146.919 95.4926C146.858 95.4319 146.824 95.3495 146.824 95.2636C146.824 95.1776 146.858 95.0952 146.919 95.0344C146.98 94.9737 147.062 94.9396 147.148 94.9396C147.642 94.9356 148.129 95.0515 148.568 95.2772C149.007 95.5029 149.385 95.8318 149.669 96.2356C149.693 96.2687 149.71 96.3063 149.719 96.3461C149.728 96.3859 149.73 96.4271 149.723 96.4674C149.717 96.5077 149.702 96.5463 149.681 96.581C149.659 96.6158 149.631 96.6459 149.598 96.6697C149.573 96.6989 149.542 96.7226 149.507 96.7393C149.473 96.756 149.435 96.7654 149.397 96.7669Z" fill="#263238"/>
<path d="M187.155 139.146C185.798 139.242 184.49 139.688 183.358 140.442L182.185 125.538C182.089 124.379 181.538 123.305 180.653 122.549C179.769 121.794 178.621 121.42 177.461 121.508L133.961 124.936C132.802 125.033 131.729 125.584 130.974 126.469C130.219 127.353 129.844 128.5 129.93 129.66L133.364 173.16C133.457 174.32 134.007 175.397 134.892 176.153C135.778 176.908 136.928 177.282 138.088 177.19L181.582 173.756C182.743 173.662 183.819 173.112 184.575 172.227C185.332 171.342 185.707 170.193 185.619 169.032L184.44 154.16C185.675 154.739 187.04 154.985 188.399 154.873C190.352 154.545 192.11 153.496 193.328 151.935C194.546 150.374 195.135 148.414 194.979 146.44C194.822 144.466 193.933 142.623 192.484 141.273C191.036 139.922 189.135 139.164 187.155 139.146Z" fill="#4D61FC"/>
<path d="M124.079 133.197L123.431 134.39L122.686 135.725C122.207 136.632 121.714 137.539 121.267 138.459C120.369 140.252 119.564 142.091 118.856 143.967C118.513 144.874 118.208 145.775 117.982 146.663C117.723 147.513 117.519 148.379 117.373 149.255C117.101 150.664 117.055 152.108 117.236 153.532L115.746 150.94C116.367 151.791 117.106 152.548 117.943 153.188C119.042 154.066 120.196 154.873 121.397 155.605C122.647 156.409 123.989 157.18 125.336 157.951L127.397 159.098C128.045 159.487 128.823 159.876 129.438 160.251L129.749 160.439C130.437 160.856 130.969 161.488 131.263 162.237C131.556 162.985 131.596 163.81 131.375 164.583C131.154 165.357 130.685 166.036 130.04 166.517C129.395 166.997 128.61 167.253 127.805 167.243C126.82 167.243 125.978 167.178 125.071 167.107C124.164 167.036 123.302 166.926 122.42 166.783C120.629 166.514 118.857 166.133 117.113 165.643C115.268 165.126 113.469 164.456 111.735 163.64C109.685 162.696 107.801 161.427 106.156 159.882C105.564 159.317 105.119 158.617 104.86 157.841L104.678 157.284C103.664 154.206 103.284 150.954 103.564 147.726C103.784 144.913 104.323 142.135 105.171 139.444C105.96 136.916 106.939 134.451 108.1 132.07C108.663 130.903 109.24 129.75 109.888 128.629C110.206 128.065 110.536 127.501 110.873 126.944L111.404 126.102L111.683 125.674L112.02 125.175C113.061 123.6 114.676 122.493 116.52 122.089C118.365 121.686 120.294 122.018 121.897 123.015C123.501 124.011 124.653 125.594 125.107 127.427C125.562 129.26 125.284 131.197 124.332 132.828L124.079 133.197Z" fill="#FFC3BD"/>
<path d="M119.018 116.589C108.274 122.33 104.27 135.154 104.27 135.154C106.395 139.204 119.212 143.578 124.034 142.386C124.034 142.386 128.654 133.962 129.606 126.432C130.488 119.453 125.31 113.226 119.018 116.589Z" fill="#263238"/>
<path d="M126.535 160.964L126.755 165.15C128.531 169.181 133.313 165.999 133.313 165.999L136.236 165.403C136.743 165.263 137.184 164.948 137.48 164.514C137.777 164.08 137.91 163.554 137.856 163.031L137.726 160.109C137.742 159.5 137.519 158.91 137.105 158.464C136.69 158.018 136.118 157.753 135.51 157.724L132.918 157.828C132.16 157.862 131.423 158.085 130.773 158.476L126.535 160.964Z" fill="#FFC3BD"/>
</svg>
