<svg width="48" height="30" viewBox="0 0 48 30" fill="none" xmlns="http://www.w3.org/2000/svg">
<path d="M44.3271 0.81H43.8481C43.1162 0.760047 42.3886 0.956381 41.7812 1.36774C41.1738 1.7791 40.7214 2.38185 40.4962 3.08002L35.5641 21.334L31.2841 2.61301C31.1341 2.07915 30.8088 1.6113 30.3606 1.28479C29.9124 0.958282 29.3673 0.792116 28.8132 0.813021H25.8331C25.2795 0.79298 24.7353 0.959521 24.2877 1.28595C23.8401 1.61238 23.5152 2.07976 23.3652 2.61301L18.9951 21.342L13.8132 2.025C13.7059 1.68431 13.4955 1.38533 13.2111 1.16931C12.9266 0.953292 12.5821 0.830882 12.2252 0.819002V0.809023H2.84314C2.15358 0.809023 1.49229 1.08293 1.0047 1.57053C0.517105 2.05812 0.243164 2.71944 0.243164 3.409C0.243164 4.09856 0.517105 4.75991 1.0047 5.2475C1.49229 5.73509 2.15358 6.00901 2.84314 6.00901H8.20215L15.0021 27.353C15.2881 28.1334 15.8128 28.8039 16.5016 29.269C17.1905 29.7342 18.0084 29.9704 18.8392 29.944H18.9852C19.8635 29.9765 20.7271 29.7121 21.4365 29.1933C22.146 28.6746 22.6598 27.9318 22.8951 27.085L27.3262 7.625L31.7092 27.084C31.9434 27.9323 32.4571 28.6766 33.1671 29.1966C33.877 29.7165 34.7417 29.9817 35.6212 29.949H35.7081C36.5403 29.9753 37.3596 29.7381 38.049 29.2712C38.7384 28.8043 39.2627 28.1316 39.5471 27.349L46.9722 3.94C47.0686 3.55177 47.0714 3.1462 46.9806 2.75662C46.8897 2.36705 46.7078 2.00458 46.4496 1.69904C46.1914 1.39349 45.8643 1.15361 45.4954 0.999056C45.1264 0.844503 44.726 0.779694 44.3271 0.81Z" fill="#29ABE2"/>
</svg>
